<?xml version="1.0" encoding="UTF-8" standalone="no"?>
<!DOCTYPE svg PUBLIC "-//W3C//DTD SVG 1.1//EN"
 "http://www.w3.org/Graphics/SVG/1.1/DTD/svg11.dtd">
<!-- Generated by graphviz version 2.40.1 (20161225.0304)
 -->
<!-- Title: G Pages: 1 -->
<svg width="260pt" height="2150pt"
 viewBox="0.00 0.00 260.00 2150.00" xmlns="http://www.w3.org/2000/svg" xmlns:xlink="http://www.w3.org/1999/xlink">
<g id="graph0" class="graph" transform="scale(1 1) rotate(0) translate(4 2146)">
<title>G</title>
<polygon fill="#ffffff" stroke="transparent" points="-4,4 -4,-2146 256,-2146 256,4 -4,4"/>
<!-- 42 -->
<g id="node1" class="node">
<title>42</title>
<ellipse fill="none" stroke="#000000" cx="180" cy="-909" rx="18" ry="18"/>
<text text-anchor="middle" x="180" y="-907.1" font-family="Bitstream Vera Sans" font-size="8.00" fill="#000000">42</text>
</g>
<!-- 41 -->
<g id="node2" class="node">
<title>41</title>
<ellipse fill="none" stroke="#000000" cx="180" cy="-828" rx="18" ry="18"/>
<text text-anchor="middle" x="180" y="-826.1" font-family="Bitstream Vera Sans" font-size="8.00" fill="#000000">41</text>
</g>
<!-- 42&#45;&gt;41 -->
<g id="edge1" class="edge">
<title>42&#45;&gt;41</title>
<path fill="none" stroke="#000000" d="M180,-890.6198C180,-880.5034 180,-867.7309 180,-856.3637"/>
<polygon fill="#000000" stroke="#000000" points="183.5001,-856.0284 180,-846.0284 176.5001,-856.0284 183.5001,-856.0284"/>
<text text-anchor="middle" x="185.5" y="-866.6" font-family="Bitstream Vera Sans" font-size="8.00" fill="#000000">50</text>
</g>
<!-- 40 -->
<g id="node24" class="node">
<title>40</title>
<ellipse fill="none" stroke="#000000" cx="180" cy="-747" rx="18" ry="18"/>
<text text-anchor="middle" x="180" y="-745.1" font-family="Bitstream Vera Sans" font-size="8.00" fill="#000000">40</text>
</g>
<!-- 41&#45;&gt;40 -->
<g id="edge21" class="edge">
<title>41&#45;&gt;40</title>
<path fill="none" stroke="#000000" d="M180,-809.6198C180,-799.5034 180,-786.7309 180,-775.3637"/>
<polygon fill="#000000" stroke="#000000" points="183.5001,-775.0284 180,-765.0284 176.5001,-775.0284 183.5001,-775.0284"/>
<text text-anchor="middle" x="185.5" y="-785.6" font-family="Bitstream Vera Sans" font-size="8.00" fill="#000000">50</text>
</g>
<!-- 48 -->
<g id="node3" class="node">
<title>48</title>
<ellipse fill="none" stroke="#000000" cx="185" cy="-1395" rx="18" ry="18"/>
<text text-anchor="middle" x="185" y="-1393.1" font-family="Bitstream Vera Sans" font-size="8.00" fill="#000000">48</text>
</g>
<!-- 47 -->
<g id="node4" class="node">
<title>47</title>
<ellipse fill="none" stroke="#000000" cx="180" cy="-1314" rx="18" ry="18"/>
<text text-anchor="middle" x="180" y="-1312.1" font-family="Bitstream Vera Sans" font-size="8.00" fill="#000000">47</text>
</g>
<!-- 48&#45;&gt;47 -->
<g id="edge2" class="edge">
<title>48&#45;&gt;47</title>
<path fill="none" stroke="#000000" d="M183.8903,-1377.0235C183.2604,-1366.8178 182.4577,-1353.8142 181.7452,-1342.2726"/>
<polygon fill="#000000" stroke="#000000" points="185.2334,-1341.9717 181.1238,-1332.2064 178.2467,-1342.403 185.2334,-1341.9717"/>
<text text-anchor="middle" x="187.5" y="-1352.6" font-family="Bitstream Vera Sans" font-size="8.00" fill="#000000">50</text>
</g>
<!-- 46 -->
<g id="node19" class="node">
<title>46</title>
<ellipse fill="none" stroke="#000000" cx="180" cy="-1233" rx="18" ry="18"/>
<text text-anchor="middle" x="180" y="-1231.1" font-family="Bitstream Vera Sans" font-size="8.00" fill="#000000">46</text>
</g>
<!-- 47&#45;&gt;46 -->
<g id="edge15" class="edge">
<title>47&#45;&gt;46</title>
<path fill="none" stroke="#000000" d="M180,-1295.6198C180,-1285.5034 180,-1272.7309 180,-1261.3637"/>
<polygon fill="#000000" stroke="#000000" points="183.5001,-1261.0284 180,-1251.0284 176.5001,-1261.0284 183.5001,-1261.0284"/>
<text text-anchor="middle" x="185.5" y="-1271.6" font-family="Bitstream Vera Sans" font-size="8.00" fill="#000000">50</text>
</g>
<!-- 43 -->
<g id="node5" class="node">
<title>43</title>
<ellipse fill="none" stroke="#000000" cx="180" cy="-990" rx="18" ry="18"/>
<text text-anchor="middle" x="180" y="-988.1" font-family="Bitstream Vera Sans" font-size="8.00" fill="#000000">43</text>
</g>
<!-- 43&#45;&gt;42 -->
<g id="edge3" class="edge">
<title>43&#45;&gt;42</title>
<path fill="none" stroke="#000000" d="M180,-971.6198C180,-961.5034 180,-948.7309 180,-937.3637"/>
<polygon fill="#000000" stroke="#000000" points="183.5001,-937.0284 180,-927.0284 176.5001,-937.0284 183.5001,-937.0284"/>
<text text-anchor="middle" x="185.5" y="-947.6" font-family="Bitstream Vera Sans" font-size="8.00" fill="#000000">50</text>
</g>
<!-- 49 -->
<g id="node6" class="node">
<title>49</title>
<ellipse fill="none" stroke="#000000" cx="199" cy="-1476" rx="18" ry="18"/>
<text text-anchor="middle" x="199" y="-1474.1" font-family="Bitstream Vera Sans" font-size="8.00" fill="#000000">49</text>
</g>
<!-- 49&#45;&gt;48 -->
<g id="edge4" class="edge">
<title>49&#45;&gt;48</title>
<path fill="none" stroke="#000000" d="M195.8929,-1458.0235C194.1167,-1447.7464 191.85,-1434.6322 189.8448,-1423.0307"/>
<polygon fill="#000000" stroke="#000000" points="193.2505,-1422.184 188.0984,-1412.9263 186.3527,-1423.3763 193.2505,-1422.184"/>
<text text-anchor="middle" x="197.5" y="-1433.6" font-family="Bitstream Vera Sans" font-size="8.00" fill="#000000">50</text>
</g>
<!-- 52 -->
<g id="node7" class="node">
<title>52</title>
<ellipse fill="none" stroke="#000000" cx="234" cy="-1719" rx="18" ry="18"/>
<text text-anchor="middle" x="234" y="-1717.1" font-family="Bitstream Vera Sans" font-size="8.00" fill="#000000">52</text>
</g>
<!-- 51 -->
<g id="node8" class="node">
<title>51</title>
<ellipse fill="none" stroke="#000000" cx="234" cy="-1638" rx="18" ry="18"/>
<text text-anchor="middle" x="234" y="-1636.1" font-family="Bitstream Vera Sans" font-size="8.00" fill="#000000">51</text>
</g>
<!-- 52&#45;&gt;51 -->
<g id="edge5" class="edge">
<title>52&#45;&gt;51</title>
<path fill="none" stroke="#000000" d="M234,-1700.6198C234,-1690.5034 234,-1677.7309 234,-1666.3637"/>
<polygon fill="#000000" stroke="#000000" points="237.5001,-1666.0284 234,-1656.0284 230.5001,-1666.0284 237.5001,-1666.0284"/>
<text text-anchor="middle" x="239.5" y="-1676.6" font-family="Bitstream Vera Sans" font-size="8.00" fill="#000000">50</text>
</g>
<!-- 50 -->
<g id="node35" class="node">
<title>50</title>
<ellipse fill="none" stroke="#000000" cx="222" cy="-1557" rx="18" ry="18"/>
<text text-anchor="middle" x="222" y="-1555.1" font-family="Bitstream Vera Sans" font-size="8.00" fill="#000000">50</text>
</g>
<!-- 51&#45;&gt;50 -->
<g id="edge31" class="edge">
<title>51&#45;&gt;50</title>
<path fill="none" stroke="#000000" d="M231.3368,-1620.0235C229.8143,-1609.7464 227.8714,-1596.6322 226.1527,-1585.0307"/>
<polygon fill="#000000" stroke="#000000" points="229.5835,-1584.3054 224.6557,-1574.9263 222.6591,-1585.3313 229.5835,-1584.3054"/>
<text text-anchor="middle" x="233.5" y="-1595.6" font-family="Bitstream Vera Sans" font-size="8.00" fill="#000000">50</text>
</g>
<!-- 24 -->
<g id="node9" class="node">
<title>24</title>
<ellipse fill="none" stroke="#000000" cx="72" cy="-1638" rx="18" ry="18"/>
<text text-anchor="middle" x="72" y="-1636.1" font-family="Bitstream Vera Sans" font-size="8.00" fill="#000000">24</text>
</g>
<!-- 23 -->
<g id="node10" class="node">
<title>23</title>
<ellipse fill="none" stroke="#000000" cx="126" cy="-1557" rx="18" ry="18"/>
<text text-anchor="middle" x="126" y="-1555.1" font-family="Bitstream Vera Sans" font-size="8.00" fill="#000000">23</text>
</g>
<!-- 24&#45;&gt;23 -->
<g id="edge6" class="edge">
<title>24&#45;&gt;23</title>
<path fill="none" stroke="#000000" d="M82.157,-1622.7645C90.0766,-1610.8852 101.2151,-1594.1773 110.2832,-1580.5752"/>
<polygon fill="#000000" stroke="#000000" points="113.2537,-1582.4291 115.8886,-1572.1672 107.4293,-1578.5462 113.2537,-1582.4291"/>
<text text-anchor="middle" x="105.5" y="-1595.6" font-family="Bitstream Vera Sans" font-size="8.00" fill="#000000">50</text>
</g>
<!-- 22 -->
<g id="node17" class="node">
<title>22</title>
<ellipse fill="none" stroke="#000000" cx="126" cy="-1476" rx="18" ry="18"/>
<text text-anchor="middle" x="126" y="-1474.1" font-family="Bitstream Vera Sans" font-size="8.00" fill="#000000">22</text>
</g>
<!-- 23&#45;&gt;22 -->
<g id="edge13" class="edge">
<title>23&#45;&gt;22</title>
<path fill="none" stroke="#000000" d="M126,-1538.6198C126,-1528.5034 126,-1515.7309 126,-1504.3637"/>
<polygon fill="#000000" stroke="#000000" points="129.5001,-1504.0284 126,-1494.0284 122.5001,-1504.0284 129.5001,-1504.0284"/>
<text text-anchor="middle" x="131.5" y="-1514.6" font-family="Bitstream Vera Sans" font-size="8.00" fill="#000000">50</text>
</g>
<!-- 25 -->
<g id="node11" class="node">
<title>25</title>
<ellipse fill="none" stroke="#000000" cx="72" cy="-1719" rx="18" ry="18"/>
<text text-anchor="middle" x="72" y="-1717.1" font-family="Bitstream Vera Sans" font-size="8.00" fill="#000000">25</text>
</g>
<!-- 25&#45;&gt;24 -->
<g id="edge7" class="edge">
<title>25&#45;&gt;24</title>
<path fill="none" stroke="#000000" d="M72,-1700.6198C72,-1690.5034 72,-1677.7309 72,-1666.3637"/>
<polygon fill="#000000" stroke="#000000" points="75.5001,-1666.0284 72,-1656.0284 68.5001,-1666.0284 75.5001,-1666.0284"/>
<text text-anchor="middle" x="77.5" y="-1676.6" font-family="Bitstream Vera Sans" font-size="8.00" fill="#000000">50</text>
</g>
<!-- 26 -->
<g id="node12" class="node">
<title>26</title>
<ellipse fill="none" stroke="#000000" cx="72" cy="-1800" rx="18" ry="18"/>
<text text-anchor="middle" x="72" y="-1798.1" font-family="Bitstream Vera Sans" font-size="8.00" fill="#000000">26</text>
</g>
<!-- 26&#45;&gt;25 -->
<g id="edge8" class="edge">
<title>26&#45;&gt;25</title>
<path fill="none" stroke="#000000" d="M72,-1781.6198C72,-1771.5034 72,-1758.7309 72,-1747.3637"/>
<polygon fill="#000000" stroke="#000000" points="75.5001,-1747.0284 72,-1737.0284 68.5001,-1747.0284 75.5001,-1747.0284"/>
<text text-anchor="middle" x="77.5" y="-1757.6" font-family="Bitstream Vera Sans" font-size="8.00" fill="#000000">50</text>
</g>
<!-- 27 -->
<g id="node13" class="node">
<title>27</title>
<ellipse fill="none" stroke="#000000" cx="72" cy="-1881" rx="18" ry="18"/>
<text text-anchor="middle" x="72" y="-1879.1" font-family="Bitstream Vera Sans" font-size="8.00" fill="#000000">27</text>
</g>
<!-- 27&#45;&gt;26 -->
<g id="edge9" class="edge">
<title>27&#45;&gt;26</title>
<path fill="none" stroke="#000000" d="M72,-1862.6198C72,-1852.5034 72,-1839.7309 72,-1828.3637"/>
<polygon fill="#000000" stroke="#000000" points="75.5001,-1828.0284 72,-1818.0284 68.5001,-1828.0284 75.5001,-1828.0284"/>
<text text-anchor="middle" x="77.5" y="-1838.6" font-family="Bitstream Vera Sans" font-size="8.00" fill="#000000">50</text>
</g>
<!-- 20 -->
<g id="node14" class="node">
<title>20</title>
<ellipse fill="none" stroke="#000000" cx="45" cy="-1557" rx="18" ry="18"/>
<text text-anchor="middle" x="45" y="-1555.1" font-family="Bitstream Vera Sans" font-size="8.00" fill="#000000">20</text>
</g>
<!-- 19 -->
<g id="node15" class="node">
<title>19</title>
<ellipse fill="none" stroke="#000000" cx="72" cy="-1476" rx="18" ry="18"/>
<text text-anchor="middle" x="72" y="-1474.1" font-family="Bitstream Vera Sans" font-size="8.00" fill="#000000">19</text>
</g>
<!-- 20&#45;&gt;19 -->
<g id="edge10" class="edge">
<title>20&#45;&gt;19</title>
<path fill="none" stroke="#000000" d="M50.726,-1539.822C54.3057,-1529.0829 58.9916,-1515.0252 63.0542,-1502.8374"/>
<polygon fill="#000000" stroke="#000000" points="66.4403,-1503.7469 66.2822,-1493.1533 59.7995,-1501.5333 66.4403,-1503.7469"/>
<text text-anchor="middle" x="65.5" y="-1514.6" font-family="Bitstream Vera Sans" font-size="8.00" fill="#000000">50</text>
</g>
<!-- 18 -->
<g id="node18" class="node">
<title>18</title>
<ellipse fill="none" stroke="#000000" cx="126" cy="-1395" rx="18" ry="18"/>
<text text-anchor="middle" x="126" y="-1393.1" font-family="Bitstream Vera Sans" font-size="8.00" fill="#000000">18</text>
</g>
<!-- 19&#45;&gt;18 -->
<g id="edge42" class="edge">
<title>19&#45;&gt;18</title>
<path fill="none" stroke="#000000" d="M82.157,-1460.7645C90.0766,-1448.8852 101.2151,-1432.1773 110.2832,-1418.5752"/>
<polygon fill="#000000" stroke="#000000" points="113.2537,-1420.4291 115.8886,-1410.1672 107.4293,-1416.5462 113.2537,-1420.4291"/>
<text text-anchor="middle" x="105.5" y="-1433.6" font-family="Bitstream Vera Sans" font-size="8.00" fill="#000000">50</text>
</g>
<!-- 21 -->
<g id="node16" class="node">
<title>21</title>
<ellipse fill="none" stroke="#000000" cx="18" cy="-1638" rx="18" ry="18"/>
<text text-anchor="middle" x="18" y="-1636.1" font-family="Bitstream Vera Sans" font-size="8.00" fill="#000000">21</text>
</g>
<!-- 21&#45;&gt;20 -->
<g id="edge11" class="edge">
<title>21&#45;&gt;20</title>
<path fill="none" stroke="#000000" d="M23.726,-1620.822C27.3057,-1610.0829 31.9916,-1596.0252 36.0542,-1583.8374"/>
<polygon fill="#000000" stroke="#000000" points="39.4403,-1584.7469 39.2822,-1574.1533 32.7995,-1582.5333 39.4403,-1584.7469"/>
<text text-anchor="middle" x="38.5" y="-1595.6" font-family="Bitstream Vera Sans" font-size="8.00" fill="#000000">50</text>
</g>
<!-- 22&#45;&gt;18 -->
<g id="edge12" class="edge">
<title>22&#45;&gt;18</title>
<path fill="none" stroke="#000000" d="M126,-1457.6198C126,-1447.5034 126,-1434.7309 126,-1423.3637"/>
<polygon fill="#000000" stroke="#000000" points="129.5001,-1423.0284 126,-1413.0284 122.5001,-1423.0284 129.5001,-1423.0284"/>
<text text-anchor="middle" x="131.5" y="-1433.6" font-family="Bitstream Vera Sans" font-size="8.00" fill="#000000">50</text>
</g>
<!-- 17 -->
<g id="node45" class="node">
<title>17</title>
<ellipse fill="none" stroke="#000000" cx="126" cy="-1314" rx="18" ry="18"/>
<text text-anchor="middle" x="126" y="-1312.1" font-family="Bitstream Vera Sans" font-size="8.00" fill="#000000">17</text>
</g>
<!-- 18&#45;&gt;17 -->
<g id="edge43" class="edge">
<title>18&#45;&gt;17</title>
<path fill="none" stroke="#000000" d="M126,-1376.6198C126,-1366.5034 126,-1353.7309 126,-1342.3637"/>
<polygon fill="#000000" stroke="#000000" points="129.5001,-1342.0284 126,-1332.0284 122.5001,-1342.0284 129.5001,-1342.0284"/>
<text text-anchor="middle" x="131.5" y="-1352.6" font-family="Bitstream Vera Sans" font-size="8.00" fill="#000000">50</text>
</g>
<!-- 45 -->
<g id="node20" class="node">
<title>45</title>
<ellipse fill="none" stroke="#000000" cx="180" cy="-1152" rx="18" ry="18"/>
<text text-anchor="middle" x="180" y="-1150.1" font-family="Bitstream Vera Sans" font-size="8.00" fill="#000000">45</text>
</g>
<!-- 46&#45;&gt;45 -->
<g id="edge14" class="edge">
<title>46&#45;&gt;45</title>
<path fill="none" stroke="#000000" d="M180,-1214.6198C180,-1204.5034 180,-1191.7309 180,-1180.3637"/>
<polygon fill="#000000" stroke="#000000" points="183.5001,-1180.0284 180,-1170.0284 176.5001,-1180.0284 183.5001,-1180.0284"/>
<text text-anchor="middle" x="185.5" y="-1190.6" font-family="Bitstream Vera Sans" font-size="8.00" fill="#000000">50</text>
</g>
<!-- 44 -->
<g id="node21" class="node">
<title>44</title>
<ellipse fill="none" stroke="#000000" cx="180" cy="-1071" rx="18" ry="18"/>
<text text-anchor="middle" x="180" y="-1069.1" font-family="Bitstream Vera Sans" font-size="8.00" fill="#000000">44</text>
</g>
<!-- 45&#45;&gt;44 -->
<g id="edge17" class="edge">
<title>45&#45;&gt;44</title>
<path fill="none" stroke="#000000" d="M180,-1133.6198C180,-1123.5034 180,-1110.7309 180,-1099.3637"/>
<polygon fill="#000000" stroke="#000000" points="183.5001,-1099.0284 180,-1089.0284 176.5001,-1099.0284 183.5001,-1099.0284"/>
<text text-anchor="middle" x="185.5" y="-1109.6" font-family="Bitstream Vera Sans" font-size="8.00" fill="#000000">50</text>
</g>
<!-- 44&#45;&gt;43 -->
<g id="edge16" class="edge">
<title>44&#45;&gt;43</title>
<path fill="none" stroke="#000000" d="M180,-1052.6198C180,-1042.5034 180,-1029.7309 180,-1018.3637"/>
<polygon fill="#000000" stroke="#000000" points="183.5001,-1018.0284 180,-1008.0284 176.5001,-1018.0284 183.5001,-1018.0284"/>
<text text-anchor="middle" x="185.5" y="-1028.6" font-family="Bitstream Vera Sans" font-size="8.00" fill="#000000">50</text>
</g>
<!-- 28 -->
<g id="node22" class="node">
<title>28</title>
<ellipse fill="none" stroke="#000000" cx="126" cy="-1638" rx="18" ry="18"/>
<text text-anchor="middle" x="126" y="-1636.1" font-family="Bitstream Vera Sans" font-size="8.00" fill="#000000">28</text>
</g>
<!-- 28&#45;&gt;23 -->
<g id="edge18" class="edge">
<title>28&#45;&gt;23</title>
<path fill="none" stroke="#000000" d="M126,-1619.6198C126,-1609.5034 126,-1596.7309 126,-1585.3637"/>
<polygon fill="#000000" stroke="#000000" points="129.5001,-1585.0284 126,-1575.0284 122.5001,-1585.0284 129.5001,-1585.0284"/>
<text text-anchor="middle" x="131.5" y="-1595.6" font-family="Bitstream Vera Sans" font-size="8.00" fill="#000000">50</text>
</g>
<!-- 29 -->
<g id="node23" class="node">
<title>29</title>
<ellipse fill="none" stroke="#000000" cx="126" cy="-1719" rx="18" ry="18"/>
<text text-anchor="middle" x="126" y="-1717.1" font-family="Bitstream Vera Sans" font-size="8.00" fill="#000000">29</text>
</g>
<!-- 29&#45;&gt;28 -->
<g id="edge19" class="edge">
<title>29&#45;&gt;28</title>
<path fill="none" stroke="#000000" d="M126,-1700.6198C126,-1690.5034 126,-1677.7309 126,-1666.3637"/>
<polygon fill="#000000" stroke="#000000" points="129.5001,-1666.0284 126,-1656.0284 122.5001,-1666.0284 129.5001,-1666.0284"/>
<text text-anchor="middle" x="131.5" y="-1676.6" font-family="Bitstream Vera Sans" font-size="8.00" fill="#000000">50</text>
</g>
<!-- 9 -->
<g id="node25" class="node">
<title>9</title>
<ellipse fill="none" stroke="#000000" cx="153" cy="-666" rx="18" ry="18"/>
<text text-anchor="middle" x="153" y="-664.1" font-family="Bitstream Vera Sans" font-size="8.00" fill="#000000">9</text>
</g>
<!-- 40&#45;&gt;9 -->
<g id="edge20" class="edge">
<title>40&#45;&gt;9</title>
<path fill="none" stroke="#000000" d="M174.274,-729.822C170.6943,-719.0829 166.0084,-705.0252 161.9458,-692.8374"/>
<polygon fill="#000000" stroke="#000000" points="165.2005,-691.5333 158.7178,-683.1533 158.5597,-693.7469 165.2005,-691.5333"/>
<text text-anchor="middle" x="172.5" y="-704.6" font-family="Bitstream Vera Sans" font-size="8.00" fill="#000000">50</text>
</g>
<!-- 8 -->
<g id="node34" class="node">
<title>8</title>
<ellipse fill="none" stroke="#000000" cx="153" cy="-585" rx="18" ry="18"/>
<text text-anchor="middle" x="153" y="-583.1" font-family="Bitstream Vera Sans" font-size="8.00" fill="#000000">8</text>
</g>
<!-- 9&#45;&gt;8 -->
<g id="edge29" class="edge">
<title>9&#45;&gt;8</title>
<path fill="none" stroke="#000000" d="M153,-647.6198C153,-637.5034 153,-624.7309 153,-613.3637"/>
<polygon fill="#000000" stroke="#000000" points="156.5001,-613.0284 153,-603.0284 149.5001,-613.0284 156.5001,-613.0284"/>
<text text-anchor="middle" x="158.5" y="-623.6" font-family="Bitstream Vera Sans" font-size="8.00" fill="#000000">50</text>
</g>
<!-- 1 -->
<g id="node26" class="node">
<title>1</title>
<ellipse fill="none" stroke="#000000" cx="234" cy="-1800" rx="18" ry="18"/>
<text text-anchor="middle" x="234" y="-1798.1" font-family="Bitstream Vera Sans" font-size="8.00" fill="#000000">1</text>
</g>
<!-- 1&#45;&gt;52 -->
<g id="edge22" class="edge">
<title>1&#45;&gt;52</title>
<path fill="none" stroke="#000000" d="M234,-1781.6198C234,-1771.5034 234,-1758.7309 234,-1747.3637"/>
<polygon fill="#000000" stroke="#000000" points="237.5001,-1747.0284 234,-1737.0284 230.5001,-1747.0284 237.5001,-1747.0284"/>
<text text-anchor="middle" x="239.5" y="-1757.6" font-family="Bitstream Vera Sans" font-size="8.00" fill="#000000">50</text>
</g>
<!-- 3 -->
<g id="node27" class="node">
<title>3</title>
<ellipse fill="none" stroke="#000000" cx="153" cy="-180" rx="18" ry="18"/>
<text text-anchor="middle" x="153" y="-178.1" font-family="Bitstream Vera Sans" font-size="8.00" fill="#000000">3</text>
</g>
<!-- 2 -->
<g id="node28" class="node">
<title>2</title>
<ellipse fill="none" stroke="#000000" cx="153" cy="-99" rx="18" ry="18"/>
<text text-anchor="middle" x="153" y="-97.1" font-family="Bitstream Vera Sans" font-size="8.00" fill="#000000">2</text>
</g>
<!-- 3&#45;&gt;2 -->
<g id="edge23" class="edge">
<title>3&#45;&gt;2</title>
<path fill="none" stroke="#000000" d="M153,-161.6198C153,-151.5034 153,-138.7309 153,-127.3637"/>
<polygon fill="#000000" stroke="#000000" points="156.5001,-127.0284 153,-117.0284 149.5001,-127.0284 156.5001,-127.0284"/>
<text text-anchor="middle" x="158.5" y="-137.6" font-family="Bitstream Vera Sans" font-size="8.00" fill="#000000">50</text>
</g>
<!-- 0 -->
<g id="node29" class="node">
<title>0</title>
<ellipse fill="none" stroke="#000000" cx="153" cy="-18" rx="18" ry="18"/>
<text text-anchor="middle" x="153" y="-16.1" font-family="Bitstream Vera Sans" font-size="8.00" fill="#000000">0</text>
</g>
<!-- 2&#45;&gt;0 -->
<g id="edge24" class="edge">
<title>2&#45;&gt;0</title>
<path fill="none" stroke="#000000" d="M153,-80.6198C153,-70.5034 153,-57.7309 153,-46.3637"/>
<polygon fill="#000000" stroke="#000000" points="156.5001,-46.0284 153,-36.0284 149.5001,-46.0284 156.5001,-46.0284"/>
<text text-anchor="middle" x="158.5" y="-56.6" font-family="Bitstream Vera Sans" font-size="8.00" fill="#000000">50</text>
</g>
<!-- 5 -->
<g id="node30" class="node">
<title>5</title>
<ellipse fill="none" stroke="#000000" cx="153" cy="-342" rx="18" ry="18"/>
<text text-anchor="middle" x="153" y="-340.1" font-family="Bitstream Vera Sans" font-size="8.00" fill="#000000">5</text>
</g>
<!-- 4 -->
<g id="node31" class="node">
<title>4</title>
<ellipse fill="none" stroke="#000000" cx="153" cy="-261" rx="18" ry="18"/>
<text text-anchor="middle" x="153" y="-259.1" font-family="Bitstream Vera Sans" font-size="8.00" fill="#000000">4</text>
</g>
<!-- 5&#45;&gt;4 -->
<g id="edge25" class="edge">
<title>5&#45;&gt;4</title>
<path fill="none" stroke="#000000" d="M153,-323.6198C153,-313.5034 153,-300.7309 153,-289.3637"/>
<polygon fill="#000000" stroke="#000000" points="156.5001,-289.0284 153,-279.0284 149.5001,-289.0284 156.5001,-289.0284"/>
<text text-anchor="middle" x="158.5" y="-299.6" font-family="Bitstream Vera Sans" font-size="8.00" fill="#000000">50</text>
</g>
<!-- 4&#45;&gt;3 -->
<g id="edge26" class="edge">
<title>4&#45;&gt;3</title>
<path fill="none" stroke="#000000" d="M153,-242.6198C153,-232.5034 153,-219.7309 153,-208.3637"/>
<polygon fill="#000000" stroke="#000000" points="156.5001,-208.0284 153,-198.0284 149.5001,-208.0284 156.5001,-208.0284"/>
<text text-anchor="middle" x="158.5" y="-218.6" font-family="Bitstream Vera Sans" font-size="8.00" fill="#000000">50</text>
</g>
<!-- 7 -->
<g id="node32" class="node">
<title>7</title>
<ellipse fill="none" stroke="#000000" cx="153" cy="-504" rx="18" ry="18"/>
<text text-anchor="middle" x="153" y="-502.1" font-family="Bitstream Vera Sans" font-size="8.00" fill="#000000">7</text>
</g>
<!-- 6 -->
<g id="node33" class="node">
<title>6</title>
<ellipse fill="none" stroke="#000000" cx="153" cy="-423" rx="18" ry="18"/>
<text text-anchor="middle" x="153" y="-421.1" font-family="Bitstream Vera Sans" font-size="8.00" fill="#000000">6</text>
</g>
<!-- 7&#45;&gt;6 -->
<g id="edge27" class="edge">
<title>7&#45;&gt;6</title>
<path fill="none" stroke="#000000" d="M153,-485.6198C153,-475.5034 153,-462.7309 153,-451.3637"/>
<polygon fill="#000000" stroke="#000000" points="156.5001,-451.0284 153,-441.0284 149.5001,-451.0284 156.5001,-451.0284"/>
<text text-anchor="middle" x="158.5" y="-461.6" font-family="Bitstream Vera Sans" font-size="8.00" fill="#000000">50</text>
</g>
<!-- 6&#45;&gt;5 -->
<g id="edge28" class="edge">
<title>6&#45;&gt;5</title>
<path fill="none" stroke="#000000" d="M153,-404.6198C153,-394.5034 153,-381.7309 153,-370.3637"/>
<polygon fill="#000000" stroke="#000000" points="156.5001,-370.0284 153,-360.0284 149.5001,-370.0284 156.5001,-370.0284"/>
<text text-anchor="middle" x="158.5" y="-380.6" font-family="Bitstream Vera Sans" font-size="8.00" fill="#000000">50</text>
</g>
<!-- 8&#45;&gt;7 -->
<g id="edge30" class="edge">
<title>8&#45;&gt;7</title>
<path fill="none" stroke="#000000" d="M153,-566.6198C153,-556.5034 153,-543.7309 153,-532.3637"/>
<polygon fill="#000000" stroke="#000000" points="156.5001,-532.0284 153,-522.0284 149.5001,-532.0284 156.5001,-532.0284"/>
<text text-anchor="middle" x="158.5" y="-542.6" font-family="Bitstream Vera Sans" font-size="8.00" fill="#000000">50</text>
</g>
<!-- 50&#45;&gt;49 -->
<g id="edge52" class="edge">
<title>50&#45;&gt;49</title>
<path fill="none" stroke="#000000" d="M217.0093,-1539.4242C214.0255,-1528.916 210.17,-1515.3377 206.7923,-1503.4423"/>
<polygon fill="#000000" stroke="#000000" points="210.0794,-1502.2051 203.9809,-1493.5415 203.3456,-1504.1173 210.0794,-1502.2051"/>
<text text-anchor="middle" x="216.5" y="-1514.6" font-family="Bitstream Vera Sans" font-size="8.00" fill="#000000">50</text>
</g>
<!-- 39 -->
<g id="node36" class="node">
<title>39</title>
<ellipse fill="none" stroke="#000000" cx="180" cy="-1881" rx="18" ry="18"/>
<text text-anchor="middle" x="180" y="-1879.1" font-family="Bitstream Vera Sans" font-size="8.00" fill="#000000">39</text>
</g>
<!-- 38 -->
<g id="node37" class="node">
<title>38</title>
<ellipse fill="none" stroke="#000000" cx="180" cy="-1800" rx="18" ry="18"/>
<text text-anchor="middle" x="180" y="-1798.1" font-family="Bitstream Vera Sans" font-size="8.00" fill="#000000">38</text>
</g>
<!-- 39&#45;&gt;38 -->
<g id="edge32" class="edge">
<title>39&#45;&gt;38</title>
<path fill="none" stroke="#000000" d="M180,-1862.6198C180,-1852.5034 180,-1839.7309 180,-1828.3637"/>
<polygon fill="#000000" stroke="#000000" points="183.5001,-1828.0284 180,-1818.0284 176.5001,-1828.0284 183.5001,-1828.0284"/>
<text text-anchor="middle" x="185.5" y="-1838.6" font-family="Bitstream Vera Sans" font-size="8.00" fill="#000000">50</text>
</g>
<!-- 37 -->
<g id="node38" class="node">
<title>37</title>
<ellipse fill="none" stroke="#000000" cx="180" cy="-1719" rx="18" ry="18"/>
<text text-anchor="middle" x="180" y="-1717.1" font-family="Bitstream Vera Sans" font-size="8.00" fill="#000000">37</text>
</g>
<!-- 38&#45;&gt;37 -->
<g id="edge33" class="edge">
<title>38&#45;&gt;37</title>
<path fill="none" stroke="#000000" d="M180,-1781.6198C180,-1771.5034 180,-1758.7309 180,-1747.3637"/>
<polygon fill="#000000" stroke="#000000" points="183.5001,-1747.0284 180,-1737.0284 176.5001,-1747.0284 183.5001,-1747.0284"/>
<text text-anchor="middle" x="185.5" y="-1757.6" font-family="Bitstream Vera Sans" font-size="8.00" fill="#000000">50</text>
</g>
<!-- 36 -->
<g id="node49" class="node">
<title>36</title>
<ellipse fill="none" stroke="#000000" cx="180" cy="-1638" rx="18" ry="18"/>
<text text-anchor="middle" x="180" y="-1636.1" font-family="Bitstream Vera Sans" font-size="8.00" fill="#000000">36</text>
</g>
<!-- 37&#45;&gt;36 -->
<g id="edge46" class="edge">
<title>37&#45;&gt;36</title>
<path fill="none" stroke="#000000" d="M180,-1700.6198C180,-1690.5034 180,-1677.7309 180,-1666.3637"/>
<polygon fill="#000000" stroke="#000000" points="183.5001,-1666.0284 180,-1656.0284 176.5001,-1666.0284 183.5001,-1666.0284"/>
<text text-anchor="middle" x="185.5" y="-1676.6" font-family="Bitstream Vera Sans" font-size="8.00" fill="#000000">50</text>
</g>
<!-- 11 -->
<g id="node39" class="node">
<title>11</title>
<ellipse fill="none" stroke="#000000" cx="126" cy="-828" rx="18" ry="18"/>
<text text-anchor="middle" x="126" y="-826.1" font-family="Bitstream Vera Sans" font-size="8.00" fill="#000000">11</text>
</g>
<!-- 10 -->
<g id="node40" class="node">
<title>10</title>
<ellipse fill="none" stroke="#000000" cx="126" cy="-747" rx="18" ry="18"/>
<text text-anchor="middle" x="126" y="-745.1" font-family="Bitstream Vera Sans" font-size="8.00" fill="#000000">10</text>
</g>
<!-- 11&#45;&gt;10 -->
<g id="edge34" class="edge">
<title>11&#45;&gt;10</title>
<path fill="none" stroke="#000000" d="M126,-809.6198C126,-799.5034 126,-786.7309 126,-775.3637"/>
<polygon fill="#000000" stroke="#000000" points="129.5001,-775.0284 126,-765.0284 122.5001,-775.0284 129.5001,-775.0284"/>
<text text-anchor="middle" x="131.5" y="-785.6" font-family="Bitstream Vera Sans" font-size="8.00" fill="#000000">50</text>
</g>
<!-- 10&#45;&gt;9 -->
<g id="edge35" class="edge">
<title>10&#45;&gt;9</title>
<path fill="none" stroke="#000000" d="M131.726,-729.822C135.3057,-719.0829 139.9916,-705.0252 144.0542,-692.8374"/>
<polygon fill="#000000" stroke="#000000" points="147.4403,-693.7469 147.2822,-683.1533 140.7995,-691.5333 147.4403,-693.7469"/>
<text text-anchor="middle" x="145.5" y="-704.6" font-family="Bitstream Vera Sans" font-size="8.00" fill="#000000">50</text>
</g>
<!-- 13 -->
<g id="node41" class="node">
<title>13</title>
<ellipse fill="none" stroke="#000000" cx="126" cy="-990" rx="18" ry="18"/>
<text text-anchor="middle" x="126" y="-988.1" font-family="Bitstream Vera Sans" font-size="8.00" fill="#000000">13</text>
</g>
<!-- 12 -->
<g id="node42" class="node">
<title>12</title>
<ellipse fill="none" stroke="#000000" cx="126" cy="-909" rx="18" ry="18"/>
<text text-anchor="middle" x="126" y="-907.1" font-family="Bitstream Vera Sans" font-size="8.00" fill="#000000">12</text>
</g>
<!-- 13&#45;&gt;12 -->
<g id="edge36" class="edge">
<title>13&#45;&gt;12</title>
<path fill="none" stroke="#000000" d="M126,-971.6198C126,-961.5034 126,-948.7309 126,-937.3637"/>
<polygon fill="#000000" stroke="#000000" points="129.5001,-937.0284 126,-927.0284 122.5001,-937.0284 129.5001,-937.0284"/>
<text text-anchor="middle" x="131.5" y="-947.6" font-family="Bitstream Vera Sans" font-size="8.00" fill="#000000">50</text>
</g>
<!-- 12&#45;&gt;11 -->
<g id="edge37" class="edge">
<title>12&#45;&gt;11</title>
<path fill="none" stroke="#000000" d="M126,-890.6198C126,-880.5034 126,-867.7309 126,-856.3637"/>
<polygon fill="#000000" stroke="#000000" points="129.5001,-856.0284 126,-846.0284 122.5001,-856.0284 129.5001,-856.0284"/>
<text text-anchor="middle" x="131.5" y="-866.6" font-family="Bitstream Vera Sans" font-size="8.00" fill="#000000">50</text>
</g>
<!-- 15 -->
<g id="node43" class="node">
<title>15</title>
<ellipse fill="none" stroke="#000000" cx="126" cy="-1152" rx="18" ry="18"/>
<text text-anchor="middle" x="126" y="-1150.1" font-family="Bitstream Vera Sans" font-size="8.00" fill="#000000">15</text>
</g>
<!-- 14 -->
<g id="node44" class="node">
<title>14</title>
<ellipse fill="none" stroke="#000000" cx="126" cy="-1071" rx="18" ry="18"/>
<text text-anchor="middle" x="126" y="-1069.1" font-family="Bitstream Vera Sans" font-size="8.00" fill="#000000">14</text>
</g>
<!-- 15&#45;&gt;14 -->
<g id="edge38" class="edge">
<title>15&#45;&gt;14</title>
<path fill="none" stroke="#000000" d="M126,-1133.6198C126,-1123.5034 126,-1110.7309 126,-1099.3637"/>
<polygon fill="#000000" stroke="#000000" points="129.5001,-1099.0284 126,-1089.0284 122.5001,-1099.0284 129.5001,-1099.0284"/>
<text text-anchor="middle" x="131.5" y="-1109.6" font-family="Bitstream Vera Sans" font-size="8.00" fill="#000000">50</text>
</g>
<!-- 14&#45;&gt;13 -->
<g id="edge39" class="edge">
<title>14&#45;&gt;13</title>
<path fill="none" stroke="#000000" d="M126,-1052.6198C126,-1042.5034 126,-1029.7309 126,-1018.3637"/>
<polygon fill="#000000" stroke="#000000" points="129.5001,-1018.0284 126,-1008.0284 122.5001,-1018.0284 129.5001,-1018.0284"/>
<text text-anchor="middle" x="131.5" y="-1028.6" font-family="Bitstream Vera Sans" font-size="8.00" fill="#000000">50</text>
</g>
<!-- 16 -->
<g id="node46" class="node">
<title>16</title>
<ellipse fill="none" stroke="#000000" cx="126" cy="-1233" rx="18" ry="18"/>
<text text-anchor="middle" x="126" y="-1231.1" font-family="Bitstream Vera Sans" font-size="8.00" fill="#000000">16</text>
</g>
<!-- 17&#45;&gt;16 -->
<g id="edge40" class="edge">
<title>17&#45;&gt;16</title>
<path fill="none" stroke="#000000" d="M126,-1295.6198C126,-1285.5034 126,-1272.7309 126,-1261.3637"/>
<polygon fill="#000000" stroke="#000000" points="129.5001,-1261.0284 126,-1251.0284 122.5001,-1261.0284 129.5001,-1261.0284"/>
<text text-anchor="middle" x="131.5" y="-1271.6" font-family="Bitstream Vera Sans" font-size="8.00" fill="#000000">50</text>
</g>
<!-- 16&#45;&gt;15 -->
<g id="edge41" class="edge">
<title>16&#45;&gt;15</title>
<path fill="none" stroke="#000000" d="M126,-1214.6198C126,-1204.5034 126,-1191.7309 126,-1180.3637"/>
<polygon fill="#000000" stroke="#000000" points="129.5001,-1180.0284 126,-1170.0284 122.5001,-1180.0284 129.5001,-1180.0284"/>
<text text-anchor="middle" x="131.5" y="-1190.6" font-family="Bitstream Vera Sans" font-size="8.00" fill="#000000">50</text>
</g>
<!-- 31 -->
<g id="node47" class="node">
<title>31</title>
<ellipse fill="none" stroke="#000000" cx="126" cy="-1881" rx="18" ry="18"/>
<text text-anchor="middle" x="126" y="-1879.1" font-family="Bitstream Vera Sans" font-size="8.00" fill="#000000">31</text>
</g>
<!-- 30 -->
<g id="node48" class="node">
<title>30</title>
<ellipse fill="none" stroke="#000000" cx="126" cy="-1800" rx="18" ry="18"/>
<text text-anchor="middle" x="126" y="-1798.1" font-family="Bitstream Vera Sans" font-size="8.00" fill="#000000">30</text>
</g>
<!-- 31&#45;&gt;30 -->
<g id="edge44" class="edge">
<title>31&#45;&gt;30</title>
<path fill="none" stroke="#000000" d="M126,-1862.6198C126,-1852.5034 126,-1839.7309 126,-1828.3637"/>
<polygon fill="#000000" stroke="#000000" points="129.5001,-1828.0284 126,-1818.0284 122.5001,-1828.0284 129.5001,-1828.0284"/>
<text text-anchor="middle" x="131.5" y="-1838.6" font-family="Bitstream Vera Sans" font-size="8.00" fill="#000000">50</text>
</g>
<!-- 30&#45;&gt;29 -->
<g id="edge45" class="edge">
<title>30&#45;&gt;29</title>
<path fill="none" stroke="#000000" d="M126,-1781.6198C126,-1771.5034 126,-1758.7309 126,-1747.3637"/>
<polygon fill="#000000" stroke="#000000" points="129.5001,-1747.0284 126,-1737.0284 122.5001,-1747.0284 129.5001,-1747.0284"/>
<text text-anchor="middle" x="131.5" y="-1757.6" font-family="Bitstream Vera Sans" font-size="8.00" fill="#000000">50</text>
</g>
<!-- 36&#45;&gt;23 -->
<g id="edge47" class="edge">
<title>36&#45;&gt;23</title>
<path fill="none" stroke="#000000" d="M169.843,-1622.7645C161.9234,-1610.8852 150.7849,-1594.1773 141.7168,-1580.5752"/>
<polygon fill="#000000" stroke="#000000" points="144.5707,-1578.5462 136.1114,-1572.1672 138.7463,-1582.4291 144.5707,-1578.5462"/>
<text text-anchor="middle" x="159.5" y="-1595.6" font-family="Bitstream Vera Sans" font-size="8.00" fill="#000000">50</text>
</g>
<!-- 35 -->
<g id="node50" class="node">
<title>35</title>
<ellipse fill="none" stroke="#000000" cx="72" cy="-1962" rx="18" ry="18"/>
<text text-anchor="middle" x="72" y="-1960.1" font-family="Bitstream Vera Sans" font-size="8.00" fill="#000000">35</text>
</g>
<!-- 35&#45;&gt;27 -->
<g id="edge48" class="edge">
<title>35&#45;&gt;27</title>
<path fill="none" stroke="#000000" d="M72,-1943.6198C72,-1933.5034 72,-1920.7309 72,-1909.3637"/>
<polygon fill="#000000" stroke="#000000" points="75.5001,-1909.0284 72,-1899.0284 68.5001,-1909.0284 75.5001,-1909.0284"/>
<text text-anchor="middle" x="77.5" y="-1919.6" font-family="Bitstream Vera Sans" font-size="8.00" fill="#000000">50</text>
</g>
<!-- 34 -->
<g id="node51" class="node">
<title>34</title>
<ellipse fill="none" stroke="#000000" cx="126" cy="-2124" rx="18" ry="18"/>
<text text-anchor="middle" x="126" y="-2122.1" font-family="Bitstream Vera Sans" font-size="8.00" fill="#000000">34</text>
</g>
<!-- 33 -->
<g id="node52" class="node">
<title>33</title>
<ellipse fill="none" stroke="#000000" cx="126" cy="-2043" rx="18" ry="18"/>
<text text-anchor="middle" x="126" y="-2041.1" font-family="Bitstream Vera Sans" font-size="8.00" fill="#000000">33</text>
</g>
<!-- 34&#45;&gt;33 -->
<g id="edge49" class="edge">
<title>34&#45;&gt;33</title>
<path fill="none" stroke="#000000" d="M126,-2105.6198C126,-2095.5034 126,-2082.7309 126,-2071.3637"/>
<polygon fill="#000000" stroke="#000000" points="129.5001,-2071.0284 126,-2061.0284 122.5001,-2071.0284 129.5001,-2071.0284"/>
<text text-anchor="middle" x="131.5" y="-2081.6" font-family="Bitstream Vera Sans" font-size="8.00" fill="#000000">50</text>
</g>
<!-- 32 -->
<g id="node53" class="node">
<title>32</title>
<ellipse fill="none" stroke="#000000" cx="126" cy="-1962" rx="18" ry="18"/>
<text text-anchor="middle" x="126" y="-1960.1" font-family="Bitstream Vera Sans" font-size="8.00" fill="#000000">32</text>
</g>
<!-- 33&#45;&gt;32 -->
<g id="edge50" class="edge">
<title>33&#45;&gt;32</title>
<path fill="none" stroke="#000000" d="M126,-2024.6198C126,-2014.5034 126,-2001.7309 126,-1990.3637"/>
<polygon fill="#000000" stroke="#000000" points="129.5001,-1990.0284 126,-1980.0284 122.5001,-1990.0284 129.5001,-1990.0284"/>
<text text-anchor="middle" x="131.5" y="-2000.6" font-family="Bitstream Vera Sans" font-size="8.00" fill="#000000">50</text>
</g>
<!-- 32&#45;&gt;31 -->
<g id="edge51" class="edge">
<title>32&#45;&gt;31</title>
<path fill="none" stroke="#000000" d="M126,-1943.6198C126,-1933.5034 126,-1920.7309 126,-1909.3637"/>
<polygon fill="#000000" stroke="#000000" points="129.5001,-1909.0284 126,-1899.0284 122.5001,-1909.0284 129.5001,-1909.0284"/>
<text text-anchor="middle" x="131.5" y="-1919.6" font-family="Bitstream Vera Sans" font-size="8.00" fill="#000000">50</text>
</g>
</g>
</svg>
