<?xml version="1.0" encoding="UTF-8" standalone="no"?>
<!DOCTYPE svg PUBLIC "-//W3C//DTD SVG 1.1//EN"
 "http://www.w3.org/Graphics/SVG/1.1/DTD/svg11.dtd">
<!-- Generated by graphviz version 2.40.1 (20161225.0304)
 -->
<!-- Title: G Pages: 1 -->
<svg width="3005pt" height="265pt"
 viewBox="0.00 0.00 3004.50 265.00" xmlns="http://www.w3.org/2000/svg" xmlns:xlink="http://www.w3.org/1999/xlink">
<g id="graph0" class="graph" transform="scale(1 1) rotate(0) translate(4 261)">
<title>G</title>
<polygon fill="#ffffff" stroke="transparent" points="-4,4 -4,-261 3000.5,-261 3000.5,4 -4,4"/>
<!-- ExpectException -->
<g id="node1" class="node">
<title>ExpectException</title>
<polygon fill="none" stroke="#000000" points="0,-142.5 0,-211.5 144,-211.5 144,-142.5 0,-142.5"/>
<text text-anchor="middle" x="72" y="-201.1" font-family="Bitstream Vera Sans" font-size="8.00" fill="#000000">ExpectException</text>
<polyline fill="none" stroke="#000000" points="0,-194.5 144,-194.5 "/>
<text text-anchor="start" x="8" y="-184.1" font-family="Bitstream Vera Sans" font-size="8.00" fill="#000000">+ next : ExpectException</text>
<text text-anchor="start" x="8" y="-175.1" font-family="Bitstream Vera Sans" font-size="8.00" fill="#000000">+ expected : ExpectException</text>
<polyline fill="none" stroke="#000000" points="0,-168.5 144,-168.5 "/>
<text text-anchor="start" x="8" y="-158.1" font-family="Bitstream Vera Sans" font-size="8.00" fill="#000000">+ init() : void</text>
<text text-anchor="start" x="8" y="-149.1" font-family="Bitstream Vera Sans" font-size="8.00" fill="#000000">+ evaluate() : void</text>
</g>
<!-- ExpectException&#45;&gt;ExpectException -->
<g id="edge16" class="edge">
<title>ExpectException&#45;&gt;ExpectException</title>
<path fill="none" stroke="#000000" d="M144.0261,-201.8337C154.7481,-197.9673 162,-189.6895 162,-177 162,-168.276 158.5723,-161.6372 152.9459,-157.0835"/>
<polygon fill="#000000" stroke="#000000" points="154.4733,-153.9289 144.0261,-152.1663 151.0939,-160.0592 154.4733,-153.9289"/>
</g>
<!-- Statement -->
<g id="node4" class="node">
<title>Statement</title>
<polygon fill="none" stroke="#000000" points="1578,-.5 1578,-60.5 1674,-60.5 1674,-.5 1578,-.5"/>
<text text-anchor="middle" x="1626" y="-50.1" font-family="Bitstream Vera Sans" font-size="8.00" fill="#000000">Statement</text>
<polyline fill="none" stroke="#000000" points="1578,-43.5 1674,-43.5 "/>
<text text-anchor="middle" x="1626" y="-33.1" font-family="Bitstream Vera Sans" font-size="8.00" fill="#000000"> </text>
<polyline fill="none" stroke="#000000" points="1578,-26.5 1674,-26.5 "/>
<text text-anchor="start" x="1586" y="-16.1" font-family="Bitstream Vera Sans" font-size="8.00" fill="#000000">+ init() : void</text>
<text text-anchor="start" x="1586" y="-7.1" font-family="Bitstream Vera Sans" font-size="8.00" fill="#000000">+ evaluate() : void</text>
</g>
<!-- ExpectException&#45;&gt;Statement -->
<g id="edge1" class="edge">
<title>ExpectException&#45;&gt;Statement</title>
<path fill="none" stroke="#000000" d="M103.8216,-142.4654C121.7408,-125.4872 145.5877,-106.6426 171,-97 303.0427,-46.8972 1312.6837,-33.5976 1567.6597,-31.023"/>
<polygon fill="none" stroke="#000000" points="1567.8586,-34.5213 1577.8233,-30.922 1567.789,-27.5216 1567.8586,-34.5213"/>
</g>
<!-- FailOnTimeoutTestXXX -->
<g id="node2" class="node">
<title>FailOnTimeoutTestXXX</title>
<polygon fill="none" stroke="#000000" points="180.5,-142.5 180.5,-211.5 421.5,-211.5 421.5,-142.5 180.5,-142.5"/>
<text text-anchor="middle" x="301" y="-201.1" font-family="Bitstream Vera Sans" font-size="8.00" fill="#000000">FailOnTimeoutTestXXX</text>
<polyline fill="none" stroke="#000000" points="180.5,-194.5 421.5,-194.5 "/>
<text text-anchor="start" x="188.5" y="-184.1" font-family="Bitstream Vera Sans" font-size="8.00" fill="#000000">+ waitDuration : FailOnTimeoutTest$TestStatement</text>
<text text-anchor="start" x="188.5" y="-175.1" font-family="Bitstream Vera Sans" font-size="8.00" fill="#000000">+ nextException : FailOnTimeoutTest$TestStatement</text>
<polyline fill="none" stroke="#000000" points="180.5,-168.5 421.5,-168.5 "/>
<text text-anchor="start" x="188.5" y="-158.1" font-family="Bitstream Vera Sans" font-size="8.00" fill="#000000">+ init() : void</text>
<text text-anchor="start" x="188.5" y="-149.1" font-family="Bitstream Vera Sans" font-size="8.00" fill="#000000">+ evaluate() : void</text>
</g>
<!-- FailOnTimeoutTestXXX&#45;&gt;Statement -->
<g id="edge2" class="edge">
<title>FailOnTimeoutTestXXX&#45;&gt;Statement</title>
<path fill="none" stroke="#000000" d="M344.9136,-142.3419C368.9235,-125.4411 400.0217,-106.7058 431,-97 539.937,-62.8689 1342.4685,-38.3315 1567.4915,-32.0686"/>
<polygon fill="none" stroke="#000000" points="1567.866,-35.5596 1577.7653,-31.7842 1567.6722,-28.5623 1567.866,-35.5596"/>
</g>
<!-- ExpectedExceptionXXX -->
<g id="node3" class="node">
<title>ExpectedExceptionXXX</title>
<polygon fill="none" stroke="#000000" points="440,-142.5 440,-211.5 710,-211.5 710,-142.5 440,-142.5"/>
<text text-anchor="middle" x="575" y="-201.1" font-family="Bitstream Vera Sans" font-size="8.00" fill="#000000">ExpectedExceptionXXX</text>
<polyline fill="none" stroke="#000000" points="440,-194.5 710,-194.5 "/>
<text text-anchor="start" x="448" y="-184.1" font-family="Bitstream Vera Sans" font-size="8.00" fill="#000000">+ next : ExpectedException$ExpectedExceptionStatement</text>
<text text-anchor="start" x="448" y="-175.1" font-family="Bitstream Vera Sans" font-size="8.00" fill="#000000">+ this$0 : ExpectedException$ExpectedExceptionStatement</text>
<polyline fill="none" stroke="#000000" points="440,-168.5 710,-168.5 "/>
<text text-anchor="start" x="448" y="-158.1" font-family="Bitstream Vera Sans" font-size="8.00" fill="#000000">+ init() : void</text>
<text text-anchor="start" x="448" y="-149.1" font-family="Bitstream Vera Sans" font-size="8.00" fill="#000000">+ evaluate() : void</text>
</g>
<!-- ExpectedExceptionXXX&#45;&gt;Statement -->
<g id="edge3" class="edge">
<title>ExpectedExceptionXXX&#45;&gt;Statement</title>
<path fill="none" stroke="#000000" d="M624.5787,-142.3943C651.2963,-125.6187 685.5676,-106.9819 719,-97 878.9354,-49.2483 1393.3658,-35.0125 1567.6412,-31.503"/>
<polygon fill="none" stroke="#000000" points="1567.9609,-34.9974 1577.89,-31.3011 1567.823,-27.9988 1567.9609,-34.9974"/>
</g>
<!-- InvokeMethod -->
<g id="node5" class="node">
<title>InvokeMethod</title>
<polygon fill="none" stroke="#000000" points="728,-142.5 728,-211.5 868,-211.5 868,-142.5 728,-142.5"/>
<text text-anchor="middle" x="798" y="-201.1" font-family="Bitstream Vera Sans" font-size="8.00" fill="#000000">InvokeMethod</text>
<polyline fill="none" stroke="#000000" points="728,-194.5 868,-194.5 "/>
<text text-anchor="start" x="736" y="-184.1" font-family="Bitstream Vera Sans" font-size="8.00" fill="#000000">+ testMethod : InvokeMethod</text>
<text text-anchor="start" x="736" y="-175.1" font-family="Bitstream Vera Sans" font-size="8.00" fill="#000000">+ target : InvokeMethod</text>
<polyline fill="none" stroke="#000000" points="728,-168.5 868,-168.5 "/>
<text text-anchor="start" x="736" y="-158.1" font-family="Bitstream Vera Sans" font-size="8.00" fill="#000000">+ init() : void</text>
<text text-anchor="start" x="736" y="-149.1" font-family="Bitstream Vera Sans" font-size="8.00" fill="#000000">+ evaluate() : void</text>
</g>
<!-- InvokeMethod&#45;&gt;Statement -->
<g id="edge4" class="edge">
<title>InvokeMethod&#45;&gt;Statement</title>
<path fill="none" stroke="#000000" d="M830.0952,-142.1034C847.5663,-125.4681 870.5724,-107.0464 895,-97 1016.4956,-47.0325 1416.4426,-34.4163 1567.5177,-31.3982"/>
<polygon fill="none" stroke="#000000" points="1568.027,-34.8891 1577.9577,-31.1971 1567.8922,-27.8904 1568.027,-34.8891"/>
</g>
<!-- InvokeMethod&#45;&gt;InvokeMethod -->
<g id="edge17" class="edge">
<title>InvokeMethod&#45;&gt;InvokeMethod</title>
<path fill="none" stroke="#000000" d="M868.0708,-201.9623C878.749,-198.1528 886,-189.832 886,-177 886,-168.178 882.5728,-161.4882 876.9609,-156.9308"/>
<polygon fill="#000000" stroke="#000000" points="878.5192,-153.7934 868.0708,-152.0377 875.1438,-159.9259 878.5192,-153.7934"/>
</g>
<!-- TestWithClassRule -->
<g id="node6" class="node">
<title>TestWithClassRule</title>
<polygon fill="none" stroke="#000000" points="904.5,-138 904.5,-216 1149.5,-216 1149.5,-138 904.5,-138"/>
<text text-anchor="middle" x="1027" y="-205.6" font-family="Bitstream Vera Sans" font-size="8.00" fill="#000000">TestWithClassRule</text>
<polyline fill="none" stroke="#000000" points="904.5,-199 1149.5,-199 "/>
<text text-anchor="start" x="912.5" y="-188.6" font-family="Bitstream Vera Sans" font-size="8.00" fill="#000000">+ val$description : TestWithClassRule$CustomRule$1</text>
<text text-anchor="start" x="912.5" y="-179.6" font-family="Bitstream Vera Sans" font-size="8.00" fill="#000000">+ val$base : TestWithClassRule$CustomRule$1</text>
<text text-anchor="start" x="912.5" y="-170.6" font-family="Bitstream Vera Sans" font-size="8.00" fill="#000000">+ this$0 : TestWithClassRule$CustomRule$1</text>
<polyline fill="none" stroke="#000000" points="904.5,-164 1149.5,-164 "/>
<text text-anchor="start" x="912.5" y="-153.6" font-family="Bitstream Vera Sans" font-size="8.00" fill="#000000">+ init() : void</text>
<text text-anchor="start" x="912.5" y="-144.6" font-family="Bitstream Vera Sans" font-size="8.00" fill="#000000">+ evaluate() : void</text>
</g>
<!-- TestWithClassRule&#45;&gt;Statement -->
<g id="edge5" class="edge">
<title>TestWithClassRule&#45;&gt;Statement</title>
<path fill="none" stroke="#000000" d="M1079.9342,-137.8682C1102.8546,-122.7754 1130.6616,-106.8152 1158,-97 1232.3575,-70.3036 1459.5959,-46.1476 1567.6887,-35.8119"/>
<polygon fill="none" stroke="#000000" points="1568.1437,-39.2846 1577.7682,-34.8552 1567.4822,-32.3159 1568.1437,-39.2846"/>
</g>
<!-- TimeoutXXX -->
<g id="node7" class="node">
<title>TimeoutXXX</title>
<polygon fill="none" stroke="#000000" points="1167.5,-115.5 1167.5,-238.5 1394.5,-238.5 1394.5,-115.5 1167.5,-115.5"/>
<text text-anchor="middle" x="1281" y="-228.1" font-family="Bitstream Vera Sans" font-size="8.00" fill="#000000">TimeoutXXX</text>
<polyline fill="none" stroke="#000000" points="1167.5,-221.5 1394.5,-221.5 "/>
<text text-anchor="start" x="1175.5" y="-211.1" font-family="Bitstream Vera Sans" font-size="8.00" fill="#000000">+ lookForStuckThread : Timeout$Builder</text>
<text text-anchor="start" x="1175.5" y="-202.1" font-family="Bitstream Vera Sans" font-size="8.00" fill="#000000">+ timeout : Timeout$Builder</text>
<text text-anchor="start" x="1175.5" y="-193.1" font-family="Bitstream Vera Sans" font-size="8.00" fill="#000000">+ timeUnit : Timeout$Builder</text>
<polyline fill="none" stroke="#000000" points="1167.5,-186.5 1394.5,-186.5 "/>
<text text-anchor="start" x="1175.5" y="-176.1" font-family="Bitstream Vera Sans" font-size="8.00" fill="#000000">+ init() : void</text>
<text text-anchor="start" x="1175.5" y="-167.1" font-family="Bitstream Vera Sans" font-size="8.00" fill="#000000">+ withTimeout() : Timeout$Builder</text>
<text text-anchor="start" x="1175.5" y="-158.1" font-family="Bitstream Vera Sans" font-size="8.00" fill="#000000">+ getTimeout() : J</text>
<text text-anchor="start" x="1175.5" y="-149.1" font-family="Bitstream Vera Sans" font-size="8.00" fill="#000000">+ getTimeUnit() : TimeUnit</text>
<text text-anchor="start" x="1175.5" y="-140.1" font-family="Bitstream Vera Sans" font-size="8.00" fill="#000000">+ withLookingForStuckThread() : Timeout$Builder</text>
<text text-anchor="start" x="1175.5" y="-131.1" font-family="Bitstream Vera Sans" font-size="8.00" fill="#000000">+ getLookingForStuckThread() : Z</text>
<text text-anchor="start" x="1175.5" y="-122.1" font-family="Bitstream Vera Sans" font-size="8.00" fill="#000000">+ build() : Timeout</text>
</g>
<!-- TimeoutXXX&#45;&gt;Statement -->
<g id="edge6" class="edge">
<title>TimeoutXXX&#45;&gt;Statement</title>
<path fill="none" stroke="#000000" d="M1368.5475,-115.3326C1379.8638,-108.6426 1391.5159,-102.338 1403,-97 1456.757,-72.013 1522.1521,-53.8226 1568.183,-42.8465"/>
<polygon fill="none" stroke="#000000" points="1569.0535,-46.2374 1577.9906,-40.547 1567.4556,-39.4222 1569.0535,-46.2374"/>
</g>
<!-- RunRules -->
<g id="node8" class="node">
<title>RunRules</title>
<polygon fill="none" stroke="#000000" points="1412.5,-142.5 1412.5,-211.5 1531.5,-211.5 1531.5,-142.5 1412.5,-142.5"/>
<text text-anchor="middle" x="1472" y="-201.1" font-family="Bitstream Vera Sans" font-size="8.00" fill="#000000">RunRules</text>
<polyline fill="none" stroke="#000000" points="1412.5,-194.5 1531.5,-194.5 "/>
<text text-anchor="start" x="1420.5" y="-184.1" font-family="Bitstream Vera Sans" font-size="8.00" fill="#000000">+ statement : RunRules</text>
<polyline fill="none" stroke="#000000" points="1412.5,-177.5 1531.5,-177.5 "/>
<text text-anchor="start" x="1420.5" y="-167.1" font-family="Bitstream Vera Sans" font-size="8.00" fill="#000000">+ init() : void</text>
<text text-anchor="start" x="1420.5" y="-158.1" font-family="Bitstream Vera Sans" font-size="8.00" fill="#000000">+ evaluate() : void</text>
<text text-anchor="start" x="1420.5" y="-149.1" font-family="Bitstream Vera Sans" font-size="8.00" fill="#000000">+ applyAll() : Statement</text>
</g>
<!-- RunRules&#45;&gt;Statement -->
<g id="edge7" class="edge">
<title>RunRules&#45;&gt;Statement</title>
<path fill="none" stroke="#000000" d="M1508.4959,-142.2815C1532.1942,-119.7374 1563.0482,-90.3859 1587.193,-67.417"/>
<polygon fill="none" stroke="#000000" points="1589.6225,-69.9366 1594.4555,-60.5083 1584.7978,-64.8649 1589.6225,-69.9366"/>
</g>
<!-- RunRules&#45;&gt;RunRules -->
<g id="edge18" class="edge">
<title>RunRules&#45;&gt;RunRules</title>
<path fill="none" stroke="#000000" d="M1531.79,-202.6641C1542.2344,-199.2422 1549.5,-190.6875 1549.5,-177 1549.5,-167.8037 1546.2202,-160.9245 1540.9001,-156.3622"/>
<polygon fill="#000000" stroke="#000000" points="1542.2366,-153.1023 1531.79,-151.3359 1538.855,-159.2313 1542.2366,-153.1023"/>
</g>
<!-- VerifierXXX -->
<g id="node9" class="node">
<title>VerifierXXX</title>
<polygon fill="none" stroke="#000000" points="1568,-142.5 1568,-211.5 1684,-211.5 1684,-142.5 1568,-142.5"/>
<text text-anchor="middle" x="1626" y="-201.1" font-family="Bitstream Vera Sans" font-size="8.00" fill="#000000">VerifierXXX</text>
<polyline fill="none" stroke="#000000" points="1568,-194.5 1684,-194.5 "/>
<text text-anchor="start" x="1576" y="-184.1" font-family="Bitstream Vera Sans" font-size="8.00" fill="#000000">+ val$base : Verifier$1</text>
<text text-anchor="start" x="1576" y="-175.1" font-family="Bitstream Vera Sans" font-size="8.00" fill="#000000">+ this$0 : Verifier$1</text>
<polyline fill="none" stroke="#000000" points="1568,-168.5 1684,-168.5 "/>
<text text-anchor="start" x="1576" y="-158.1" font-family="Bitstream Vera Sans" font-size="8.00" fill="#000000">+ init() : void</text>
<text text-anchor="start" x="1576" y="-149.1" font-family="Bitstream Vera Sans" font-size="8.00" fill="#000000">+ evaluate() : void</text>
</g>
<!-- VerifierXXX&#45;&gt;Statement -->
<g id="edge8" class="edge">
<title>VerifierXXX&#45;&gt;Statement</title>
<path fill="none" stroke="#000000" d="M1626,-142.2815C1626,-120.8063 1626,-93.154 1626,-70.7258"/>
<polygon fill="none" stroke="#000000" points="1629.5001,-70.5082 1626,-60.5083 1622.5001,-70.5083 1629.5001,-70.5082"/>
</g>
<!-- FailOnTimeout -->
<g id="node10" class="node">
<title>FailOnTimeout</title>
<polygon fill="none" stroke="#000000" points="1702.5,-97.5 1702.5,-256.5 1887.5,-256.5 1887.5,-97.5 1702.5,-97.5"/>
<text text-anchor="middle" x="1795" y="-246.1" font-family="Bitstream Vera Sans" font-size="8.00" fill="#000000">FailOnTimeout</text>
<polyline fill="none" stroke="#000000" points="1702.5,-239.5 1887.5,-239.5 "/>
<text text-anchor="start" x="1710.5" y="-229.1" font-family="Bitstream Vera Sans" font-size="8.00" fill="#000000">+ originalStatement : FailOnTimeout</text>
<text text-anchor="start" x="1710.5" y="-220.1" font-family="Bitstream Vera Sans" font-size="8.00" fill="#000000">+ timeUnit : FailOnTimeout</text>
<text text-anchor="start" x="1710.5" y="-211.1" font-family="Bitstream Vera Sans" font-size="8.00" fill="#000000">+ timeout : FailOnTimeout</text>
<text text-anchor="start" x="1710.5" y="-202.1" font-family="Bitstream Vera Sans" font-size="8.00" fill="#000000">+ lookForStuckThread : FailOnTimeout</text>
<polyline fill="none" stroke="#000000" points="1702.5,-195.5 1887.5,-195.5 "/>
<text text-anchor="start" x="1710.5" y="-185.1" font-family="Bitstream Vera Sans" font-size="8.00" fill="#000000">+ builder() : FailOnTimeout$Builder</text>
<text text-anchor="start" x="1710.5" y="-176.1" font-family="Bitstream Vera Sans" font-size="8.00" fill="#000000">+ init() : void</text>
<text text-anchor="start" x="1710.5" y="-167.1" font-family="Bitstream Vera Sans" font-size="8.00" fill="#000000">+ evaluate() : void</text>
<text text-anchor="start" x="1710.5" y="-158.1" font-family="Bitstream Vera Sans" font-size="8.00" fill="#000000">+ getResult() : Throwable</text>
<text text-anchor="start" x="1710.5" y="-149.1" font-family="Bitstream Vera Sans" font-size="8.00" fill="#000000">+ createTimeoutException() : Exception</text>
<text text-anchor="start" x="1710.5" y="-140.1" font-family="Bitstream Vera Sans" font-size="8.00" fill="#000000">+ getStackTrace() : StackTraceElement</text>
<text text-anchor="start" x="1710.5" y="-131.1" font-family="Bitstream Vera Sans" font-size="8.00" fill="#000000">+ getStuckThread() : Thread</text>
<text text-anchor="start" x="1710.5" y="-122.1" font-family="Bitstream Vera Sans" font-size="8.00" fill="#000000">+ getThreadsInGroup() : List</text>
<text text-anchor="start" x="1710.5" y="-113.1" font-family="Bitstream Vera Sans" font-size="8.00" fill="#000000">+ cpuTime() : J</text>
<text text-anchor="start" x="1710.5" y="-104.1" font-family="Bitstream Vera Sans" font-size="8.00" fill="#000000">+ access600() : Statement</text>
</g>
<!-- FailOnTimeout&#45;&gt;Statement -->
<g id="edge9" class="edge">
<title>FailOnTimeout&#45;&gt;Statement</title>
<path fill="none" stroke="#000000" d="M1703.0817,-97.3194C1691.1134,-86.9445 1679.3452,-76.743 1668.7473,-67.5561"/>
<polygon fill="none" stroke="#000000" points="1670.7359,-64.648 1660.8872,-60.7424 1666.1508,-69.9373 1670.7359,-64.648"/>
</g>
<!-- FailOnTimeout&#45;&gt;FailOnTimeout -->
<g id="edge19" class="edge">
<title>FailOnTimeout&#45;&gt;FailOnTimeout</title>
<path fill="none" stroke="#000000" d="M1887.7015,-200.3633C1898.4847,-196.0514 1905.5,-188.2637 1905.5,-177 1905.5,-169.2562 1902.1842,-163.1554 1896.6078,-158.6974"/>
<polygon fill="#000000" stroke="#000000" points="1898.125,-155.534 1887.7015,-153.6367 1894.6668,-161.6201 1898.125,-155.534"/>
</g>
<!-- Fail -->
<g id="node11" class="node">
<title>Fail</title>
<polygon fill="none" stroke="#000000" points="1924,-147 1924,-207 2020,-207 2020,-147 1924,-147"/>
<text text-anchor="middle" x="1972" y="-196.6" font-family="Bitstream Vera Sans" font-size="8.00" fill="#000000">Fail</text>
<polyline fill="none" stroke="#000000" points="1924,-190 2020,-190 "/>
<text text-anchor="start" x="1932" y="-179.6" font-family="Bitstream Vera Sans" font-size="8.00" fill="#000000">+ error : Fail</text>
<polyline fill="none" stroke="#000000" points="1924,-173 2020,-173 "/>
<text text-anchor="start" x="1932" y="-162.6" font-family="Bitstream Vera Sans" font-size="8.00" fill="#000000">+ init() : void</text>
<text text-anchor="start" x="1932" y="-153.6" font-family="Bitstream Vera Sans" font-size="8.00" fill="#000000">+ evaluate() : void</text>
</g>
<!-- Fail&#45;&gt;Statement -->
<g id="edge10" class="edge">
<title>Fail&#45;&gt;Statement</title>
<path fill="none" stroke="#000000" d="M1957.5653,-146.8873C1947.8455,-129.7525 1933.4348,-109.315 1915,-97 1877.6899,-72.0756 1757.2119,-50.2636 1684.1146,-38.8801"/>
<polygon fill="none" stroke="#000000" points="1684.5442,-35.4051 1674.1283,-37.3438 1683.4798,-42.3237 1684.5442,-35.4051"/>
</g>
<!-- Fail&#45;&gt;Fail -->
<g id="edge20" class="edge">
<title>Fail&#45;&gt;Fail</title>
<path fill="none" stroke="#000000" d="M2020.0542,-203.5663C2030.4563,-200.9687 2038,-192.1133 2038,-177 2038,-166.8458 2034.5947,-159.5164 2029.205,-155.012"/>
<polygon fill="#000000" stroke="#000000" points="2030.5635,-151.778 2020.0542,-150.4337 2027.4313,-158.0382 2030.5635,-151.778"/>
</g>
<!-- DisableOnDebugTest -->
<g id="node12" class="node">
<title>DisableOnDebugTest</title>
<polygon fill="none" stroke="#000000" points="2056,-147 2056,-207 2288,-207 2288,-147 2056,-147"/>
<text text-anchor="middle" x="2172" y="-196.6" font-family="Bitstream Vera Sans" font-size="8.00" fill="#000000">DisableOnDebugTest</text>
<polyline fill="none" stroke="#000000" points="2056,-190 2288,-190 "/>
<text text-anchor="start" x="2064" y="-179.6" font-family="Bitstream Vera Sans" font-size="8.00" fill="#000000">+ this$0 : DisableOnDebugTest$FailOnExecution$1</text>
<polyline fill="none" stroke="#000000" points="2056,-173 2288,-173 "/>
<text text-anchor="start" x="2064" y="-162.6" font-family="Bitstream Vera Sans" font-size="8.00" fill="#000000">+ init() : void</text>
<text text-anchor="start" x="2064" y="-153.6" font-family="Bitstream Vera Sans" font-size="8.00" fill="#000000">+ evaluate() : void</text>
</g>
<!-- DisableOnDebugTest&#45;&gt;Statement -->
<g id="edge11" class="edge">
<title>DisableOnDebugTest&#45;&gt;Statement</title>
<path fill="none" stroke="#000000" d="M2134.2655,-146.978C2110.5457,-129.6521 2078.5532,-108.9845 2047,-97 1981.6927,-72.1951 1783.6949,-47.8043 1684.2714,-36.7108"/>
<polygon fill="none" stroke="#000000" points="1684.421,-33.2061 1674.0964,-35.5836 1683.6502,-40.1635 1684.421,-33.2061"/>
</g>
<!-- LoggingStatement -->
<g id="node13" class="node">
<title>LoggingStatement</title>
<polygon fill="none" stroke="#000000" points="2306,-138 2306,-216 2442,-216 2442,-138 2306,-138"/>
<text text-anchor="middle" x="2374" y="-205.6" font-family="Bitstream Vera Sans" font-size="8.00" fill="#000000">LoggingStatement</text>
<polyline fill="none" stroke="#000000" points="2306,-199 2442,-199 "/>
<text text-anchor="start" x="2314" y="-188.6" font-family="Bitstream Vera Sans" font-size="8.00" fill="#000000">+ base : LoggingStatement</text>
<text text-anchor="start" x="2314" y="-179.6" font-family="Bitstream Vera Sans" font-size="8.00" fill="#000000">+ log : LoggingStatement</text>
<text text-anchor="start" x="2314" y="-170.6" font-family="Bitstream Vera Sans" font-size="8.00" fill="#000000">+ name : LoggingStatement</text>
<polyline fill="none" stroke="#000000" points="2306,-164 2442,-164 "/>
<text text-anchor="start" x="2314" y="-153.6" font-family="Bitstream Vera Sans" font-size="8.00" fill="#000000">+ init() : void</text>
<text text-anchor="start" x="2314" y="-144.6" font-family="Bitstream Vera Sans" font-size="8.00" fill="#000000">+ evaluate() : void</text>
</g>
<!-- LoggingStatement&#45;&gt;Statement -->
<g id="edge12" class="edge">
<title>LoggingStatement&#45;&gt;Statement</title>
<path fill="none" stroke="#000000" d="M2346.0488,-137.6486C2332.9782,-122.3267 2316.0786,-106.2547 2297,-97 2189.6216,-44.9125 1827.6282,-33.612 1684.7263,-31.1697"/>
<polygon fill="none" stroke="#000000" points="1684.4724,-27.6653 1674.4169,-31.0025 1684.3588,-34.6643 1684.4724,-27.6653"/>
</g>
<!-- LoggingStatement&#45;&gt;LoggingStatement -->
<g id="edge21" class="edge">
<title>LoggingStatement&#45;&gt;LoggingStatement</title>
<path fill="none" stroke="#000000" d="M2442.1292,-202.0876C2452.7555,-198.3372 2460,-189.9746 2460,-177 2460,-168.08 2456.5758,-161.3398 2450.9827,-156.7796"/>
<polygon fill="#000000" stroke="#000000" points="2452.5785,-153.6629 2442.1292,-151.9124 2449.2061,-159.7971 2452.5785,-153.6629"/>
</g>
<!-- TestWatcherXXX -->
<g id="node14" class="node">
<title>TestWatcherXXX</title>
<polygon fill="none" stroke="#000000" points="2478,-138 2478,-216 2642,-216 2642,-138 2478,-138"/>
<text text-anchor="middle" x="2560" y="-205.6" font-family="Bitstream Vera Sans" font-size="8.00" fill="#000000">TestWatcherXXX</text>
<polyline fill="none" stroke="#000000" points="2478,-199 2642,-199 "/>
<text text-anchor="start" x="2486" y="-188.6" font-family="Bitstream Vera Sans" font-size="8.00" fill="#000000">+ val$description : TestWatcher$1</text>
<text text-anchor="start" x="2486" y="-179.6" font-family="Bitstream Vera Sans" font-size="8.00" fill="#000000">+ val$base : TestWatcher$1</text>
<text text-anchor="start" x="2486" y="-170.6" font-family="Bitstream Vera Sans" font-size="8.00" fill="#000000">+ this$0 : TestWatcher$1</text>
<polyline fill="none" stroke="#000000" points="2478,-164 2642,-164 "/>
<text text-anchor="start" x="2486" y="-153.6" font-family="Bitstream Vera Sans" font-size="8.00" fill="#000000">+ init() : void</text>
<text text-anchor="start" x="2486" y="-144.6" font-family="Bitstream Vera Sans" font-size="8.00" fill="#000000">+ evaluate() : void</text>
</g>
<!-- TestWatcherXXX&#45;&gt;Statement -->
<g id="edge13" class="edge">
<title>TestWatcherXXX&#45;&gt;Statement</title>
<path fill="none" stroke="#000000" d="M2526.1881,-137.8282C2510.4716,-122.3392 2490.5069,-106.0915 2469,-97 2397.1212,-66.6152 1863.1196,-40.8297 1684.217,-32.9637"/>
<polygon fill="none" stroke="#000000" points="1684.3489,-29.4662 1674.2056,-32.5259 1684.0431,-36.4595 1684.3489,-29.4662"/>
</g>
<!-- ExternalResourceXXX -->
<g id="node15" class="node">
<title>ExternalResourceXXX</title>
<polygon fill="none" stroke="#000000" points="2660.5,-142.5 2660.5,-211.5 2819.5,-211.5 2819.5,-142.5 2660.5,-142.5"/>
<text text-anchor="middle" x="2740" y="-201.1" font-family="Bitstream Vera Sans" font-size="8.00" fill="#000000">ExternalResourceXXX</text>
<polyline fill="none" stroke="#000000" points="2660.5,-194.5 2819.5,-194.5 "/>
<text text-anchor="start" x="2668.5" y="-184.1" font-family="Bitstream Vera Sans" font-size="8.00" fill="#000000">+ val$base : ExternalResource$1</text>
<text text-anchor="start" x="2668.5" y="-175.1" font-family="Bitstream Vera Sans" font-size="8.00" fill="#000000">+ this$0 : ExternalResource$1</text>
<polyline fill="none" stroke="#000000" points="2660.5,-168.5 2819.5,-168.5 "/>
<text text-anchor="start" x="2668.5" y="-158.1" font-family="Bitstream Vera Sans" font-size="8.00" fill="#000000">+ init() : void</text>
<text text-anchor="start" x="2668.5" y="-149.1" font-family="Bitstream Vera Sans" font-size="8.00" fill="#000000">+ evaluate() : void</text>
</g>
<!-- ExternalResourceXXX&#45;&gt;Statement -->
<g id="edge14" class="edge">
<title>ExternalResourceXXX&#45;&gt;Statement</title>
<path fill="none" stroke="#000000" d="M2711.5751,-142.2738C2695.6689,-125.4653 2674.3609,-106.8353 2651,-97 2606.2249,-78.149 1894.7711,-43.1966 1684.2457,-33.2218"/>
<polygon fill="none" stroke="#000000" points="1684.1716,-29.7145 1674.0175,-32.7382 1683.841,-36.7067 1684.1716,-29.7145"/>
</g>
<!-- TestWatchmanXXX -->
<g id="node16" class="node">
<title>TestWatchmanXXX</title>
<polygon fill="none" stroke="#000000" points="2837.5,-138 2837.5,-216 2996.5,-216 2996.5,-138 2837.5,-138"/>
<text text-anchor="middle" x="2917" y="-205.6" font-family="Bitstream Vera Sans" font-size="8.00" fill="#000000">TestWatchmanXXX</text>
<polyline fill="none" stroke="#000000" points="2837.5,-199 2996.5,-199 "/>
<text text-anchor="start" x="2845.5" y="-188.6" font-family="Bitstream Vera Sans" font-size="8.00" fill="#000000">+ val$method : TestWatchman$1</text>
<text text-anchor="start" x="2845.5" y="-179.6" font-family="Bitstream Vera Sans" font-size="8.00" fill="#000000">+ val$base : TestWatchman$1</text>
<text text-anchor="start" x="2845.5" y="-170.6" font-family="Bitstream Vera Sans" font-size="8.00" fill="#000000">+ this$0 : TestWatchman$1</text>
<polyline fill="none" stroke="#000000" points="2837.5,-164 2996.5,-164 "/>
<text text-anchor="start" x="2845.5" y="-153.6" font-family="Bitstream Vera Sans" font-size="8.00" fill="#000000">+ init() : void</text>
<text text-anchor="start" x="2845.5" y="-144.6" font-family="Bitstream Vera Sans" font-size="8.00" fill="#000000">+ evaluate() : void</text>
</g>
<!-- TestWatchmanXXX&#45;&gt;Statement -->
<g id="edge15" class="edge">
<title>TestWatchmanXXX&#45;&gt;Statement</title>
<path fill="none" stroke="#000000" d="M2884.6324,-137.5971C2869.4923,-122.0672 2850.1403,-105.8514 2829,-97 2722.8773,-52.5669 1910.6503,-35.3905 1684.3588,-31.439"/>
<polygon fill="none" stroke="#000000" points="1684.09,-27.9339 1674.031,-31.2607 1683.9691,-34.9328 1684.09,-27.9339"/>
</g>
</g>
</svg>
