<?xml version="1.0" encoding="UTF-8" standalone="no"?>
<!DOCTYPE svg PUBLIC "-//W3C//DTD SVG 1.1//EN"
 "http://www.w3.org/Graphics/SVG/1.1/DTD/svg11.dtd">
<!-- Generated by graphviz version 2.40.1 (20161225.0304)
 -->
<!-- Title: G Pages: 1 -->
<svg width="2707pt" height="454pt"
 viewBox="0.00 0.00 2706.50 454.00" xmlns="http://www.w3.org/2000/svg" xmlns:xlink="http://www.w3.org/1999/xlink">
<g id="graph0" class="graph" transform="scale(1 1) rotate(0) translate(4 450)">
<title>G</title>
<polygon fill="#ffffff" stroke="transparent" points="-4,4 -4,-450 2702.5,-450 2702.5,4 -4,4"/>
<!-- BlockJUnit4ClassRunnerTestXXX -->
<g id="node1" class="node">
<title>BlockJUnit4ClassRunnerTestXXX</title>
<polygon fill="none" stroke="#000000" points="0,-277.5 0,-337.5 152,-337.5 152,-277.5 0,-277.5"/>
<text text-anchor="middle" x="76" y="-327.1" font-family="Bitstream Vera Sans" font-size="8.00" fill="#000000">BlockJUnit4ClassRunnerTestXXX</text>
<polyline fill="none" stroke="#000000" points="0,-320.5 152,-320.5 "/>
<text text-anchor="middle" x="76" y="-310.1" font-family="Bitstream Vera Sans" font-size="8.00" fill="#000000"> </text>
<polyline fill="none" stroke="#000000" points="0,-303.5 152,-303.5 "/>
<text text-anchor="start" x="8" y="-293.1" font-family="Bitstream Vera Sans" font-size="8.00" fill="#000000">+ init() : void</text>
<text text-anchor="start" x="8" y="-284.1" font-family="Bitstream Vera Sans" font-size="8.00" fill="#000000">+ test() : void</text>
</g>
<!-- RunListener -->
<g id="node5" class="node">
<title>RunListener</title>
<polygon fill="none" stroke="#000000" points="1309.5,-.5 1309.5,-132.5 1462.5,-132.5 1462.5,-.5 1309.5,-.5"/>
<text text-anchor="middle" x="1386" y="-122.1" font-family="Bitstream Vera Sans" font-size="8.00" fill="#000000">RunListener</text>
<polyline fill="none" stroke="#000000" points="1309.5,-115.5 1462.5,-115.5 "/>
<text text-anchor="middle" x="1386" y="-105.1" font-family="Bitstream Vera Sans" font-size="8.00" fill="#000000"> </text>
<polyline fill="none" stroke="#000000" points="1309.5,-98.5 1462.5,-98.5 "/>
<text text-anchor="start" x="1317.5" y="-88.1" font-family="Bitstream Vera Sans" font-size="8.00" fill="#000000">+ init() : void</text>
<text text-anchor="start" x="1317.5" y="-79.1" font-family="Bitstream Vera Sans" font-size="8.00" fill="#000000">+ testRunStarted() : void</text>
<text text-anchor="start" x="1317.5" y="-70.1" font-family="Bitstream Vera Sans" font-size="8.00" fill="#000000">+ testRunFinished() : void</text>
<text text-anchor="start" x="1317.5" y="-61.1" font-family="Bitstream Vera Sans" font-size="8.00" fill="#000000">+ testSuiteStarted() : void</text>
<text text-anchor="start" x="1317.5" y="-52.1" font-family="Bitstream Vera Sans" font-size="8.00" fill="#000000">+ testSuiteFinished() : void</text>
<text text-anchor="start" x="1317.5" y="-43.1" font-family="Bitstream Vera Sans" font-size="8.00" fill="#000000">+ testStarted() : void</text>
<text text-anchor="start" x="1317.5" y="-34.1" font-family="Bitstream Vera Sans" font-size="8.00" fill="#000000">+ testFinished() : void</text>
<text text-anchor="start" x="1317.5" y="-25.1" font-family="Bitstream Vera Sans" font-size="8.00" fill="#000000">+ testFailure() : void</text>
<text text-anchor="start" x="1317.5" y="-16.1" font-family="Bitstream Vera Sans" font-size="8.00" fill="#000000">+ testAssumptionFailure() : void</text>
<text text-anchor="start" x="1317.5" y="-7.1" font-family="Bitstream Vera Sans" font-size="8.00" fill="#000000">+ testIgnored() : void</text>
</g>
<!-- BlockJUnit4ClassRunnerTestXXX&#45;&gt;RunListener -->
<g id="edge1" class="edge">
<title>BlockJUnit4ClassRunnerTestXXX&#45;&gt;RunListener</title>
<path fill="none" stroke="#000000" d="M85.3436,-277.2867C97.2201,-244.5006 121.1211,-193.5552 161,-169 257.3916,-109.6475 1035.4164,-78.2709 1299.0301,-69.266"/>
<polygon fill="none" stroke="#000000" points="1299.4417,-72.7541 1309.3172,-68.917 1299.2043,-65.7582 1299.4417,-72.7541"/>
</g>
<!-- AssumptionTestXXX -->
<g id="node2" class="node">
<title>AssumptionTestXXX</title>
<polygon fill="none" stroke="#000000" points="170,-273 170,-342 370,-342 370,-273 170,-273"/>
<text text-anchor="middle" x="270" y="-331.6" font-family="Bitstream Vera Sans" font-size="8.00" fill="#000000">AssumptionTestXXX</text>
<polyline fill="none" stroke="#000000" points="170,-325 370,-325 "/>
<text text-anchor="middle" x="270" y="-314.6" font-family="Bitstream Vera Sans" font-size="8.00" fill="#000000"> </text>
<polyline fill="none" stroke="#000000" points="170,-308 370,-308 "/>
<text text-anchor="start" x="178" y="-297.6" font-family="Bitstream Vera Sans" font-size="8.00" fill="#000000">+ init() : void</text>
<text text-anchor="start" x="178" y="-288.6" font-family="Bitstream Vera Sans" font-size="8.00" fill="#000000">+ checkForSomethingThatIsntThere() : void</text>
<text text-anchor="start" x="178" y="-279.6" font-family="Bitstream Vera Sans" font-size="8.00" fill="#000000">+ failing() : void</text>
</g>
<!-- AssumptionTestXXX&#45;&gt;RunListener -->
<g id="edge2" class="edge">
<title>AssumptionTestXXX&#45;&gt;RunListener</title>
<path fill="none" stroke="#000000" d="M286.8957,-272.7018C304.845,-239.8916 336.5021,-192.3678 379,-169 458.7613,-125.1426 1069.0286,-85.1357 1298.8383,-71.4745"/>
<polygon fill="none" stroke="#000000" points="1299.3858,-74.9483 1309.1614,-70.8633 1298.972,-67.9605 1299.3858,-74.9483"/>
</g>
<!-- SynchronizedRunListenerTestXXX -->
<g id="node3" class="node">
<title>SynchronizedRunListenerTestXXX</title>
<polygon fill="none" stroke="#000000" points="388.5,-268.5 388.5,-346.5 645.5,-346.5 645.5,-268.5 388.5,-268.5"/>
<text text-anchor="middle" x="517" y="-336.1" font-family="Bitstream Vera Sans" font-size="8.00" fill="#000000">SynchronizedRunListenerTestXXX</text>
<polyline fill="none" stroke="#000000" points="388.5,-329.5 645.5,-329.5 "/>
<text text-anchor="start" x="396.5" y="-319.1" font-family="Bitstream Vera Sans" font-size="8.00" fill="#000000">+ fName : SynchronizedRunListenerTest$NamedListener</text>
<polyline fill="none" stroke="#000000" points="388.5,-312.5 645.5,-312.5 "/>
<text text-anchor="start" x="396.5" y="-302.1" font-family="Bitstream Vera Sans" font-size="8.00" fill="#000000">+ init() : void</text>
<text text-anchor="start" x="396.5" y="-293.1" font-family="Bitstream Vera Sans" font-size="8.00" fill="#000000">+ toString() : String</text>
<text text-anchor="start" x="396.5" y="-284.1" font-family="Bitstream Vera Sans" font-size="8.00" fill="#000000">+ hashCode() : I</text>
<text text-anchor="start" x="396.5" y="-275.1" font-family="Bitstream Vera Sans" font-size="8.00" fill="#000000">+ equals() : Z</text>
</g>
<!-- SynchronizedRunListenerTestXXX&#45;&gt;RunListener -->
<g id="edge3" class="edge">
<title>SynchronizedRunListenerTestXXX&#45;&gt;RunListener</title>
<path fill="none" stroke="#000000" d="M544.198,-268.2716C568.8899,-235.9717 608.352,-191.9003 654,-169 765.63,-112.9986 1130.6936,-82.9001 1299.26,-71.6901"/>
<polygon fill="none" stroke="#000000" points="1299.5923,-75.1759 1309.3408,-71.0267 1299.1325,-68.191 1299.5923,-75.1759"/>
</g>
<!-- FilterOptionIntegrationTestXXX -->
<g id="node4" class="node">
<title>FilterOptionIntegrationTestXXX</title>
<polygon fill="none" stroke="#000000" points="663.5,-282 663.5,-333 810.5,-333 810.5,-282 663.5,-282"/>
<text text-anchor="middle" x="737" y="-322.6" font-family="Bitstream Vera Sans" font-size="8.00" fill="#000000">FilterOptionIntegrationTestXXX</text>
<polyline fill="none" stroke="#000000" points="663.5,-316 810.5,-316 "/>
<text text-anchor="middle" x="737" y="-305.6" font-family="Bitstream Vera Sans" font-size="8.00" fill="#000000"> </text>
<polyline fill="none" stroke="#000000" points="663.5,-299 810.5,-299 "/>
<text text-anchor="middle" x="737" y="-288.6" font-family="Bitstream Vera Sans" font-size="8.00" fill="#000000"> </text>
</g>
<!-- FilterOptionIntegrationTestXXX&#45;&gt;RunListener -->
<g id="edge4" class="edge">
<title>FilterOptionIntegrationTestXXX&#45;&gt;RunListener</title>
<path fill="none" stroke="#000000" d="M744.7528,-281.9666C755.8147,-250.1446 779.3085,-196.5961 819,-169 895.3714,-115.9017 1160.0051,-85.8576 1299.0717,-73.3939"/>
<polygon fill="none" stroke="#000000" points="1299.6188,-76.8592 1309.2713,-72.4911 1299.0016,-69.8865 1299.6188,-76.8592"/>
</g>
<!-- ListenerTestXXX -->
<g id="node6" class="node">
<title>ListenerTestXXX</title>
<polygon fill="none" stroke="#000000" points="828.5,-277.5 828.5,-337.5 951.5,-337.5 951.5,-277.5 828.5,-277.5"/>
<text text-anchor="middle" x="890" y="-327.1" font-family="Bitstream Vera Sans" font-size="8.00" fill="#000000">ListenerTestXXX</text>
<polyline fill="none" stroke="#000000" points="828.5,-320.5 951.5,-320.5 "/>
<text text-anchor="start" x="836.5" y="-310.1" font-family="Bitstream Vera Sans" font-size="8.00" fill="#000000">+ this$0 : ListenerTest$1</text>
<polyline fill="none" stroke="#000000" points="828.5,-303.5 951.5,-303.5 "/>
<text text-anchor="start" x="836.5" y="-293.1" font-family="Bitstream Vera Sans" font-size="8.00" fill="#000000">+ init() : void</text>
<text text-anchor="start" x="836.5" y="-284.1" font-family="Bitstream Vera Sans" font-size="8.00" fill="#000000">+ testRunStarted() : void</text>
</g>
<!-- ListenerTestXXX&#45;&gt;RunListener -->
<g id="edge5" class="edge">
<title>ListenerTestXXX&#45;&gt;RunListener</title>
<path fill="none" stroke="#000000" d="M897.1996,-277.3183C906.3693,-245.5484 925.3528,-196.4197 960,-169 1011.987,-127.8576 1190.6784,-95.2218 1299.4284,-78.5827"/>
<polygon fill="none" stroke="#000000" points="1300.0401,-82.03 1309.4029,-77.0713 1298.9914,-75.109 1300.0401,-82.03"/>
</g>
<!-- RunNotifierTestXXX -->
<g id="node7" class="node">
<title>RunNotifierTestXXX</title>
<polygon fill="none" stroke="#000000" points="969.5,-277.5 969.5,-337.5 1198.5,-337.5 1198.5,-277.5 969.5,-277.5"/>
<text text-anchor="middle" x="1084" y="-327.1" font-family="Bitstream Vera Sans" font-size="8.00" fill="#000000">RunNotifierTestXXX</text>
<polyline fill="none" stroke="#000000" points="969.5,-320.5 1198.5,-320.5 "/>
<text text-anchor="start" x="977.5" y="-310.1" font-family="Bitstream Vera Sans" font-size="8.00" fill="#000000">+ fTestStarted : RunNotifierTest$CountingListener</text>
<polyline fill="none" stroke="#000000" points="969.5,-303.5 1198.5,-303.5 "/>
<text text-anchor="start" x="977.5" y="-293.1" font-family="Bitstream Vera Sans" font-size="8.00" fill="#000000">+ init() : void</text>
<text text-anchor="start" x="977.5" y="-284.1" font-family="Bitstream Vera Sans" font-size="8.00" fill="#000000">+ testStarted() : void</text>
</g>
<!-- RunNotifierTestXXX&#45;&gt;RunListener -->
<g id="edge6" class="edge">
<title>RunNotifierTestXXX&#45;&gt;RunListener</title>
<path fill="none" stroke="#000000" d="M1111.5054,-277.3079C1139.0121,-247.9543 1183.262,-202.9526 1226,-169 1249.2213,-150.5522 1275.8648,-132.4205 1300.6633,-116.6581"/>
<polygon fill="none" stroke="#000000" points="1302.7547,-119.4772 1309.3492,-111.1849 1299.0228,-113.5549 1302.7547,-119.4772"/>
</g>
<!-- RunNotifierTestXXX&#45;&gt;RunNotifierTestXXX -->
<g id="edge7" class="edge">
<title>RunNotifierTestXXX&#45;&gt;RunNotifierTestXXX</title>
<path fill="none" stroke="#000000" d="M1116.9348,-337.6623C1161.7739,-364.7807 1216.5,-354.7266 1216.5,-307.5 1216.5,-263.4096 1168.8008,-251.7186 1125.9794,-272.427"/>
<polygon fill="none" stroke="#000000" points="1124.053,-269.4903 1116.9348,-277.3377 1127.393,-275.6421 1124.053,-269.4903"/>
</g>
<!-- ConcurrentRunNotifierTestXXX -->
<g id="node8" class="node">
<title>ConcurrentRunNotifierTestXXX</title>
<polygon fill="none" stroke="#000000" points="1235,-277.5 1235,-337.5 1537,-337.5 1537,-277.5 1235,-277.5"/>
<text text-anchor="middle" x="1386" y="-327.1" font-family="Bitstream Vera Sans" font-size="8.00" fill="#000000">ConcurrentRunNotifierTestXXX</text>
<polyline fill="none" stroke="#000000" points="1235,-320.5 1537,-320.5 "/>
<text text-anchor="start" x="1243" y="-310.1" font-family="Bitstream Vera Sans" font-size="8.00" fill="#000000">+ fTestStarted : ConcurrentRunNotifierTest$ConcurrentRunListener</text>
<polyline fill="none" stroke="#000000" points="1235,-303.5 1537,-303.5 "/>
<text text-anchor="start" x="1243" y="-293.1" font-family="Bitstream Vera Sans" font-size="8.00" fill="#000000">+ init() : void</text>
<text text-anchor="start" x="1243" y="-284.1" font-family="Bitstream Vera Sans" font-size="8.00" fill="#000000">+ testStarted() : void</text>
</g>
<!-- ConcurrentRunNotifierTestXXX&#45;&gt;RunListener -->
<g id="edge8" class="edge">
<title>ConcurrentRunNotifierTestXXX&#45;&gt;RunListener</title>
<path fill="none" stroke="#000000" d="M1386,-277.4645C1386,-244.0316 1386,-188.7039 1386,-143.0962"/>
<polygon fill="none" stroke="#000000" points="1389.5001,-142.9286 1386,-132.9286 1382.5001,-142.9287 1389.5001,-142.9286"/>
</g>
<!-- ConcurrentRunNotifierTestXXX&#45;&gt;ConcurrentRunNotifierTestXXX -->
<g id="edge9" class="edge">
<title>ConcurrentRunNotifierTestXXX&#45;&gt;ConcurrentRunNotifierTestXXX</title>
<path fill="none" stroke="#000000" d="M1428.0074,-337.6623C1485.1984,-364.7807 1555,-354.7266 1555,-307.5 1555,-262.8561 1492.6242,-251.4302 1437.4899,-273.2221"/>
<polygon fill="none" stroke="#000000" points="1435.7872,-270.1457 1428.0074,-277.3377 1438.5741,-276.567 1435.7872,-270.1457"/>
</g>
<!-- MaxHistoryXXX -->
<g id="node9" class="node">
<title>MaxHistoryXXX</title>
<polygon fill="none" stroke="#000000" points="1573,-273 1573,-342 1755,-342 1755,-273 1573,-273"/>
<text text-anchor="middle" x="1664" y="-331.6" font-family="Bitstream Vera Sans" font-size="8.00" fill="#000000">MaxHistoryXXX</text>
<polyline fill="none" stroke="#000000" points="1573,-325 1755,-325 "/>
<text text-anchor="start" x="1581" y="-314.6" font-family="Bitstream Vera Sans" font-size="8.00" fill="#000000">+ this$0 : MaxHistory$TestComparator</text>
<polyline fill="none" stroke="#000000" points="1573,-308 1755,-308 "/>
<text text-anchor="start" x="1581" y="-297.6" font-family="Bitstream Vera Sans" font-size="8.00" fill="#000000">+ init() : void</text>
<text text-anchor="start" x="1581" y="-288.6" font-family="Bitstream Vera Sans" font-size="8.00" fill="#000000">+ compare() : I</text>
<text text-anchor="start" x="1581" y="-279.6" font-family="Bitstream Vera Sans" font-size="8.00" fill="#000000">+ getFailure() : Long</text>
</g>
<!-- MaxHistoryXXX&#45;&gt;RunListener -->
<g id="edge10" class="edge">
<title>MaxHistoryXXX&#45;&gt;RunListener</title>
<path fill="none" stroke="#000000" d="M1644.6483,-272.7448C1626.6413,-242.6441 1597.5831,-199.2942 1564,-169 1536.7672,-144.4342 1502.6863,-123.0633 1471.6552,-106.2851"/>
<polygon fill="none" stroke="#000000" points="1473.0371,-103.0559 1462.5644,-101.452 1469.7511,-109.2367 1473.0371,-103.0559"/>
</g>
<!-- ResultXXX -->
<g id="node10" class="node">
<title>ResultXXX</title>
<polygon fill="none" stroke="#000000" points="1773.5,-282 1773.5,-333 1834.5,-333 1834.5,-282 1773.5,-282"/>
<text text-anchor="middle" x="1804" y="-322.6" font-family="Bitstream Vera Sans" font-size="8.00" fill="#000000">ResultXXX</text>
<polyline fill="none" stroke="#000000" points="1773.5,-316 1834.5,-316 "/>
<text text-anchor="middle" x="1804" y="-305.6" font-family="Bitstream Vera Sans" font-size="8.00" fill="#000000"> </text>
<polyline fill="none" stroke="#000000" points="1773.5,-299 1834.5,-299 "/>
<text text-anchor="middle" x="1804" y="-288.6" font-family="Bitstream Vera Sans" font-size="8.00" fill="#000000"> </text>
</g>
<!-- ResultXXX&#45;&gt;RunListener -->
<g id="edge11" class="edge">
<title>ResultXXX&#45;&gt;RunListener</title>
<path fill="none" stroke="#000000" d="M1803.7894,-281.7594C1802.1072,-250.7274 1794.5091,-199.0139 1764,-169 1722.9958,-128.6612 1571.0863,-96.8716 1472.7753,-79.9502"/>
<polygon fill="none" stroke="#000000" points="1473.2881,-76.4873 1462.8426,-78.2597 1472.1136,-83.388 1473.2881,-76.4873"/>
</g>
<!-- EventCollector -->
<g id="node11" class="node">
<title>EventCollector</title>
<polygon fill="none" stroke="#000000" points="1853,-169.5 1853,-445.5 2069,-445.5 2069,-169.5 1853,-169.5"/>
<text text-anchor="middle" x="1961" y="-435.1" font-family="Bitstream Vera Sans" font-size="8.00" fill="#000000">EventCollector</text>
<polyline fill="none" stroke="#000000" points="1853,-428.5 2069,-428.5 "/>
<text text-anchor="start" x="1861" y="-418.1" font-family="Bitstream Vera Sans" font-size="8.00" fill="#000000">+ fTestRunsStarted : EventCollector</text>
<text text-anchor="start" x="1861" y="-409.1" font-family="Bitstream Vera Sans" font-size="8.00" fill="#000000">+ fTestRunsFinished : EventCollector</text>
<text text-anchor="start" x="1861" y="-400.1" font-family="Bitstream Vera Sans" font-size="8.00" fill="#000000">+ fTestsStarted : EventCollector</text>
<text text-anchor="start" x="1861" y="-391.1" font-family="Bitstream Vera Sans" font-size="8.00" fill="#000000">+ fTestsFinished : EventCollector</text>
<text text-anchor="start" x="1861" y="-382.1" font-family="Bitstream Vera Sans" font-size="8.00" fill="#000000">+ fFailures : EventCollector</text>
<text text-anchor="start" x="1861" y="-373.1" font-family="Bitstream Vera Sans" font-size="8.00" fill="#000000">+ fAssumptionFailures : EventCollector</text>
<text text-anchor="start" x="1861" y="-364.1" font-family="Bitstream Vera Sans" font-size="8.00" fill="#000000">+ fTestsIgnored : EventCollector</text>
<polyline fill="none" stroke="#000000" points="1853,-357.5 2069,-357.5 "/>
<text text-anchor="start" x="1861" y="-347.1" font-family="Bitstream Vera Sans" font-size="8.00" fill="#000000">+ init() : void</text>
<text text-anchor="start" x="1861" y="-338.1" font-family="Bitstream Vera Sans" font-size="8.00" fill="#000000">+ everyTestRunSuccessful() : Matcher</text>
<text text-anchor="start" x="1861" y="-329.1" font-family="Bitstream Vera Sans" font-size="8.00" fill="#000000">+ hasNumberOfFailures() : Matcher</text>
<text text-anchor="start" x="1861" y="-320.1" font-family="Bitstream Vera Sans" font-size="8.00" fill="#000000">+ hasSingleFailure() : Matcher</text>
<text text-anchor="start" x="1861" y="-311.1" font-family="Bitstream Vera Sans" font-size="8.00" fill="#000000">+ hasNoFailure() : Matcher</text>
<text text-anchor="start" x="1861" y="-302.1" font-family="Bitstream Vera Sans" font-size="8.00" fill="#000000">+ hasNumberOfAssumptionFailures() : Matcher</text>
<text text-anchor="start" x="1861" y="-293.1" font-family="Bitstream Vera Sans" font-size="8.00" fill="#000000">+ hasSingleAssumptionFailure() : Matcher</text>
<text text-anchor="start" x="1861" y="-284.1" font-family="Bitstream Vera Sans" font-size="8.00" fill="#000000">+ hasNoAssumptionFailure() : Matcher</text>
<text text-anchor="start" x="1861" y="-275.1" font-family="Bitstream Vera Sans" font-size="8.00" fill="#000000">+ hasSingleFailureWithMessage() : Matcher</text>
<text text-anchor="start" x="1861" y="-266.1" font-family="Bitstream Vera Sans" font-size="8.00" fill="#000000">+ failureIs() : Matcher</text>
<text text-anchor="start" x="1861" y="-257.1" font-family="Bitstream Vera Sans" font-size="8.00" fill="#000000">+ testRunStarted() : void</text>
<text text-anchor="start" x="1861" y="-248.1" font-family="Bitstream Vera Sans" font-size="8.00" fill="#000000">+ testRunFinished() : void</text>
<text text-anchor="start" x="1861" y="-239.1" font-family="Bitstream Vera Sans" font-size="8.00" fill="#000000">+ testStarted() : void</text>
<text text-anchor="start" x="1861" y="-230.1" font-family="Bitstream Vera Sans" font-size="8.00" fill="#000000">+ testFinished() : void</text>
<text text-anchor="start" x="1861" y="-221.1" font-family="Bitstream Vera Sans" font-size="8.00" fill="#000000">+ testFailure() : void</text>
<text text-anchor="start" x="1861" y="-212.1" font-family="Bitstream Vera Sans" font-size="8.00" fill="#000000">+ testAssumptionFailure() : void</text>
<text text-anchor="start" x="1861" y="-203.1" font-family="Bitstream Vera Sans" font-size="8.00" fill="#000000">+ testIgnored() : void</text>
<text text-anchor="start" x="1861" y="-194.1" font-family="Bitstream Vera Sans" font-size="8.00" fill="#000000">+ toString() : String</text>
<text text-anchor="start" x="1861" y="-185.1" font-family="Bitstream Vera Sans" font-size="8.00" fill="#000000">+ access000() : List</text>
<text text-anchor="start" x="1861" y="-176.1" font-family="Bitstream Vera Sans" font-size="8.00" fill="#000000">+ access100() : List</text>
</g>
<!-- EventCollector&#45;&gt;RunListener -->
<g id="edge12" class="edge">
<title>EventCollector&#45;&gt;RunListener</title>
<path fill="none" stroke="#000000" d="M1852.7661,-174.6753C1849.884,-172.69 1846.9612,-170.7943 1844,-169 1782.443,-131.7015 1587.7253,-97.0674 1472.9543,-79.1836"/>
<polygon fill="none" stroke="#000000" points="1473.2044,-75.6808 1462.7869,-77.6106 1472.1341,-82.5985 1473.2044,-75.6808"/>
</g>
<!-- EventCollector&#45;&gt;EventCollector -->
<g id="edge16" class="edge">
<title>EventCollector&#45;&gt;EventCollector</title>
<path fill="none" stroke="#000000" d="M2069.4304,-344.1916C2080.1696,-336.8399 2087,-324.6094 2087,-307.5 2087,-294.9353 2083.3163,-285.0018 2077.1061,-277.6995"/>
<polygon fill="#000000" stroke="#000000" points="2079.2098,-274.8846 2069.4304,-270.8084 2074.5334,-280.0934 2079.2098,-274.8846"/>
</g>
<!-- JUnit4TestAdapterCacheXXX -->
<g id="node12" class="node">
<title>JUnit4TestAdapterCacheXXX</title>
<polygon fill="none" stroke="#000000" points="2105,-264 2105,-351 2295,-351 2295,-264 2105,-264"/>
<text text-anchor="middle" x="2200" y="-340.6" font-family="Bitstream Vera Sans" font-size="8.00" fill="#000000">JUnit4TestAdapterCacheXXX</text>
<polyline fill="none" stroke="#000000" points="2105,-334 2295,-334 "/>
<text text-anchor="start" x="2113" y="-323.6" font-family="Bitstream Vera Sans" font-size="8.00" fill="#000000">+ val$result : JUnit4TestAdapterCache$1</text>
<text text-anchor="start" x="2113" y="-314.6" font-family="Bitstream Vera Sans" font-size="8.00" fill="#000000">+ this$0 : JUnit4TestAdapterCache$1</text>
<polyline fill="none" stroke="#000000" points="2105,-308 2295,-308 "/>
<text text-anchor="start" x="2113" y="-297.6" font-family="Bitstream Vera Sans" font-size="8.00" fill="#000000">+ init() : void</text>
<text text-anchor="start" x="2113" y="-288.6" font-family="Bitstream Vera Sans" font-size="8.00" fill="#000000">+ testFailure() : void</text>
<text text-anchor="start" x="2113" y="-279.6" font-family="Bitstream Vera Sans" font-size="8.00" fill="#000000">+ testFinished() : void</text>
<text text-anchor="start" x="2113" y="-270.6" font-family="Bitstream Vera Sans" font-size="8.00" fill="#000000">+ testStarted() : void</text>
</g>
<!-- JUnit4TestAdapterCacheXXX&#45;&gt;RunListener -->
<g id="edge13" class="edge">
<title>JUnit4TestAdapterCacheXXX&#45;&gt;RunListener</title>
<path fill="none" stroke="#000000" d="M2179.0881,-263.8443C2161.4988,-232.1404 2133.2486,-191.0779 2096,-169 1992.1757,-107.4616 1638.5918,-80.3517 1472.945,-70.8124"/>
<polygon fill="none" stroke="#000000" points="1472.9739,-67.3085 1462.7916,-70.2362 1472.5772,-74.2973 1472.9739,-67.3085"/>
</g>
<!-- SynchronizedRunListener -->
<g id="node13" class="node">
<title>SynchronizedRunListener</title>
<polygon fill="none" stroke="#000000" points="2313,-223.5 2313,-391.5 2489,-391.5 2489,-223.5 2313,-223.5"/>
<text text-anchor="middle" x="2401" y="-381.1" font-family="Bitstream Vera Sans" font-size="8.00" fill="#000000">SynchronizedRunListener</text>
<polyline fill="none" stroke="#000000" points="2313,-374.5 2489,-374.5 "/>
<text text-anchor="start" x="2321" y="-364.1" font-family="Bitstream Vera Sans" font-size="8.00" fill="#000000">+ listener : SynchronizedRunListener</text>
<text text-anchor="start" x="2321" y="-355.1" font-family="Bitstream Vera Sans" font-size="8.00" fill="#000000">+ monitor : SynchronizedRunListener</text>
<polyline fill="none" stroke="#000000" points="2313,-348.5 2489,-348.5 "/>
<text text-anchor="start" x="2321" y="-338.1" font-family="Bitstream Vera Sans" font-size="8.00" fill="#000000">+ init() : void</text>
<text text-anchor="start" x="2321" y="-329.1" font-family="Bitstream Vera Sans" font-size="8.00" fill="#000000">+ testRunStarted() : void</text>
<text text-anchor="start" x="2321" y="-320.1" font-family="Bitstream Vera Sans" font-size="8.00" fill="#000000">+ testRunFinished() : void</text>
<text text-anchor="start" x="2321" y="-311.1" font-family="Bitstream Vera Sans" font-size="8.00" fill="#000000">+ testSuiteStarted() : void</text>
<text text-anchor="start" x="2321" y="-302.1" font-family="Bitstream Vera Sans" font-size="8.00" fill="#000000">+ testSuiteFinished() : void</text>
<text text-anchor="start" x="2321" y="-293.1" font-family="Bitstream Vera Sans" font-size="8.00" fill="#000000">+ testStarted() : void</text>
<text text-anchor="start" x="2321" y="-284.1" font-family="Bitstream Vera Sans" font-size="8.00" fill="#000000">+ testFinished() : void</text>
<text text-anchor="start" x="2321" y="-275.1" font-family="Bitstream Vera Sans" font-size="8.00" fill="#000000">+ testFailure() : void</text>
<text text-anchor="start" x="2321" y="-266.1" font-family="Bitstream Vera Sans" font-size="8.00" fill="#000000">+ testAssumptionFailure() : void</text>
<text text-anchor="start" x="2321" y="-257.1" font-family="Bitstream Vera Sans" font-size="8.00" fill="#000000">+ testIgnored() : void</text>
<text text-anchor="start" x="2321" y="-248.1" font-family="Bitstream Vera Sans" font-size="8.00" fill="#000000">+ hashCode() : I</text>
<text text-anchor="start" x="2321" y="-239.1" font-family="Bitstream Vera Sans" font-size="8.00" fill="#000000">+ equals() : Z</text>
<text text-anchor="start" x="2321" y="-230.1" font-family="Bitstream Vera Sans" font-size="8.00" fill="#000000">+ toString() : String</text>
</g>
<!-- SynchronizedRunListener&#45;&gt;RunListener -->
<g id="edge14" class="edge">
<title>SynchronizedRunListener&#45;&gt;RunListener</title>
<path fill="none" stroke="#000000" d="M2358.7106,-223.1542C2344.2025,-202.2027 2325.9642,-182.0324 2304,-169 2233.3621,-127.0874 1687.846,-86.6121 1472.7683,-72.1168"/>
<polygon fill="none" stroke="#000000" points="1472.9915,-68.624 1462.7795,-71.4462 1472.5226,-75.6082 1472.9915,-68.624"/>
</g>
<!-- SynchronizedRunListener&#45;&gt;SynchronizedRunListener -->
<g id="edge17" class="edge">
<title>SynchronizedRunListener&#45;&gt;SynchronizedRunListener</title>
<path fill="none" stroke="#000000" d="M2489.1338,-346.4328C2499.9254,-339.462 2507,-326.4844 2507,-307.5 2507,-293.5583 2503.1846,-282.8562 2496.8836,-275.3935"/>
<polygon fill="#000000" stroke="#000000" points="2498.9513,-272.5506 2489.1338,-268.5672 2494.3244,-277.8035 2498.9513,-272.5506"/>
</g>
<!-- TextListener -->
<g id="node14" class="node">
<title>TextListener</title>
<polygon fill="none" stroke="#000000" points="2525.5,-237 2525.5,-378 2680.5,-378 2680.5,-237 2525.5,-237"/>
<text text-anchor="middle" x="2603" y="-367.6" font-family="Bitstream Vera Sans" font-size="8.00" fill="#000000">TextListener</text>
<polyline fill="none" stroke="#000000" points="2525.5,-361 2680.5,-361 "/>
<text text-anchor="start" x="2533.5" y="-350.6" font-family="Bitstream Vera Sans" font-size="8.00" fill="#000000">+ writer : TextListener</text>
<polyline fill="none" stroke="#000000" points="2525.5,-344 2680.5,-344 "/>
<text text-anchor="start" x="2533.5" y="-333.6" font-family="Bitstream Vera Sans" font-size="8.00" fill="#000000">+ init() : void</text>
<text text-anchor="start" x="2533.5" y="-324.6" font-family="Bitstream Vera Sans" font-size="8.00" fill="#000000">+ testRunFinished() : void</text>
<text text-anchor="start" x="2533.5" y="-315.6" font-family="Bitstream Vera Sans" font-size="8.00" fill="#000000">+ testStarted() : void</text>
<text text-anchor="start" x="2533.5" y="-306.6" font-family="Bitstream Vera Sans" font-size="8.00" fill="#000000">+ testFailure() : void</text>
<text text-anchor="start" x="2533.5" y="-297.6" font-family="Bitstream Vera Sans" font-size="8.00" fill="#000000">+ testIgnored() : void</text>
<text text-anchor="start" x="2533.5" y="-288.6" font-family="Bitstream Vera Sans" font-size="8.00" fill="#000000">+ getWriter() : PrintStream</text>
<text text-anchor="start" x="2533.5" y="-279.6" font-family="Bitstream Vera Sans" font-size="8.00" fill="#000000">+ printHeader() : void</text>
<text text-anchor="start" x="2533.5" y="-270.6" font-family="Bitstream Vera Sans" font-size="8.00" fill="#000000">+ printFailures() : void</text>
<text text-anchor="start" x="2533.5" y="-261.6" font-family="Bitstream Vera Sans" font-size="8.00" fill="#000000">+ printFailure() : void</text>
<text text-anchor="start" x="2533.5" y="-252.6" font-family="Bitstream Vera Sans" font-size="8.00" fill="#000000">+ printFooter() : void</text>
<text text-anchor="start" x="2533.5" y="-243.6" font-family="Bitstream Vera Sans" font-size="8.00" fill="#000000">+ elapsedTimeAsString() : String</text>
</g>
<!-- TextListener&#45;&gt;RunListener -->
<g id="edge15" class="edge">
<title>TextListener&#45;&gt;RunListener</title>
<path fill="none" stroke="#000000" d="M2574.8218,-236.7814C2560.9831,-211.1879 2541.6573,-184.7375 2516,-169 2427.704,-114.8416 1721.684,-80.4849 1472.6125,-69.9511"/>
<polygon fill="none" stroke="#000000" points="1472.6596,-66.4501 1462.5213,-69.5268 1472.3654,-73.4439 1472.6596,-66.4501"/>
</g>
<!-- TextListener&#45;&gt;TextListener -->
<g id="edge18" class="edge">
<title>TextListener&#45;&gt;TextListener</title>
<path fill="none" stroke="#000000" d="M2680.5655,-347.655C2691.315,-341.0413 2698.5,-327.6563 2698.5,-307.5 2698.5,-292.6978 2694.6251,-281.5473 2688.3091,-274.0486"/>
<polygon fill="#000000" stroke="#000000" points="2690.4168,-271.2439 2680.5655,-267.345 2685.8352,-276.5363 2690.4168,-271.2439"/>
</g>
</g>
</svg>
