<?xml version="1.0" encoding="UTF-8" standalone="no"?>
<!DOCTYPE svg PUBLIC "-//W3C//DTD SVG 1.1//EN"
 "http://www.w3.org/Graphics/SVG/1.1/DTD/svg11.dtd">
<!-- Generated by graphviz version 2.40.1 (20161225.0304)
 -->
<!-- Title: G Pages: 1 -->
<svg width="368pt" height="2636pt"
 viewBox="0.00 0.00 368.00 2636.00" xmlns="http://www.w3.org/2000/svg" xmlns:xlink="http://www.w3.org/1999/xlink">
<g id="graph0" class="graph" transform="scale(1 1) rotate(0) translate(4 2632)">
<title>G</title>
<polygon fill="#ffffff" stroke="transparent" points="-4,4 -4,-2632 364,-2632 364,4 -4,4"/>
<!-- 42 -->
<g id="node1" class="node">
<title>42</title>
<ellipse fill="none" stroke="#000000" cx="99" cy="-909" rx="18" ry="18"/>
<text text-anchor="middle" x="99" y="-907.1" font-family="Bitstream Vera Sans" font-size="8.00" fill="#000000">42</text>
</g>
<!-- 43 -->
<g id="node2" class="node">
<title>43</title>
<ellipse fill="none" stroke="#000000" cx="99" cy="-828" rx="18" ry="18"/>
<text text-anchor="middle" x="99" y="-826.1" font-family="Bitstream Vera Sans" font-size="8.00" fill="#000000">43</text>
</g>
<!-- 42&#45;&gt;43 -->
<g id="edge1" class="edge">
<title>42&#45;&gt;43</title>
<path fill="none" stroke="#000000" d="M99,-890.6198C99,-880.5034 99,-867.7309 99,-856.3637"/>
<polygon fill="#000000" stroke="#000000" points="102.5001,-856.0284 99,-846.0284 95.5001,-856.0284 102.5001,-856.0284"/>
<text text-anchor="middle" x="104.5" y="-866.6" font-family="Bitstream Vera Sans" font-size="8.00" fill="#000000">50</text>
</g>
<!-- 44 -->
<g id="node5" class="node">
<title>44</title>
<ellipse fill="none" stroke="#000000" cx="99" cy="-747" rx="18" ry="18"/>
<text text-anchor="middle" x="99" y="-745.1" font-family="Bitstream Vera Sans" font-size="8.00" fill="#000000">44</text>
</g>
<!-- 43&#45;&gt;44 -->
<g id="edge3" class="edge">
<title>43&#45;&gt;44</title>
<path fill="none" stroke="#000000" d="M99,-809.6198C99,-799.5034 99,-786.7309 99,-775.3637"/>
<polygon fill="#000000" stroke="#000000" points="102.5001,-775.0284 99,-765.0284 95.5001,-775.0284 102.5001,-775.0284"/>
<text text-anchor="middle" x="104.5" y="-785.6" font-family="Bitstream Vera Sans" font-size="8.00" fill="#000000">50</text>
</g>
<!-- 48 -->
<g id="node3" class="node">
<title>48</title>
<ellipse fill="none" stroke="#000000" cx="99" cy="-423" rx="18" ry="18"/>
<text text-anchor="middle" x="99" y="-421.1" font-family="Bitstream Vera Sans" font-size="8.00" fill="#000000">48</text>
</g>
<!-- 49 -->
<g id="node4" class="node">
<title>49</title>
<ellipse fill="none" stroke="#000000" cx="99" cy="-342" rx="18" ry="18"/>
<text text-anchor="middle" x="99" y="-340.1" font-family="Bitstream Vera Sans" font-size="8.00" fill="#000000">49</text>
</g>
<!-- 48&#45;&gt;49 -->
<g id="edge2" class="edge">
<title>48&#45;&gt;49</title>
<path fill="none" stroke="#000000" d="M99,-404.6198C99,-394.5034 99,-381.7309 99,-370.3637"/>
<polygon fill="#000000" stroke="#000000" points="102.5001,-370.0284 99,-360.0284 95.5001,-370.0284 102.5001,-370.0284"/>
<text text-anchor="middle" x="104.5" y="-380.6" font-family="Bitstream Vera Sans" font-size="8.00" fill="#000000">50</text>
</g>
<!-- 50 -->
<g id="node6" class="node">
<title>50</title>
<ellipse fill="none" stroke="#000000" cx="99" cy="-261" rx="18" ry="18"/>
<text text-anchor="middle" x="99" y="-259.1" font-family="Bitstream Vera Sans" font-size="8.00" fill="#000000">50</text>
</g>
<!-- 49&#45;&gt;50 -->
<g id="edge4" class="edge">
<title>49&#45;&gt;50</title>
<path fill="none" stroke="#000000" d="M99,-323.6198C99,-313.5034 99,-300.7309 99,-289.3637"/>
<polygon fill="#000000" stroke="#000000" points="102.5001,-289.0284 99,-279.0284 95.5001,-289.0284 102.5001,-289.0284"/>
<text text-anchor="middle" x="104.5" y="-299.6" font-family="Bitstream Vera Sans" font-size="8.00" fill="#000000">50</text>
</g>
<!-- 45 -->
<g id="node20" class="node">
<title>45</title>
<ellipse fill="none" stroke="#000000" cx="99" cy="-666" rx="18" ry="18"/>
<text text-anchor="middle" x="99" y="-664.1" font-family="Bitstream Vera Sans" font-size="8.00" fill="#000000">45</text>
</g>
<!-- 44&#45;&gt;45 -->
<g id="edge16" class="edge">
<title>44&#45;&gt;45</title>
<path fill="none" stroke="#000000" d="M99,-728.6198C99,-718.5034 99,-705.7309 99,-694.3637"/>
<polygon fill="#000000" stroke="#000000" points="102.5001,-694.0284 99,-684.0284 95.5001,-694.0284 102.5001,-694.0284"/>
<text text-anchor="middle" x="104.5" y="-704.6" font-family="Bitstream Vera Sans" font-size="8.00" fill="#000000">50</text>
</g>
<!-- 51 -->
<g id="node34" class="node">
<title>51</title>
<ellipse fill="none" stroke="#000000" cx="99" cy="-180" rx="18" ry="18"/>
<text text-anchor="middle" x="99" y="-178.1" font-family="Bitstream Vera Sans" font-size="8.00" fill="#000000">51</text>
</g>
<!-- 50&#45;&gt;51 -->
<g id="edge52" class="edge">
<title>50&#45;&gt;51</title>
<path fill="none" stroke="#000000" d="M99,-242.6198C99,-232.5034 99,-219.7309 99,-208.3637"/>
<polygon fill="#000000" stroke="#000000" points="102.5001,-208.0284 99,-198.0284 95.5001,-208.0284 102.5001,-208.0284"/>
<text text-anchor="middle" x="104.5" y="-218.6" font-family="Bitstream Vera Sans" font-size="8.00" fill="#000000">50</text>
</g>
<!-- 52 -->
<g id="node7" class="node">
<title>52</title>
<ellipse fill="none" stroke="#000000" cx="99" cy="-99" rx="18" ry="18"/>
<text text-anchor="middle" x="99" y="-97.1" font-family="Bitstream Vera Sans" font-size="8.00" fill="#000000">52</text>
</g>
<!-- 1 -->
<g id="node8" class="node">
<title>1</title>
<ellipse fill="none" stroke="#000000" cx="99" cy="-18" rx="18" ry="18"/>
<text text-anchor="middle" x="99" y="-16.1" font-family="Bitstream Vera Sans" font-size="8.00" fill="#000000">1</text>
</g>
<!-- 52&#45;&gt;1 -->
<g id="edge5" class="edge">
<title>52&#45;&gt;1</title>
<path fill="none" stroke="#000000" d="M99,-80.6198C99,-70.5034 99,-57.7309 99,-46.3637"/>
<polygon fill="#000000" stroke="#000000" points="102.5001,-46.0284 99,-36.0284 95.5001,-46.0284 102.5001,-46.0284"/>
<text text-anchor="middle" x="104.5" y="-56.6" font-family="Bitstream Vera Sans" font-size="8.00" fill="#000000">50</text>
</g>
<!-- 24 -->
<g id="node9" class="node">
<title>24</title>
<ellipse fill="none" stroke="#000000" cx="72" cy="-1881" rx="18" ry="18"/>
<text text-anchor="middle" x="72" y="-1879.1" font-family="Bitstream Vera Sans" font-size="8.00" fill="#000000">24</text>
</g>
<!-- 25 -->
<g id="node10" class="node">
<title>25</title>
<ellipse fill="none" stroke="#000000" cx="72" cy="-1800" rx="18" ry="18"/>
<text text-anchor="middle" x="72" y="-1798.1" font-family="Bitstream Vera Sans" font-size="8.00" fill="#000000">25</text>
</g>
<!-- 24&#45;&gt;25 -->
<g id="edge6" class="edge">
<title>24&#45;&gt;25</title>
<path fill="none" stroke="#000000" d="M72,-1862.6198C72,-1852.5034 72,-1839.7309 72,-1828.3637"/>
<polygon fill="#000000" stroke="#000000" points="75.5001,-1828.0284 72,-1818.0284 68.5001,-1828.0284 75.5001,-1828.0284"/>
<text text-anchor="middle" x="77.5" y="-1838.6" font-family="Bitstream Vera Sans" font-size="8.00" fill="#000000">50</text>
</g>
<!-- 36 -->
<g id="node11" class="node">
<title>36</title>
<ellipse fill="none" stroke="#000000" cx="180" cy="-1719" rx="18" ry="18"/>
<text text-anchor="middle" x="180" y="-1717.1" font-family="Bitstream Vera Sans" font-size="8.00" fill="#000000">36</text>
</g>
<!-- 25&#45;&gt;36 -->
<g id="edge7" class="edge">
<title>25&#45;&gt;36</title>
<path fill="none" stroke="#000000" d="M86.5654,-1789.076C104.6818,-1775.4886 135.8188,-1752.1359 157.1308,-1736.1519"/>
<polygon fill="#000000" stroke="#000000" points="159.4205,-1738.8097 165.3205,-1730.0096 155.2204,-1733.2097 159.4205,-1738.8097"/>
<text text-anchor="middle" x="135.5" y="-1757.6" font-family="Bitstream Vera Sans" font-size="8.00" fill="#000000">50</text>
</g>
<!-- 37 -->
<g id="node50" class="node">
<title>37</title>
<ellipse fill="none" stroke="#000000" cx="126" cy="-1638" rx="18" ry="18"/>
<text text-anchor="middle" x="126" y="-1636.1" font-family="Bitstream Vera Sans" font-size="8.00" fill="#000000">37</text>
</g>
<!-- 36&#45;&gt;37 -->
<g id="edge47" class="edge">
<title>36&#45;&gt;37</title>
<path fill="none" stroke="#000000" d="M169.843,-1703.7645C161.9234,-1691.8852 150.7849,-1675.1773 141.7168,-1661.5752"/>
<polygon fill="#000000" stroke="#000000" points="144.5707,-1659.5462 136.1114,-1653.1672 138.7463,-1663.4291 144.5707,-1659.5462"/>
<text text-anchor="middle" x="160.5" y="-1676.6" font-family="Bitstream Vera Sans" font-size="8.00" fill="#000000">50</text>
</g>
<!-- 26 -->
<g id="node12" class="node">
<title>26</title>
<ellipse fill="none" stroke="#000000" cx="126" cy="-1881" rx="18" ry="18"/>
<text text-anchor="middle" x="126" y="-1879.1" font-family="Bitstream Vera Sans" font-size="8.00" fill="#000000">26</text>
</g>
<!-- 27 -->
<g id="node13" class="node">
<title>27</title>
<ellipse fill="none" stroke="#000000" cx="126" cy="-1800" rx="18" ry="18"/>
<text text-anchor="middle" x="126" y="-1798.1" font-family="Bitstream Vera Sans" font-size="8.00" fill="#000000">27</text>
</g>
<!-- 26&#45;&gt;27 -->
<g id="edge8" class="edge">
<title>26&#45;&gt;27</title>
<path fill="none" stroke="#000000" d="M126,-1862.6198C126,-1852.5034 126,-1839.7309 126,-1828.3637"/>
<polygon fill="#000000" stroke="#000000" points="129.5001,-1828.0284 126,-1818.0284 122.5001,-1828.0284 129.5001,-1828.0284"/>
<text text-anchor="middle" x="131.5" y="-1838.6" font-family="Bitstream Vera Sans" font-size="8.00" fill="#000000">50</text>
</g>
<!-- 27&#45;&gt;36 -->
<g id="edge9" class="edge">
<title>27&#45;&gt;36</title>
<path fill="none" stroke="#000000" d="M136.157,-1784.7645C144.0766,-1772.8852 155.2151,-1756.1773 164.2832,-1742.5752"/>
<polygon fill="#000000" stroke="#000000" points="167.2537,-1744.4291 169.8886,-1734.1672 161.4293,-1740.5462 167.2537,-1744.4291"/>
<text text-anchor="middle" x="160.5" y="-1757.6" font-family="Bitstream Vera Sans" font-size="8.00" fill="#000000">50</text>
</g>
<!-- 20 -->
<g id="node14" class="node">
<title>20</title>
<ellipse fill="none" stroke="#000000" cx="151" cy="-2043" rx="18" ry="18"/>
<text text-anchor="middle" x="151" y="-2041.1" font-family="Bitstream Vera Sans" font-size="8.00" fill="#000000">20</text>
</g>
<!-- 21 -->
<g id="node15" class="node">
<title>21</title>
<ellipse fill="none" stroke="#000000" cx="151" cy="-1962" rx="18" ry="18"/>
<text text-anchor="middle" x="151" y="-1960.1" font-family="Bitstream Vera Sans" font-size="8.00" fill="#000000">21</text>
</g>
<!-- 20&#45;&gt;21 -->
<g id="edge10" class="edge">
<title>20&#45;&gt;21</title>
<path fill="none" stroke="#000000" d="M151,-2024.6198C151,-2014.5034 151,-2001.7309 151,-1990.3637"/>
<polygon fill="#000000" stroke="#000000" points="154.5001,-1990.0284 151,-1980.0284 147.5001,-1990.0284 154.5001,-1990.0284"/>
<text text-anchor="middle" x="156.5" y="-2000.6" font-family="Bitstream Vera Sans" font-size="8.00" fill="#000000">50</text>
</g>
<!-- 22 -->
<g id="node16" class="node">
<title>22</title>
<ellipse fill="none" stroke="#000000" cx="180" cy="-1881" rx="18" ry="18"/>
<text text-anchor="middle" x="180" y="-1879.1" font-family="Bitstream Vera Sans" font-size="8.00" fill="#000000">22</text>
</g>
<!-- 21&#45;&gt;22 -->
<g id="edge11" class="edge">
<title>21&#45;&gt;22</title>
<path fill="none" stroke="#000000" d="M157.1502,-1944.822C160.995,-1934.0829 166.028,-1920.0252 170.3916,-1907.8374"/>
<polygon fill="#000000" stroke="#000000" points="173.7831,-1908.7478 173.8587,-1898.1533 167.1927,-1906.3883 173.7831,-1908.7478"/>
<text text-anchor="middle" x="172.5" y="-1919.6" font-family="Bitstream Vera Sans" font-size="8.00" fill="#000000">50</text>
</g>
<!-- 23 -->
<g id="node17" class="node">
<title>23</title>
<ellipse fill="none" stroke="#000000" cx="180" cy="-1800" rx="18" ry="18"/>
<text text-anchor="middle" x="180" y="-1798.1" font-family="Bitstream Vera Sans" font-size="8.00" fill="#000000">23</text>
</g>
<!-- 22&#45;&gt;23 -->
<g id="edge12" class="edge">
<title>22&#45;&gt;23</title>
<path fill="none" stroke="#000000" d="M180,-1862.6198C180,-1852.5034 180,-1839.7309 180,-1828.3637"/>
<polygon fill="#000000" stroke="#000000" points="183.5001,-1828.0284 180,-1818.0284 176.5001,-1828.0284 183.5001,-1828.0284"/>
<text text-anchor="middle" x="185.5" y="-1838.6" font-family="Bitstream Vera Sans" font-size="8.00" fill="#000000">50</text>
</g>
<!-- 23&#45;&gt;36 -->
<g id="edge13" class="edge">
<title>23&#45;&gt;36</title>
<path fill="none" stroke="#000000" d="M180,-1781.6198C180,-1771.5034 180,-1758.7309 180,-1747.3637"/>
<polygon fill="#000000" stroke="#000000" points="183.5001,-1747.0284 180,-1737.0284 176.5001,-1747.0284 183.5001,-1747.0284"/>
<text text-anchor="middle" x="185.5" y="-1757.6" font-family="Bitstream Vera Sans" font-size="8.00" fill="#000000">50</text>
</g>
<!-- 46 -->
<g id="node18" class="node">
<title>46</title>
<ellipse fill="none" stroke="#000000" cx="99" cy="-585" rx="18" ry="18"/>
<text text-anchor="middle" x="99" y="-583.1" font-family="Bitstream Vera Sans" font-size="8.00" fill="#000000">46</text>
</g>
<!-- 47 -->
<g id="node19" class="node">
<title>47</title>
<ellipse fill="none" stroke="#000000" cx="99" cy="-504" rx="18" ry="18"/>
<text text-anchor="middle" x="99" y="-502.1" font-family="Bitstream Vera Sans" font-size="8.00" fill="#000000">47</text>
</g>
<!-- 46&#45;&gt;47 -->
<g id="edge14" class="edge">
<title>46&#45;&gt;47</title>
<path fill="none" stroke="#000000" d="M99,-566.6198C99,-556.5034 99,-543.7309 99,-532.3637"/>
<polygon fill="#000000" stroke="#000000" points="102.5001,-532.0284 99,-522.0284 95.5001,-532.0284 102.5001,-532.0284"/>
<text text-anchor="middle" x="104.5" y="-542.6" font-family="Bitstream Vera Sans" font-size="8.00" fill="#000000">50</text>
</g>
<!-- 47&#45;&gt;48 -->
<g id="edge15" class="edge">
<title>47&#45;&gt;48</title>
<path fill="none" stroke="#000000" d="M99,-485.6198C99,-475.5034 99,-462.7309 99,-451.3637"/>
<polygon fill="#000000" stroke="#000000" points="102.5001,-451.0284 99,-441.0284 95.5001,-451.0284 102.5001,-451.0284"/>
<text text-anchor="middle" x="104.5" y="-461.6" font-family="Bitstream Vera Sans" font-size="8.00" fill="#000000">50</text>
</g>
<!-- 45&#45;&gt;46 -->
<g id="edge17" class="edge">
<title>45&#45;&gt;46</title>
<path fill="none" stroke="#000000" d="M99,-647.6198C99,-637.5034 99,-624.7309 99,-613.3637"/>
<polygon fill="#000000" stroke="#000000" points="102.5001,-613.0284 99,-603.0284 95.5001,-613.0284 102.5001,-613.0284"/>
<text text-anchor="middle" x="104.5" y="-623.6" font-family="Bitstream Vera Sans" font-size="8.00" fill="#000000">50</text>
</g>
<!-- 28 -->
<g id="node21" class="node">
<title>28</title>
<ellipse fill="none" stroke="#000000" cx="234" cy="-1881" rx="18" ry="18"/>
<text text-anchor="middle" x="234" y="-1879.1" font-family="Bitstream Vera Sans" font-size="8.00" fill="#000000">28</text>
</g>
<!-- 29 -->
<g id="node22" class="node">
<title>29</title>
<ellipse fill="none" stroke="#000000" cx="234" cy="-1800" rx="18" ry="18"/>
<text text-anchor="middle" x="234" y="-1798.1" font-family="Bitstream Vera Sans" font-size="8.00" fill="#000000">29</text>
</g>
<!-- 28&#45;&gt;29 -->
<g id="edge18" class="edge">
<title>28&#45;&gt;29</title>
<path fill="none" stroke="#000000" d="M234,-1862.6198C234,-1852.5034 234,-1839.7309 234,-1828.3637"/>
<polygon fill="#000000" stroke="#000000" points="237.5001,-1828.0284 234,-1818.0284 230.5001,-1828.0284 237.5001,-1828.0284"/>
<text text-anchor="middle" x="239.5" y="-1838.6" font-family="Bitstream Vera Sans" font-size="8.00" fill="#000000">50</text>
</g>
<!-- 29&#45;&gt;36 -->
<g id="edge19" class="edge">
<title>29&#45;&gt;36</title>
<path fill="none" stroke="#000000" d="M223.843,-1784.7645C215.9234,-1772.8852 204.7849,-1756.1773 195.7168,-1742.5752"/>
<polygon fill="#000000" stroke="#000000" points="198.5707,-1740.5462 190.1114,-1734.1672 192.7463,-1744.4291 198.5707,-1740.5462"/>
<text text-anchor="middle" x="213.5" y="-1757.6" font-family="Bitstream Vera Sans" font-size="8.00" fill="#000000">50</text>
</g>
<!-- 40 -->
<g id="node23" class="node">
<title>40</title>
<ellipse fill="none" stroke="#000000" cx="99" cy="-1071" rx="18" ry="18"/>
<text text-anchor="middle" x="99" y="-1069.1" font-family="Bitstream Vera Sans" font-size="8.00" fill="#000000">40</text>
</g>
<!-- 41 -->
<g id="node24" class="node">
<title>41</title>
<ellipse fill="none" stroke="#000000" cx="99" cy="-990" rx="18" ry="18"/>
<text text-anchor="middle" x="99" y="-988.1" font-family="Bitstream Vera Sans" font-size="8.00" fill="#000000">41</text>
</g>
<!-- 40&#45;&gt;41 -->
<g id="edge20" class="edge">
<title>40&#45;&gt;41</title>
<path fill="none" stroke="#000000" d="M99,-1052.6198C99,-1042.5034 99,-1029.7309 99,-1018.3637"/>
<polygon fill="#000000" stroke="#000000" points="102.5001,-1018.0284 99,-1008.0284 95.5001,-1018.0284 102.5001,-1018.0284"/>
<text text-anchor="middle" x="104.5" y="-1028.6" font-family="Bitstream Vera Sans" font-size="8.00" fill="#000000">50</text>
</g>
<!-- 41&#45;&gt;42 -->
<g id="edge21" class="edge">
<title>41&#45;&gt;42</title>
<path fill="none" stroke="#000000" d="M99,-971.6198C99,-961.5034 99,-948.7309 99,-937.3637"/>
<polygon fill="#000000" stroke="#000000" points="102.5001,-937.0284 99,-927.0284 95.5001,-937.0284 102.5001,-937.0284"/>
<text text-anchor="middle" x="104.5" y="-947.6" font-family="Bitstream Vera Sans" font-size="8.00" fill="#000000">50</text>
</g>
<!-- 0 -->
<g id="node25" class="node">
<title>0</title>
<ellipse fill="none" stroke="#000000" cx="18" cy="-1800" rx="18" ry="18"/>
<text text-anchor="middle" x="18" y="-1798.1" font-family="Bitstream Vera Sans" font-size="8.00" fill="#000000">0</text>
</g>
<!-- 2 -->
<g id="node26" class="node">
<title>2</title>
<ellipse fill="none" stroke="#000000" cx="72" cy="-1719" rx="18" ry="18"/>
<text text-anchor="middle" x="72" y="-1717.1" font-family="Bitstream Vera Sans" font-size="8.00" fill="#000000">2</text>
</g>
<!-- 0&#45;&gt;2 -->
<g id="edge22" class="edge">
<title>0&#45;&gt;2</title>
<path fill="none" stroke="#000000" d="M28.157,-1784.7645C36.0766,-1772.8852 47.2151,-1756.1773 56.2832,-1742.5752"/>
<polygon fill="#000000" stroke="#000000" points="59.2537,-1744.4291 61.8886,-1734.1672 53.4293,-1740.5462 59.2537,-1744.4291"/>
<text text-anchor="middle" x="52.5" y="-1757.6" font-family="Bitstream Vera Sans" font-size="8.00" fill="#000000">50</text>
</g>
<!-- 3 -->
<g id="node27" class="node">
<title>3</title>
<ellipse fill="none" stroke="#000000" cx="72" cy="-1638" rx="18" ry="18"/>
<text text-anchor="middle" x="72" y="-1636.1" font-family="Bitstream Vera Sans" font-size="8.00" fill="#000000">3</text>
</g>
<!-- 2&#45;&gt;3 -->
<g id="edge24" class="edge">
<title>2&#45;&gt;3</title>
<path fill="none" stroke="#000000" d="M72,-1700.6198C72,-1690.5034 72,-1677.7309 72,-1666.3637"/>
<polygon fill="#000000" stroke="#000000" points="75.5001,-1666.0284 72,-1656.0284 68.5001,-1666.0284 75.5001,-1666.0284"/>
<text text-anchor="middle" x="77.5" y="-1676.6" font-family="Bitstream Vera Sans" font-size="8.00" fill="#000000">50</text>
</g>
<!-- 4 -->
<g id="node28" class="node">
<title>4</title>
<ellipse fill="none" stroke="#000000" cx="72" cy="-1557" rx="18" ry="18"/>
<text text-anchor="middle" x="72" y="-1555.1" font-family="Bitstream Vera Sans" font-size="8.00" fill="#000000">4</text>
</g>
<!-- 3&#45;&gt;4 -->
<g id="edge23" class="edge">
<title>3&#45;&gt;4</title>
<path fill="none" stroke="#000000" d="M72,-1619.6198C72,-1609.5034 72,-1596.7309 72,-1585.3637"/>
<polygon fill="#000000" stroke="#000000" points="75.5001,-1585.0284 72,-1575.0284 68.5001,-1585.0284 75.5001,-1585.0284"/>
<text text-anchor="middle" x="77.5" y="-1595.6" font-family="Bitstream Vera Sans" font-size="8.00" fill="#000000">50</text>
</g>
<!-- 5 -->
<g id="node29" class="node">
<title>5</title>
<ellipse fill="none" stroke="#000000" cx="72" cy="-1476" rx="18" ry="18"/>
<text text-anchor="middle" x="72" y="-1474.1" font-family="Bitstream Vera Sans" font-size="8.00" fill="#000000">5</text>
</g>
<!-- 4&#45;&gt;5 -->
<g id="edge26" class="edge">
<title>4&#45;&gt;5</title>
<path fill="none" stroke="#000000" d="M72,-1538.6198C72,-1528.5034 72,-1515.7309 72,-1504.3637"/>
<polygon fill="#000000" stroke="#000000" points="75.5001,-1504.0284 72,-1494.0284 68.5001,-1504.0284 75.5001,-1504.0284"/>
<text text-anchor="middle" x="77.5" y="-1514.6" font-family="Bitstream Vera Sans" font-size="8.00" fill="#000000">50</text>
</g>
<!-- 6 -->
<g id="node30" class="node">
<title>6</title>
<ellipse fill="none" stroke="#000000" cx="99" cy="-1395" rx="18" ry="18"/>
<text text-anchor="middle" x="99" y="-1393.1" font-family="Bitstream Vera Sans" font-size="8.00" fill="#000000">6</text>
</g>
<!-- 5&#45;&gt;6 -->
<g id="edge25" class="edge">
<title>5&#45;&gt;6</title>
<path fill="none" stroke="#000000" d="M77.726,-1458.822C81.3057,-1448.0829 85.9916,-1434.0252 90.0542,-1421.8374"/>
<polygon fill="#000000" stroke="#000000" points="93.4403,-1422.7469 93.2822,-1412.1533 86.7995,-1420.5333 93.4403,-1422.7469"/>
<text text-anchor="middle" x="92.5" y="-1433.6" font-family="Bitstream Vera Sans" font-size="8.00" fill="#000000">50</text>
</g>
<!-- 7 -->
<g id="node31" class="node">
<title>7</title>
<ellipse fill="none" stroke="#000000" cx="99" cy="-1314" rx="18" ry="18"/>
<text text-anchor="middle" x="99" y="-1312.1" font-family="Bitstream Vera Sans" font-size="8.00" fill="#000000">7</text>
</g>
<!-- 6&#45;&gt;7 -->
<g id="edge28" class="edge">
<title>6&#45;&gt;7</title>
<path fill="none" stroke="#000000" d="M99,-1376.6198C99,-1366.5034 99,-1353.7309 99,-1342.3637"/>
<polygon fill="#000000" stroke="#000000" points="102.5001,-1342.0284 99,-1332.0284 95.5001,-1342.0284 102.5001,-1342.0284"/>
<text text-anchor="middle" x="104.5" y="-1352.6" font-family="Bitstream Vera Sans" font-size="8.00" fill="#000000">50</text>
</g>
<!-- 8 -->
<g id="node32" class="node">
<title>8</title>
<ellipse fill="none" stroke="#000000" cx="99" cy="-1233" rx="18" ry="18"/>
<text text-anchor="middle" x="99" y="-1231.1" font-family="Bitstream Vera Sans" font-size="8.00" fill="#000000">8</text>
</g>
<!-- 7&#45;&gt;8 -->
<g id="edge27" class="edge">
<title>7&#45;&gt;8</title>
<path fill="none" stroke="#000000" d="M99,-1295.6198C99,-1285.5034 99,-1272.7309 99,-1261.3637"/>
<polygon fill="#000000" stroke="#000000" points="102.5001,-1261.0284 99,-1251.0284 95.5001,-1261.0284 102.5001,-1261.0284"/>
<text text-anchor="middle" x="104.5" y="-1271.6" font-family="Bitstream Vera Sans" font-size="8.00" fill="#000000">50</text>
</g>
<!-- 9 -->
<g id="node33" class="node">
<title>9</title>
<ellipse fill="none" stroke="#000000" cx="99" cy="-1152" rx="18" ry="18"/>
<text text-anchor="middle" x="99" y="-1150.1" font-family="Bitstream Vera Sans" font-size="8.00" fill="#000000">9</text>
</g>
<!-- 8&#45;&gt;9 -->
<g id="edge30" class="edge">
<title>8&#45;&gt;9</title>
<path fill="none" stroke="#000000" d="M99,-1214.6198C99,-1204.5034 99,-1191.7309 99,-1180.3637"/>
<polygon fill="#000000" stroke="#000000" points="102.5001,-1180.0284 99,-1170.0284 95.5001,-1180.0284 102.5001,-1180.0284"/>
<text text-anchor="middle" x="104.5" y="-1190.6" font-family="Bitstream Vera Sans" font-size="8.00" fill="#000000">50</text>
</g>
<!-- 9&#45;&gt;40 -->
<g id="edge29" class="edge">
<title>9&#45;&gt;40</title>
<path fill="none" stroke="#000000" d="M99,-1133.6198C99,-1123.5034 99,-1110.7309 99,-1099.3637"/>
<polygon fill="#000000" stroke="#000000" points="102.5001,-1099.0284 99,-1089.0284 95.5001,-1099.0284 102.5001,-1099.0284"/>
<text text-anchor="middle" x="104.5" y="-1109.6" font-family="Bitstream Vera Sans" font-size="8.00" fill="#000000">50</text>
</g>
<!-- 51&#45;&gt;52 -->
<g id="edge31" class="edge">
<title>51&#45;&gt;52</title>
<path fill="none" stroke="#000000" d="M99,-161.6198C99,-151.5034 99,-138.7309 99,-127.3637"/>
<polygon fill="#000000" stroke="#000000" points="102.5001,-127.0284 99,-117.0284 95.5001,-127.0284 102.5001,-127.0284"/>
<text text-anchor="middle" x="104.5" y="-137.6" font-family="Bitstream Vera Sans" font-size="8.00" fill="#000000">50</text>
</g>
<!-- 39 -->
<g id="node35" class="node">
<title>39</title>
<ellipse fill="none" stroke="#000000" cx="126" cy="-1476" rx="18" ry="18"/>
<text text-anchor="middle" x="126" y="-1474.1" font-family="Bitstream Vera Sans" font-size="8.00" fill="#000000">39</text>
</g>
<!-- 39&#45;&gt;6 -->
<g id="edge32" class="edge">
<title>39&#45;&gt;6</title>
<path fill="none" stroke="#000000" d="M120.274,-1458.822C116.6943,-1448.0829 112.0084,-1434.0252 107.9458,-1421.8374"/>
<polygon fill="#000000" stroke="#000000" points="111.2005,-1420.5333 104.7178,-1412.1533 104.5597,-1422.7469 111.2005,-1420.5333"/>
<text text-anchor="middle" x="119.5" y="-1433.6" font-family="Bitstream Vera Sans" font-size="8.00" fill="#000000">50</text>
</g>
<!-- 38 -->
<g id="node36" class="node">
<title>38</title>
<ellipse fill="none" stroke="#000000" cx="126" cy="-1557" rx="18" ry="18"/>
<text text-anchor="middle" x="126" y="-1555.1" font-family="Bitstream Vera Sans" font-size="8.00" fill="#000000">38</text>
</g>
<!-- 38&#45;&gt;39 -->
<g id="edge33" class="edge">
<title>38&#45;&gt;39</title>
<path fill="none" stroke="#000000" d="M126,-1538.6198C126,-1528.5034 126,-1515.7309 126,-1504.3637"/>
<polygon fill="#000000" stroke="#000000" points="129.5001,-1504.0284 126,-1494.0284 122.5001,-1504.0284 129.5001,-1504.0284"/>
<text text-anchor="middle" x="131.5" y="-1514.6" font-family="Bitstream Vera Sans" font-size="8.00" fill="#000000">50</text>
</g>
<!-- 11 -->
<g id="node37" class="node">
<title>11</title>
<ellipse fill="none" stroke="#000000" cx="205" cy="-2529" rx="18" ry="18"/>
<text text-anchor="middle" x="205" y="-2527.1" font-family="Bitstream Vera Sans" font-size="8.00" fill="#000000">11</text>
</g>
<!-- 12 -->
<g id="node38" class="node">
<title>12</title>
<ellipse fill="none" stroke="#000000" cx="205" cy="-2448" rx="18" ry="18"/>
<text text-anchor="middle" x="205" y="-2446.1" font-family="Bitstream Vera Sans" font-size="8.00" fill="#000000">12</text>
</g>
<!-- 11&#45;&gt;12 -->
<g id="edge34" class="edge">
<title>11&#45;&gt;12</title>
<path fill="none" stroke="#000000" d="M205,-2510.6198C205,-2500.5034 205,-2487.7309 205,-2476.3637"/>
<polygon fill="#000000" stroke="#000000" points="208.5001,-2476.0284 205,-2466.0284 201.5001,-2476.0284 208.5001,-2476.0284"/>
<text text-anchor="middle" x="210.5" y="-2486.6" font-family="Bitstream Vera Sans" font-size="8.00" fill="#000000">50</text>
</g>
<!-- 13 -->
<g id="node40" class="node">
<title>13</title>
<ellipse fill="none" stroke="#000000" cx="205" cy="-2367" rx="18" ry="18"/>
<text text-anchor="middle" x="205" y="-2365.1" font-family="Bitstream Vera Sans" font-size="8.00" fill="#000000">13</text>
</g>
<!-- 12&#45;&gt;13 -->
<g id="edge37" class="edge">
<title>12&#45;&gt;13</title>
<path fill="none" stroke="#000000" d="M205,-2429.6198C205,-2419.5034 205,-2406.7309 205,-2395.3637"/>
<polygon fill="#000000" stroke="#000000" points="208.5001,-2395.0284 205,-2385.0284 201.5001,-2395.0284 208.5001,-2395.0284"/>
<text text-anchor="middle" x="210.5" y="-2405.6" font-family="Bitstream Vera Sans" font-size="8.00" fill="#000000">50</text>
</g>
<!-- 10 -->
<g id="node39" class="node">
<title>10</title>
<ellipse fill="none" stroke="#000000" cx="205" cy="-2610" rx="18" ry="18"/>
<text text-anchor="middle" x="205" y="-2608.1" font-family="Bitstream Vera Sans" font-size="8.00" fill="#000000">10</text>
</g>
<!-- 10&#45;&gt;11 -->
<g id="edge35" class="edge">
<title>10&#45;&gt;11</title>
<path fill="none" stroke="#000000" d="M205,-2591.6198C205,-2581.5034 205,-2568.7309 205,-2557.3637"/>
<polygon fill="#000000" stroke="#000000" points="208.5001,-2557.0284 205,-2547.0284 201.5001,-2557.0284 208.5001,-2557.0284"/>
<text text-anchor="middle" x="210.5" y="-2567.6" font-family="Bitstream Vera Sans" font-size="8.00" fill="#000000">50</text>
</g>
<!-- 14 -->
<g id="node41" class="node">
<title>14</title>
<ellipse fill="none" stroke="#000000" cx="205" cy="-2286" rx="18" ry="18"/>
<text text-anchor="middle" x="205" y="-2284.1" font-family="Bitstream Vera Sans" font-size="8.00" fill="#000000">14</text>
</g>
<!-- 13&#45;&gt;14 -->
<g id="edge36" class="edge">
<title>13&#45;&gt;14</title>
<path fill="none" stroke="#000000" d="M205,-2348.6198C205,-2338.5034 205,-2325.7309 205,-2314.3637"/>
<polygon fill="#000000" stroke="#000000" points="208.5001,-2314.0284 205,-2304.0284 201.5001,-2314.0284 208.5001,-2314.0284"/>
<text text-anchor="middle" x="210.5" y="-2324.6" font-family="Bitstream Vera Sans" font-size="8.00" fill="#000000">50</text>
</g>
<!-- 15 -->
<g id="node42" class="node">
<title>15</title>
<ellipse fill="none" stroke="#000000" cx="205" cy="-2205" rx="18" ry="18"/>
<text text-anchor="middle" x="205" y="-2203.1" font-family="Bitstream Vera Sans" font-size="8.00" fill="#000000">15</text>
</g>
<!-- 14&#45;&gt;15 -->
<g id="edge39" class="edge">
<title>14&#45;&gt;15</title>
<path fill="none" stroke="#000000" d="M205,-2267.6198C205,-2257.5034 205,-2244.7309 205,-2233.3637"/>
<polygon fill="#000000" stroke="#000000" points="208.5001,-2233.0284 205,-2223.0284 201.5001,-2233.0284 208.5001,-2233.0284"/>
<text text-anchor="middle" x="210.5" y="-2243.6" font-family="Bitstream Vera Sans" font-size="8.00" fill="#000000">50</text>
</g>
<!-- 16 -->
<g id="node43" class="node">
<title>16</title>
<ellipse fill="none" stroke="#000000" cx="205" cy="-2124" rx="18" ry="18"/>
<text text-anchor="middle" x="205" y="-2122.1" font-family="Bitstream Vera Sans" font-size="8.00" fill="#000000">16</text>
</g>
<!-- 15&#45;&gt;16 -->
<g id="edge38" class="edge">
<title>15&#45;&gt;16</title>
<path fill="none" stroke="#000000" d="M205,-2186.6198C205,-2176.5034 205,-2163.7309 205,-2152.3637"/>
<polygon fill="#000000" stroke="#000000" points="208.5001,-2152.0284 205,-2142.0284 201.5001,-2152.0284 208.5001,-2152.0284"/>
<text text-anchor="middle" x="210.5" y="-2162.6" font-family="Bitstream Vera Sans" font-size="8.00" fill="#000000">50</text>
</g>
<!-- 17 -->
<g id="node44" class="node">
<title>17</title>
<ellipse fill="none" stroke="#000000" cx="205" cy="-2043" rx="18" ry="18"/>
<text text-anchor="middle" x="205" y="-2041.1" font-family="Bitstream Vera Sans" font-size="8.00" fill="#000000">17</text>
</g>
<!-- 16&#45;&gt;17 -->
<g id="edge41" class="edge">
<title>16&#45;&gt;17</title>
<path fill="none" stroke="#000000" d="M205,-2105.6198C205,-2095.5034 205,-2082.7309 205,-2071.3637"/>
<polygon fill="#000000" stroke="#000000" points="208.5001,-2071.0284 205,-2061.0284 201.5001,-2071.0284 208.5001,-2071.0284"/>
<text text-anchor="middle" x="210.5" y="-2081.6" font-family="Bitstream Vera Sans" font-size="8.00" fill="#000000">50</text>
</g>
<!-- 18 -->
<g id="node45" class="node">
<title>18</title>
<ellipse fill="none" stroke="#000000" cx="205" cy="-1962" rx="18" ry="18"/>
<text text-anchor="middle" x="205" y="-1960.1" font-family="Bitstream Vera Sans" font-size="8.00" fill="#000000">18</text>
</g>
<!-- 17&#45;&gt;18 -->
<g id="edge40" class="edge">
<title>17&#45;&gt;18</title>
<path fill="none" stroke="#000000" d="M205,-2024.6198C205,-2014.5034 205,-2001.7309 205,-1990.3637"/>
<polygon fill="#000000" stroke="#000000" points="208.5001,-1990.0284 205,-1980.0284 201.5001,-1990.0284 208.5001,-1990.0284"/>
<text text-anchor="middle" x="210.5" y="-2000.6" font-family="Bitstream Vera Sans" font-size="8.00" fill="#000000">50</text>
</g>
<!-- 18&#45;&gt;22 -->
<g id="edge43" class="edge">
<title>18&#45;&gt;22</title>
<path fill="none" stroke="#000000" d="M199.5754,-1944.4242C196.2769,-1933.7371 191.9983,-1919.8746 188.2828,-1907.8364"/>
<polygon fill="#000000" stroke="#000000" points="191.6217,-1906.7862 185.3282,-1898.2632 184.933,-1908.8507 191.6217,-1906.7862"/>
<text text-anchor="middle" x="199.5" y="-1919.6" font-family="Bitstream Vera Sans" font-size="8.00" fill="#000000">50</text>
</g>
<!-- 19 -->
<g id="node46" class="node">
<title>19</title>
<ellipse fill="none" stroke="#000000" cx="151" cy="-2124" rx="18" ry="18"/>
<text text-anchor="middle" x="151" y="-2122.1" font-family="Bitstream Vera Sans" font-size="8.00" fill="#000000">19</text>
</g>
<!-- 19&#45;&gt;20 -->
<g id="edge42" class="edge">
<title>19&#45;&gt;20</title>
<path fill="none" stroke="#000000" d="M151,-2105.6198C151,-2095.5034 151,-2082.7309 151,-2071.3637"/>
<polygon fill="#000000" stroke="#000000" points="154.5001,-2071.0284 151,-2061.0284 147.5001,-2071.0284 154.5001,-2071.0284"/>
<text text-anchor="middle" x="156.5" y="-2081.6" font-family="Bitstream Vera Sans" font-size="8.00" fill="#000000">50</text>
</g>
<!-- 31 -->
<g id="node47" class="node">
<title>31</title>
<ellipse fill="none" stroke="#000000" cx="342" cy="-2043" rx="18" ry="18"/>
<text text-anchor="middle" x="342" y="-2041.1" font-family="Bitstream Vera Sans" font-size="8.00" fill="#000000">31</text>
</g>
<!-- 32 -->
<g id="node48" class="node">
<title>32</title>
<ellipse fill="none" stroke="#000000" cx="342" cy="-1962" rx="18" ry="18"/>
<text text-anchor="middle" x="342" y="-1960.1" font-family="Bitstream Vera Sans" font-size="8.00" fill="#000000">32</text>
</g>
<!-- 31&#45;&gt;32 -->
<g id="edge44" class="edge">
<title>31&#45;&gt;32</title>
<path fill="none" stroke="#000000" d="M342,-2024.6198C342,-2014.5034 342,-2001.7309 342,-1990.3637"/>
<polygon fill="#000000" stroke="#000000" points="345.5001,-1990.0284 342,-1980.0284 338.5001,-1990.0284 345.5001,-1990.0284"/>
<text text-anchor="middle" x="347.5" y="-2000.6" font-family="Bitstream Vera Sans" font-size="8.00" fill="#000000">50</text>
</g>
<!-- 33 -->
<g id="node53" class="node">
<title>33</title>
<ellipse fill="none" stroke="#000000" cx="342" cy="-1881" rx="18" ry="18"/>
<text text-anchor="middle" x="342" y="-1879.1" font-family="Bitstream Vera Sans" font-size="8.00" fill="#000000">33</text>
</g>
<!-- 32&#45;&gt;33 -->
<g id="edge51" class="edge">
<title>32&#45;&gt;33</title>
<path fill="none" stroke="#000000" d="M342,-1943.6198C342,-1933.5034 342,-1920.7309 342,-1909.3637"/>
<polygon fill="#000000" stroke="#000000" points="345.5001,-1909.0284 342,-1899.0284 338.5001,-1909.0284 345.5001,-1909.0284"/>
<text text-anchor="middle" x="347.5" y="-1919.6" font-family="Bitstream Vera Sans" font-size="8.00" fill="#000000">50</text>
</g>
<!-- 30 -->
<g id="node49" class="node">
<title>30</title>
<ellipse fill="none" stroke="#000000" cx="342" cy="-2124" rx="18" ry="18"/>
<text text-anchor="middle" x="342" y="-2122.1" font-family="Bitstream Vera Sans" font-size="8.00" fill="#000000">30</text>
</g>
<!-- 30&#45;&gt;31 -->
<g id="edge45" class="edge">
<title>30&#45;&gt;31</title>
<path fill="none" stroke="#000000" d="M342,-2105.6198C342,-2095.5034 342,-2082.7309 342,-2071.3637"/>
<polygon fill="#000000" stroke="#000000" points="345.5001,-2071.0284 342,-2061.0284 338.5001,-2071.0284 345.5001,-2071.0284"/>
<text text-anchor="middle" x="347.5" y="-2081.6" font-family="Bitstream Vera Sans" font-size="8.00" fill="#000000">50</text>
</g>
<!-- 37&#45;&gt;38 -->
<g id="edge46" class="edge">
<title>37&#45;&gt;38</title>
<path fill="none" stroke="#000000" d="M126,-1619.6198C126,-1609.5034 126,-1596.7309 126,-1585.3637"/>
<polygon fill="#000000" stroke="#000000" points="129.5001,-1585.0284 126,-1575.0284 122.5001,-1585.0284 129.5001,-1585.0284"/>
<text text-anchor="middle" x="131.5" y="-1595.6" font-family="Bitstream Vera Sans" font-size="8.00" fill="#000000">50</text>
</g>
<!-- 35 -->
<g id="node51" class="node">
<title>35</title>
<ellipse fill="none" stroke="#000000" cx="288" cy="-1800" rx="18" ry="18"/>
<text text-anchor="middle" x="288" y="-1798.1" font-family="Bitstream Vera Sans" font-size="8.00" fill="#000000">35</text>
</g>
<!-- 35&#45;&gt;36 -->
<g id="edge48" class="edge">
<title>35&#45;&gt;36</title>
<path fill="none" stroke="#000000" d="M273.4346,-1789.076C255.3182,-1775.4886 224.1812,-1752.1359 202.8692,-1736.1519"/>
<polygon fill="#000000" stroke="#000000" points="204.7796,-1733.2097 194.6795,-1730.0096 200.5795,-1738.8097 204.7796,-1733.2097"/>
<text text-anchor="middle" x="242.5" y="-1757.6" font-family="Bitstream Vera Sans" font-size="8.00" fill="#000000">50</text>
</g>
<!-- 34 -->
<g id="node52" class="node">
<title>34</title>
<ellipse fill="none" stroke="#000000" cx="342" cy="-1800" rx="18" ry="18"/>
<text text-anchor="middle" x="342" y="-1798.1" font-family="Bitstream Vera Sans" font-size="8.00" fill="#000000">34</text>
</g>
<!-- 34&#45;&gt;36 -->
<g id="edge49" class="edge">
<title>34&#45;&gt;36</title>
<path fill="none" stroke="#000000" d="M327.1164,-1789.4957C323.2437,-1786.9251 319.0265,-1784.2645 315,-1782 278.4586,-1761.4491 234.0681,-1741.6653 206.4183,-1729.9164"/>
<polygon fill="#000000" stroke="#000000" points="207.609,-1726.6202 197.0345,-1725.9648 204.8923,-1733.0715 207.609,-1726.6202"/>
<text text-anchor="middle" x="283.5" y="-1757.6" font-family="Bitstream Vera Sans" font-size="8.00" fill="#000000">50</text>
</g>
<!-- 33&#45;&gt;34 -->
<g id="edge50" class="edge">
<title>33&#45;&gt;34</title>
<path fill="none" stroke="#000000" d="M342,-1862.6198C342,-1852.5034 342,-1839.7309 342,-1828.3637"/>
<polygon fill="#000000" stroke="#000000" points="345.5001,-1828.0284 342,-1818.0284 338.5001,-1828.0284 345.5001,-1828.0284"/>
<text text-anchor="middle" x="347.5" y="-1838.6" font-family="Bitstream Vera Sans" font-size="8.00" fill="#000000">50</text>
</g>
</g>
</svg>
