<?xml version="1.0" encoding="UTF-8" standalone="no"?>
<!DOCTYPE svg PUBLIC "-//W3C//DTD SVG 1.1//EN"
 "http://www.w3.org/Graphics/SVG/1.1/DTD/svg11.dtd">
<!-- Generated by graphviz version 2.40.1 (20161225.0304)
 -->
<!-- Title: G Pages: 1 -->
<svg width="233pt" height="3122pt"
 viewBox="0.00 0.00 233.00 3122.00" xmlns="http://www.w3.org/2000/svg" xmlns:xlink="http://www.w3.org/1999/xlink">
<g id="graph0" class="graph" transform="scale(1 1) rotate(0) translate(4 3118)">
<title>G</title>
<polygon fill="#ffffff" stroke="transparent" points="-4,4 -4,-3118 229,-3118 229,4 -4,4"/>
<!-- 56 -->
<g id="node1" class="node">
<title>56</title>
<ellipse fill="none" stroke="#000000" cx="207" cy="-2691" rx="18" ry="18"/>
<text text-anchor="middle" x="207" y="-2689.1" font-family="Bitstream Vera Sans" font-size="8.00" fill="#000000">56</text>
</g>
<!-- 55 -->
<g id="node2" class="node">
<title>55</title>
<ellipse fill="none" stroke="#000000" cx="207" cy="-2610" rx="18" ry="18"/>
<text text-anchor="middle" x="207" y="-2608.1" font-family="Bitstream Vera Sans" font-size="8.00" fill="#000000">55</text>
</g>
<!-- 56&#45;&gt;55 -->
<g id="edge1" class="edge">
<title>56&#45;&gt;55</title>
<path fill="none" stroke="#000000" d="M207,-2672.6198C207,-2662.5034 207,-2649.7309 207,-2638.3637"/>
<polygon fill="#000000" stroke="#000000" points="210.5001,-2638.0284 207,-2628.0284 203.5001,-2638.0284 210.5001,-2638.0284"/>
<text text-anchor="middle" x="212.5" y="-2648.6" font-family="Bitstream Vera Sans" font-size="8.00" fill="#000000">50</text>
</g>
<!-- 54 -->
<g id="node3" class="node">
<title>54</title>
<ellipse fill="none" stroke="#000000" cx="207" cy="-2529" rx="18" ry="18"/>
<text text-anchor="middle" x="207" y="-2527.1" font-family="Bitstream Vera Sans" font-size="8.00" fill="#000000">54</text>
</g>
<!-- 55&#45;&gt;54 -->
<g id="edge62" class="edge">
<title>55&#45;&gt;54</title>
<path fill="none" stroke="#000000" d="M207,-2591.6198C207,-2581.5034 207,-2568.7309 207,-2557.3637"/>
<polygon fill="#000000" stroke="#000000" points="210.5001,-2557.0284 207,-2547.0284 203.5001,-2557.0284 210.5001,-2557.0284"/>
<text text-anchor="middle" x="212.5" y="-2567.6" font-family="Bitstream Vera Sans" font-size="8.00" fill="#000000">50</text>
</g>
<!-- 53 -->
<g id="node4" class="node">
<title>53</title>
<ellipse fill="none" stroke="#000000" cx="207" cy="-2448" rx="18" ry="18"/>
<text text-anchor="middle" x="207" y="-2446.1" font-family="Bitstream Vera Sans" font-size="8.00" fill="#000000">53</text>
</g>
<!-- 54&#45;&gt;53 -->
<g id="edge2" class="edge">
<title>54&#45;&gt;53</title>
<path fill="none" stroke="#000000" d="M207,-2510.6198C207,-2500.5034 207,-2487.7309 207,-2476.3637"/>
<polygon fill="#000000" stroke="#000000" points="210.5001,-2476.0284 207,-2466.0284 203.5001,-2476.0284 210.5001,-2476.0284"/>
<text text-anchor="middle" x="212.5" y="-2486.6" font-family="Bitstream Vera Sans" font-size="8.00" fill="#000000">50</text>
</g>
<!-- 52 -->
<g id="node18" class="node">
<title>52</title>
<ellipse fill="none" stroke="#000000" cx="207" cy="-2367" rx="18" ry="18"/>
<text text-anchor="middle" x="207" y="-2365.1" font-family="Bitstream Vera Sans" font-size="8.00" fill="#000000">52</text>
</g>
<!-- 53&#45;&gt;52 -->
<g id="edge13" class="edge">
<title>53&#45;&gt;52</title>
<path fill="none" stroke="#000000" d="M207,-2429.6198C207,-2419.5034 207,-2406.7309 207,-2395.3637"/>
<polygon fill="#000000" stroke="#000000" points="210.5001,-2395.0284 207,-2385.0284 203.5001,-2395.0284 210.5001,-2395.0284"/>
<text text-anchor="middle" x="212.5" y="-2405.6" font-family="Bitstream Vera Sans" font-size="8.00" fill="#000000">50</text>
</g>
<!-- 42 -->
<g id="node5" class="node">
<title>42</title>
<ellipse fill="none" stroke="#000000" cx="207" cy="-1557" rx="18" ry="18"/>
<text text-anchor="middle" x="207" y="-1555.1" font-family="Bitstream Vera Sans" font-size="8.00" fill="#000000">42</text>
</g>
<!-- 41 -->
<g id="node6" class="node">
<title>41</title>
<ellipse fill="none" stroke="#000000" cx="207" cy="-1476" rx="18" ry="18"/>
<text text-anchor="middle" x="207" y="-1474.1" font-family="Bitstream Vera Sans" font-size="8.00" fill="#000000">41</text>
</g>
<!-- 42&#45;&gt;41 -->
<g id="edge3" class="edge">
<title>42&#45;&gt;41</title>
<path fill="none" stroke="#000000" d="M207,-1538.6198C207,-1528.5034 207,-1515.7309 207,-1504.3637"/>
<polygon fill="#000000" stroke="#000000" points="210.5001,-1504.0284 207,-1494.0284 203.5001,-1504.0284 210.5001,-1504.0284"/>
<text text-anchor="middle" x="212.5" y="-1514.6" font-family="Bitstream Vera Sans" font-size="8.00" fill="#000000">50</text>
</g>
<!-- 40 -->
<g id="node34" class="node">
<title>40</title>
<ellipse fill="none" stroke="#000000" cx="207" cy="-1395" rx="18" ry="18"/>
<text text-anchor="middle" x="207" y="-1393.1" font-family="Bitstream Vera Sans" font-size="8.00" fill="#000000">40</text>
</g>
<!-- 41&#45;&gt;40 -->
<g id="edge29" class="edge">
<title>41&#45;&gt;40</title>
<path fill="none" stroke="#000000" d="M207,-1457.6198C207,-1447.5034 207,-1434.7309 207,-1423.3637"/>
<polygon fill="#000000" stroke="#000000" points="210.5001,-1423.0284 207,-1413.0284 203.5001,-1423.0284 210.5001,-1423.0284"/>
<text text-anchor="middle" x="212.5" y="-1433.6" font-family="Bitstream Vera Sans" font-size="8.00" fill="#000000">50</text>
</g>
<!-- 48 -->
<g id="node7" class="node">
<title>48</title>
<ellipse fill="none" stroke="#000000" cx="207" cy="-2043" rx="18" ry="18"/>
<text text-anchor="middle" x="207" y="-2041.1" font-family="Bitstream Vera Sans" font-size="8.00" fill="#000000">48</text>
</g>
<!-- 47 -->
<g id="node8" class="node">
<title>47</title>
<ellipse fill="none" stroke="#000000" cx="207" cy="-1962" rx="18" ry="18"/>
<text text-anchor="middle" x="207" y="-1960.1" font-family="Bitstream Vera Sans" font-size="8.00" fill="#000000">47</text>
</g>
<!-- 48&#45;&gt;47 -->
<g id="edge4" class="edge">
<title>48&#45;&gt;47</title>
<path fill="none" stroke="#000000" d="M207,-2024.6198C207,-2014.5034 207,-2001.7309 207,-1990.3637"/>
<polygon fill="#000000" stroke="#000000" points="210.5001,-1990.0284 207,-1980.0284 203.5001,-1990.0284 210.5001,-1990.0284"/>
<text text-anchor="middle" x="212.5" y="-2000.6" font-family="Bitstream Vera Sans" font-size="8.00" fill="#000000">50</text>
</g>
<!-- 46 -->
<g id="node29" class="node">
<title>46</title>
<ellipse fill="none" stroke="#000000" cx="207" cy="-1881" rx="18" ry="18"/>
<text text-anchor="middle" x="207" y="-1879.1" font-family="Bitstream Vera Sans" font-size="8.00" fill="#000000">46</text>
</g>
<!-- 47&#45;&gt;46 -->
<g id="edge23" class="edge">
<title>47&#45;&gt;46</title>
<path fill="none" stroke="#000000" d="M207,-1943.6198C207,-1933.5034 207,-1920.7309 207,-1909.3637"/>
<polygon fill="#000000" stroke="#000000" points="210.5001,-1909.0284 207,-1899.0284 203.5001,-1909.0284 210.5001,-1909.0284"/>
<text text-anchor="middle" x="212.5" y="-1919.6" font-family="Bitstream Vera Sans" font-size="8.00" fill="#000000">50</text>
</g>
<!-- 43 -->
<g id="node9" class="node">
<title>43</title>
<ellipse fill="none" stroke="#000000" cx="207" cy="-1638" rx="18" ry="18"/>
<text text-anchor="middle" x="207" y="-1636.1" font-family="Bitstream Vera Sans" font-size="8.00" fill="#000000">43</text>
</g>
<!-- 43&#45;&gt;42 -->
<g id="edge5" class="edge">
<title>43&#45;&gt;42</title>
<path fill="none" stroke="#000000" d="M207,-1619.6198C207,-1609.5034 207,-1596.7309 207,-1585.3637"/>
<polygon fill="#000000" stroke="#000000" points="210.5001,-1585.0284 207,-1575.0284 203.5001,-1585.0284 210.5001,-1585.0284"/>
<text text-anchor="middle" x="212.5" y="-1595.6" font-family="Bitstream Vera Sans" font-size="8.00" fill="#000000">50</text>
</g>
<!-- 60 -->
<g id="node10" class="node">
<title>60</title>
<ellipse fill="none" stroke="#000000" cx="207" cy="-3015" rx="18" ry="18"/>
<text text-anchor="middle" x="207" y="-3013.1" font-family="Bitstream Vera Sans" font-size="8.00" fill="#000000">60</text>
</g>
<!-- 59 -->
<g id="node11" class="node">
<title>59</title>
<ellipse fill="none" stroke="#000000" cx="207" cy="-2934" rx="18" ry="18"/>
<text text-anchor="middle" x="207" y="-2932.1" font-family="Bitstream Vera Sans" font-size="8.00" fill="#000000">59</text>
</g>
<!-- 60&#45;&gt;59 -->
<g id="edge6" class="edge">
<title>60&#45;&gt;59</title>
<path fill="none" stroke="#000000" d="M207,-2996.6198C207,-2986.5034 207,-2973.7309 207,-2962.3637"/>
<polygon fill="#000000" stroke="#000000" points="210.5001,-2962.0284 207,-2952.0284 203.5001,-2962.0284 210.5001,-2962.0284"/>
<text text-anchor="middle" x="212.5" y="-2972.6" font-family="Bitstream Vera Sans" font-size="8.00" fill="#000000">50</text>
</g>
<!-- 58 -->
<g id="node51" class="node">
<title>58</title>
<ellipse fill="none" stroke="#000000" cx="207" cy="-2853" rx="18" ry="18"/>
<text text-anchor="middle" x="207" y="-2851.1" font-family="Bitstream Vera Sans" font-size="8.00" fill="#000000">58</text>
</g>
<!-- 59&#45;&gt;58 -->
<g id="edge43" class="edge">
<title>59&#45;&gt;58</title>
<path fill="none" stroke="#000000" d="M207,-2915.6198C207,-2905.5034 207,-2892.7309 207,-2881.3637"/>
<polygon fill="#000000" stroke="#000000" points="210.5001,-2881.0284 207,-2871.0284 203.5001,-2881.0284 210.5001,-2881.0284"/>
<text text-anchor="middle" x="212.5" y="-2891.6" font-family="Bitstream Vera Sans" font-size="8.00" fill="#000000">50</text>
</g>
<!-- 61 -->
<g id="node12" class="node">
<title>61</title>
<ellipse fill="none" stroke="#000000" cx="207" cy="-3096" rx="18" ry="18"/>
<text text-anchor="middle" x="207" y="-3094.1" font-family="Bitstream Vera Sans" font-size="8.00" fill="#000000">61</text>
</g>
<!-- 61&#45;&gt;60 -->
<g id="edge7" class="edge">
<title>61&#45;&gt;60</title>
<path fill="none" stroke="#000000" d="M207,-3077.6198C207,-3067.5034 207,-3054.7309 207,-3043.3637"/>
<polygon fill="#000000" stroke="#000000" points="210.5001,-3043.0284 207,-3033.0284 203.5001,-3043.0284 210.5001,-3043.0284"/>
<text text-anchor="middle" x="212.5" y="-3053.6" font-family="Bitstream Vera Sans" font-size="8.00" fill="#000000">50</text>
</g>
<!-- 62 -->
<g id="node13" class="node">
<title>62</title>
<ellipse fill="none" stroke="#000000" cx="99" cy="-990" rx="18" ry="18"/>
<text text-anchor="middle" x="99" y="-988.1" font-family="Bitstream Vera Sans" font-size="8.00" fill="#000000">62</text>
</g>
<!-- 13 -->
<g id="node14" class="node">
<title>13</title>
<ellipse fill="none" stroke="#000000" cx="126" cy="-909" rx="18" ry="18"/>
<text text-anchor="middle" x="126" y="-907.1" font-family="Bitstream Vera Sans" font-size="8.00" fill="#000000">13</text>
</g>
<!-- 62&#45;&gt;13 -->
<g id="edge8" class="edge">
<title>62&#45;&gt;13</title>
<path fill="none" stroke="#000000" d="M104.726,-972.822C108.3057,-962.0829 112.9916,-948.0252 117.0542,-935.8374"/>
<polygon fill="#000000" stroke="#000000" points="120.4403,-936.7469 120.2822,-926.1533 113.7995,-934.5333 120.4403,-936.7469"/>
<text text-anchor="middle" x="119.5" y="-947.6" font-family="Bitstream Vera Sans" font-size="8.00" fill="#000000">50</text>
</g>
<!-- 12 -->
<g id="node54" class="node">
<title>12</title>
<ellipse fill="none" stroke="#000000" cx="126" cy="-828" rx="18" ry="18"/>
<text text-anchor="middle" x="126" y="-826.1" font-family="Bitstream Vera Sans" font-size="8.00" fill="#000000">12</text>
</g>
<!-- 13&#45;&gt;12 -->
<g id="edge47" class="edge">
<title>13&#45;&gt;12</title>
<path fill="none" stroke="#000000" d="M126,-890.6198C126,-880.5034 126,-867.7309 126,-856.3637"/>
<polygon fill="#000000" stroke="#000000" points="129.5001,-856.0284 126,-846.0284 122.5001,-856.0284 129.5001,-856.0284"/>
<text text-anchor="middle" x="131.5" y="-866.6" font-family="Bitstream Vera Sans" font-size="8.00" fill="#000000">50</text>
</g>
<!-- 63 -->
<g id="node15" class="node">
<title>63</title>
<ellipse fill="none" stroke="#000000" cx="99" cy="-1071" rx="18" ry="18"/>
<text text-anchor="middle" x="99" y="-1069.1" font-family="Bitstream Vera Sans" font-size="8.00" fill="#000000">63</text>
</g>
<!-- 63&#45;&gt;62 -->
<g id="edge9" class="edge">
<title>63&#45;&gt;62</title>
<path fill="none" stroke="#000000" d="M99,-1052.6198C99,-1042.5034 99,-1029.7309 99,-1018.3637"/>
<polygon fill="#000000" stroke="#000000" points="102.5001,-1018.0284 99,-1008.0284 95.5001,-1018.0284 102.5001,-1018.0284"/>
<text text-anchor="middle" x="104.5" y="-1028.6" font-family="Bitstream Vera Sans" font-size="8.00" fill="#000000">50</text>
</g>
<!-- 64 -->
<g id="node16" class="node">
<title>64</title>
<ellipse fill="none" stroke="#000000" cx="99" cy="-1152" rx="18" ry="18"/>
<text text-anchor="middle" x="99" y="-1150.1" font-family="Bitstream Vera Sans" font-size="8.00" fill="#000000">64</text>
</g>
<!-- 64&#45;&gt;63 -->
<g id="edge10" class="edge">
<title>64&#45;&gt;63</title>
<path fill="none" stroke="#000000" d="M99,-1133.6198C99,-1123.5034 99,-1110.7309 99,-1099.3637"/>
<polygon fill="#000000" stroke="#000000" points="102.5001,-1099.0284 99,-1089.0284 95.5001,-1099.0284 102.5001,-1099.0284"/>
<text text-anchor="middle" x="104.5" y="-1109.6" font-family="Bitstream Vera Sans" font-size="8.00" fill="#000000">50</text>
</g>
<!-- 49 -->
<g id="node17" class="node">
<title>49</title>
<ellipse fill="none" stroke="#000000" cx="207" cy="-2124" rx="18" ry="18"/>
<text text-anchor="middle" x="207" y="-2122.1" font-family="Bitstream Vera Sans" font-size="8.00" fill="#000000">49</text>
</g>
<!-- 49&#45;&gt;48 -->
<g id="edge11" class="edge">
<title>49&#45;&gt;48</title>
<path fill="none" stroke="#000000" d="M207,-2105.6198C207,-2095.5034 207,-2082.7309 207,-2071.3637"/>
<polygon fill="#000000" stroke="#000000" points="210.5001,-2071.0284 207,-2061.0284 203.5001,-2071.0284 210.5001,-2071.0284"/>
<text text-anchor="middle" x="212.5" y="-2081.6" font-family="Bitstream Vera Sans" font-size="8.00" fill="#000000">50</text>
</g>
<!-- 51 -->
<g id="node19" class="node">
<title>51</title>
<ellipse fill="none" stroke="#000000" cx="207" cy="-2286" rx="18" ry="18"/>
<text text-anchor="middle" x="207" y="-2284.1" font-family="Bitstream Vera Sans" font-size="8.00" fill="#000000">51</text>
</g>
<!-- 52&#45;&gt;51 -->
<g id="edge12" class="edge">
<title>52&#45;&gt;51</title>
<path fill="none" stroke="#000000" d="M207,-2348.6198C207,-2338.5034 207,-2325.7309 207,-2314.3637"/>
<polygon fill="#000000" stroke="#000000" points="210.5001,-2314.0284 207,-2304.0284 203.5001,-2314.0284 210.5001,-2314.0284"/>
<text text-anchor="middle" x="212.5" y="-2324.6" font-family="Bitstream Vera Sans" font-size="8.00" fill="#000000">50</text>
</g>
<!-- 50 -->
<g id="node47" class="node">
<title>50</title>
<ellipse fill="none" stroke="#000000" cx="207" cy="-2205" rx="18" ry="18"/>
<text text-anchor="middle" x="207" y="-2203.1" font-family="Bitstream Vera Sans" font-size="8.00" fill="#000000">50</text>
</g>
<!-- 51&#45;&gt;50 -->
<g id="edge39" class="edge">
<title>51&#45;&gt;50</title>
<path fill="none" stroke="#000000" d="M207,-2267.6198C207,-2257.5034 207,-2244.7309 207,-2233.3637"/>
<polygon fill="#000000" stroke="#000000" points="210.5001,-2233.0284 207,-2223.0284 203.5001,-2233.0284 210.5001,-2233.0284"/>
<text text-anchor="middle" x="212.5" y="-2243.6" font-family="Bitstream Vera Sans" font-size="8.00" fill="#000000">50</text>
</g>
<!-- 24 -->
<g id="node20" class="node">
<title>24</title>
<ellipse fill="none" stroke="#000000" cx="153" cy="-1800" rx="18" ry="18"/>
<text text-anchor="middle" x="153" y="-1798.1" font-family="Bitstream Vera Sans" font-size="8.00" fill="#000000">24</text>
</g>
<!-- 23 -->
<g id="node21" class="node">
<title>23</title>
<ellipse fill="none" stroke="#000000" cx="153" cy="-1719" rx="18" ry="18"/>
<text text-anchor="middle" x="153" y="-1717.1" font-family="Bitstream Vera Sans" font-size="8.00" fill="#000000">23</text>
</g>
<!-- 24&#45;&gt;23 -->
<g id="edge14" class="edge">
<title>24&#45;&gt;23</title>
<path fill="none" stroke="#000000" d="M153,-1781.6198C153,-1771.5034 153,-1758.7309 153,-1747.3637"/>
<polygon fill="#000000" stroke="#000000" points="156.5001,-1747.0284 153,-1737.0284 149.5001,-1747.0284 156.5001,-1747.0284"/>
<text text-anchor="middle" x="158.5" y="-1757.6" font-family="Bitstream Vera Sans" font-size="8.00" fill="#000000">50</text>
</g>
<!-- 22 -->
<g id="node28" class="node">
<title>22</title>
<ellipse fill="none" stroke="#000000" cx="153" cy="-1638" rx="18" ry="18"/>
<text text-anchor="middle" x="153" y="-1636.1" font-family="Bitstream Vera Sans" font-size="8.00" fill="#000000">22</text>
</g>
<!-- 23&#45;&gt;22 -->
<g id="edge21" class="edge">
<title>23&#45;&gt;22</title>
<path fill="none" stroke="#000000" d="M153,-1700.6198C153,-1690.5034 153,-1677.7309 153,-1666.3637"/>
<polygon fill="#000000" stroke="#000000" points="156.5001,-1666.0284 153,-1656.0284 149.5001,-1666.0284 156.5001,-1666.0284"/>
<text text-anchor="middle" x="158.5" y="-1676.6" font-family="Bitstream Vera Sans" font-size="8.00" fill="#000000">50</text>
</g>
<!-- 25 -->
<g id="node22" class="node">
<title>25</title>
<ellipse fill="none" stroke="#000000" cx="153" cy="-1881" rx="18" ry="18"/>
<text text-anchor="middle" x="153" y="-1879.1" font-family="Bitstream Vera Sans" font-size="8.00" fill="#000000">25</text>
</g>
<!-- 25&#45;&gt;24 -->
<g id="edge15" class="edge">
<title>25&#45;&gt;24</title>
<path fill="none" stroke="#000000" d="M153,-1862.6198C153,-1852.5034 153,-1839.7309 153,-1828.3637"/>
<polygon fill="#000000" stroke="#000000" points="156.5001,-1828.0284 153,-1818.0284 149.5001,-1828.0284 156.5001,-1828.0284"/>
<text text-anchor="middle" x="158.5" y="-1838.6" font-family="Bitstream Vera Sans" font-size="8.00" fill="#000000">50</text>
</g>
<!-- 26 -->
<g id="node23" class="node">
<title>26</title>
<ellipse fill="none" stroke="#000000" cx="153" cy="-1962" rx="18" ry="18"/>
<text text-anchor="middle" x="153" y="-1960.1" font-family="Bitstream Vera Sans" font-size="8.00" fill="#000000">26</text>
</g>
<!-- 26&#45;&gt;25 -->
<g id="edge16" class="edge">
<title>26&#45;&gt;25</title>
<path fill="none" stroke="#000000" d="M153,-1943.6198C153,-1933.5034 153,-1920.7309 153,-1909.3637"/>
<polygon fill="#000000" stroke="#000000" points="156.5001,-1909.0284 153,-1899.0284 149.5001,-1909.0284 156.5001,-1909.0284"/>
<text text-anchor="middle" x="158.5" y="-1919.6" font-family="Bitstream Vera Sans" font-size="8.00" fill="#000000">50</text>
</g>
<!-- 27 -->
<g id="node24" class="node">
<title>27</title>
<ellipse fill="none" stroke="#000000" cx="153" cy="-2043" rx="18" ry="18"/>
<text text-anchor="middle" x="153" y="-2041.1" font-family="Bitstream Vera Sans" font-size="8.00" fill="#000000">27</text>
</g>
<!-- 27&#45;&gt;26 -->
<g id="edge17" class="edge">
<title>27&#45;&gt;26</title>
<path fill="none" stroke="#000000" d="M153,-2024.6198C153,-2014.5034 153,-2001.7309 153,-1990.3637"/>
<polygon fill="#000000" stroke="#000000" points="156.5001,-1990.0284 153,-1980.0284 149.5001,-1990.0284 156.5001,-1990.0284"/>
<text text-anchor="middle" x="158.5" y="-2000.6" font-family="Bitstream Vera Sans" font-size="8.00" fill="#000000">50</text>
</g>
<!-- 20 -->
<g id="node25" class="node">
<title>20</title>
<ellipse fill="none" stroke="#000000" cx="153" cy="-1476" rx="18" ry="18"/>
<text text-anchor="middle" x="153" y="-1474.1" font-family="Bitstream Vera Sans" font-size="8.00" fill="#000000">20</text>
</g>
<!-- 19 -->
<g id="node26" class="node">
<title>19</title>
<ellipse fill="none" stroke="#000000" cx="153" cy="-1395" rx="18" ry="18"/>
<text text-anchor="middle" x="153" y="-1393.1" font-family="Bitstream Vera Sans" font-size="8.00" fill="#000000">19</text>
</g>
<!-- 20&#45;&gt;19 -->
<g id="edge18" class="edge">
<title>20&#45;&gt;19</title>
<path fill="none" stroke="#000000" d="M153,-1457.6198C153,-1447.5034 153,-1434.7309 153,-1423.3637"/>
<polygon fill="#000000" stroke="#000000" points="156.5001,-1423.0284 153,-1413.0284 149.5001,-1423.0284 156.5001,-1423.0284"/>
<text text-anchor="middle" x="158.5" y="-1433.6" font-family="Bitstream Vera Sans" font-size="8.00" fill="#000000">50</text>
</g>
<!-- 18 -->
<g id="node58" class="node">
<title>18</title>
<ellipse fill="none" stroke="#000000" cx="153" cy="-1314" rx="18" ry="18"/>
<text text-anchor="middle" x="153" y="-1312.1" font-family="Bitstream Vera Sans" font-size="8.00" fill="#000000">18</text>
</g>
<!-- 19&#45;&gt;18 -->
<g id="edge53" class="edge">
<title>19&#45;&gt;18</title>
<path fill="none" stroke="#000000" d="M153,-1376.6198C153,-1366.5034 153,-1353.7309 153,-1342.3637"/>
<polygon fill="#000000" stroke="#000000" points="156.5001,-1342.0284 153,-1332.0284 149.5001,-1342.0284 156.5001,-1342.0284"/>
<text text-anchor="middle" x="158.5" y="-1352.6" font-family="Bitstream Vera Sans" font-size="8.00" fill="#000000">50</text>
</g>
<!-- 21 -->
<g id="node27" class="node">
<title>21</title>
<ellipse fill="none" stroke="#000000" cx="153" cy="-1557" rx="18" ry="18"/>
<text text-anchor="middle" x="153" y="-1555.1" font-family="Bitstream Vera Sans" font-size="8.00" fill="#000000">21</text>
</g>
<!-- 21&#45;&gt;20 -->
<g id="edge19" class="edge">
<title>21&#45;&gt;20</title>
<path fill="none" stroke="#000000" d="M153,-1538.6198C153,-1528.5034 153,-1515.7309 153,-1504.3637"/>
<polygon fill="#000000" stroke="#000000" points="156.5001,-1504.0284 153,-1494.0284 149.5001,-1504.0284 156.5001,-1504.0284"/>
<text text-anchor="middle" x="158.5" y="-1514.6" font-family="Bitstream Vera Sans" font-size="8.00" fill="#000000">50</text>
</g>
<!-- 22&#45;&gt;21 -->
<g id="edge20" class="edge">
<title>22&#45;&gt;21</title>
<path fill="none" stroke="#000000" d="M153,-1619.6198C153,-1609.5034 153,-1596.7309 153,-1585.3637"/>
<polygon fill="#000000" stroke="#000000" points="156.5001,-1585.0284 153,-1575.0284 149.5001,-1585.0284 156.5001,-1585.0284"/>
<text text-anchor="middle" x="158.5" y="-1595.6" font-family="Bitstream Vera Sans" font-size="8.00" fill="#000000">50</text>
</g>
<!-- 45 -->
<g id="node30" class="node">
<title>45</title>
<ellipse fill="none" stroke="#000000" cx="207" cy="-1800" rx="18" ry="18"/>
<text text-anchor="middle" x="207" y="-1798.1" font-family="Bitstream Vera Sans" font-size="8.00" fill="#000000">45</text>
</g>
<!-- 46&#45;&gt;45 -->
<g id="edge22" class="edge">
<title>46&#45;&gt;45</title>
<path fill="none" stroke="#000000" d="M207,-1862.6198C207,-1852.5034 207,-1839.7309 207,-1828.3637"/>
<polygon fill="#000000" stroke="#000000" points="210.5001,-1828.0284 207,-1818.0284 203.5001,-1828.0284 210.5001,-1828.0284"/>
<text text-anchor="middle" x="212.5" y="-1838.6" font-family="Bitstream Vera Sans" font-size="8.00" fill="#000000">50</text>
</g>
<!-- 44 -->
<g id="node31" class="node">
<title>44</title>
<ellipse fill="none" stroke="#000000" cx="207" cy="-1719" rx="18" ry="18"/>
<text text-anchor="middle" x="207" y="-1717.1" font-family="Bitstream Vera Sans" font-size="8.00" fill="#000000">44</text>
</g>
<!-- 45&#45;&gt;44 -->
<g id="edge25" class="edge">
<title>45&#45;&gt;44</title>
<path fill="none" stroke="#000000" d="M207,-1781.6198C207,-1771.5034 207,-1758.7309 207,-1747.3637"/>
<polygon fill="#000000" stroke="#000000" points="210.5001,-1747.0284 207,-1737.0284 203.5001,-1747.0284 210.5001,-1747.0284"/>
<text text-anchor="middle" x="212.5" y="-1757.6" font-family="Bitstream Vera Sans" font-size="8.00" fill="#000000">50</text>
</g>
<!-- 44&#45;&gt;43 -->
<g id="edge24" class="edge">
<title>44&#45;&gt;43</title>
<path fill="none" stroke="#000000" d="M207,-1700.6198C207,-1690.5034 207,-1677.7309 207,-1666.3637"/>
<polygon fill="#000000" stroke="#000000" points="210.5001,-1666.0284 207,-1656.0284 203.5001,-1666.0284 210.5001,-1666.0284"/>
<text text-anchor="middle" x="212.5" y="-1676.6" font-family="Bitstream Vera Sans" font-size="8.00" fill="#000000">50</text>
</g>
<!-- 28 -->
<g id="node32" class="node">
<title>28</title>
<ellipse fill="none" stroke="#000000" cx="153" cy="-2124" rx="18" ry="18"/>
<text text-anchor="middle" x="153" y="-2122.1" font-family="Bitstream Vera Sans" font-size="8.00" fill="#000000">28</text>
</g>
<!-- 28&#45;&gt;27 -->
<g id="edge26" class="edge">
<title>28&#45;&gt;27</title>
<path fill="none" stroke="#000000" d="M153,-2105.6198C153,-2095.5034 153,-2082.7309 153,-2071.3637"/>
<polygon fill="#000000" stroke="#000000" points="156.5001,-2071.0284 153,-2061.0284 149.5001,-2071.0284 156.5001,-2071.0284"/>
<text text-anchor="middle" x="158.5" y="-2081.6" font-family="Bitstream Vera Sans" font-size="8.00" fill="#000000">50</text>
</g>
<!-- 29 -->
<g id="node33" class="node">
<title>29</title>
<ellipse fill="none" stroke="#000000" cx="153" cy="-2205" rx="18" ry="18"/>
<text text-anchor="middle" x="153" y="-2203.1" font-family="Bitstream Vera Sans" font-size="8.00" fill="#000000">29</text>
</g>
<!-- 29&#45;&gt;28 -->
<g id="edge27" class="edge">
<title>29&#45;&gt;28</title>
<path fill="none" stroke="#000000" d="M153,-2186.6198C153,-2176.5034 153,-2163.7309 153,-2152.3637"/>
<polygon fill="#000000" stroke="#000000" points="156.5001,-2152.0284 153,-2142.0284 149.5001,-2152.0284 156.5001,-2152.0284"/>
<text text-anchor="middle" x="158.5" y="-2162.6" font-family="Bitstream Vera Sans" font-size="8.00" fill="#000000">50</text>
</g>
<!-- 39 -->
<g id="node35" class="node">
<title>39</title>
<ellipse fill="none" stroke="#000000" cx="207" cy="-1314" rx="18" ry="18"/>
<text text-anchor="middle" x="207" y="-1312.1" font-family="Bitstream Vera Sans" font-size="8.00" fill="#000000">39</text>
</g>
<!-- 40&#45;&gt;39 -->
<g id="edge28" class="edge">
<title>40&#45;&gt;39</title>
<path fill="none" stroke="#000000" d="M207,-1376.6198C207,-1366.5034 207,-1353.7309 207,-1342.3637"/>
<polygon fill="#000000" stroke="#000000" points="210.5001,-1342.0284 207,-1332.0284 203.5001,-1342.0284 210.5001,-1342.0284"/>
<text text-anchor="middle" x="212.5" y="-1352.6" font-family="Bitstream Vera Sans" font-size="8.00" fill="#000000">50</text>
</g>
<!-- 38 -->
<g id="node48" class="node">
<title>38</title>
<ellipse fill="none" stroke="#000000" cx="207" cy="-1233" rx="18" ry="18"/>
<text text-anchor="middle" x="207" y="-1231.1" font-family="Bitstream Vera Sans" font-size="8.00" fill="#000000">38</text>
</g>
<!-- 39&#45;&gt;38 -->
<g id="edge40" class="edge">
<title>39&#45;&gt;38</title>
<path fill="none" stroke="#000000" d="M207,-1295.6198C207,-1285.5034 207,-1272.7309 207,-1261.3637"/>
<polygon fill="#000000" stroke="#000000" points="210.5001,-1261.0284 207,-1251.0284 203.5001,-1261.0284 210.5001,-1261.0284"/>
<text text-anchor="middle" x="212.5" y="-1271.6" font-family="Bitstream Vera Sans" font-size="8.00" fill="#000000">50</text>
</g>
<!-- 1 -->
<g id="node36" class="node">
<title>1</title>
<ellipse fill="none" stroke="#000000" cx="18" cy="-828" rx="18" ry="18"/>
<text text-anchor="middle" x="18" y="-826.1" font-family="Bitstream Vera Sans" font-size="8.00" fill="#000000">1</text>
</g>
<!-- 10 -->
<g id="node37" class="node">
<title>10</title>
<ellipse fill="none" stroke="#000000" cx="72" cy="-747" rx="18" ry="18"/>
<text text-anchor="middle" x="72" y="-745.1" font-family="Bitstream Vera Sans" font-size="8.00" fill="#000000">10</text>
</g>
<!-- 1&#45;&gt;10 -->
<g id="edge30" class="edge">
<title>1&#45;&gt;10</title>
<path fill="none" stroke="#000000" d="M28.157,-812.7645C36.0766,-800.8852 47.2151,-784.1773 56.2832,-770.5752"/>
<polygon fill="#000000" stroke="#000000" points="59.2537,-772.4291 61.8886,-762.1672 53.4293,-768.5462 59.2537,-772.4291"/>
<text text-anchor="middle" x="52.5" y="-785.6" font-family="Bitstream Vera Sans" font-size="8.00" fill="#000000">50</text>
</g>
<!-- 9 -->
<g id="node45" class="node">
<title>9</title>
<ellipse fill="none" stroke="#000000" cx="72" cy="-666" rx="18" ry="18"/>
<text text-anchor="middle" x="72" y="-664.1" font-family="Bitstream Vera Sans" font-size="8.00" fill="#000000">9</text>
</g>
<!-- 10&#45;&gt;9 -->
<g id="edge46" class="edge">
<title>10&#45;&gt;9</title>
<path fill="none" stroke="#000000" d="M72,-728.6198C72,-718.5034 72,-705.7309 72,-694.3637"/>
<polygon fill="#000000" stroke="#000000" points="75.5001,-694.0284 72,-684.0284 68.5001,-694.0284 75.5001,-694.0284"/>
<text text-anchor="middle" x="77.5" y="-704.6" font-family="Bitstream Vera Sans" font-size="8.00" fill="#000000">50</text>
</g>
<!-- 3 -->
<g id="node38" class="node">
<title>3</title>
<ellipse fill="none" stroke="#000000" cx="72" cy="-180" rx="18" ry="18"/>
<text text-anchor="middle" x="72" y="-178.1" font-family="Bitstream Vera Sans" font-size="8.00" fill="#000000">3</text>
</g>
<!-- 2 -->
<g id="node39" class="node">
<title>2</title>
<ellipse fill="none" stroke="#000000" cx="72" cy="-99" rx="18" ry="18"/>
<text text-anchor="middle" x="72" y="-97.1" font-family="Bitstream Vera Sans" font-size="8.00" fill="#000000">2</text>
</g>
<!-- 3&#45;&gt;2 -->
<g id="edge31" class="edge">
<title>3&#45;&gt;2</title>
<path fill="none" stroke="#000000" d="M72,-161.6198C72,-151.5034 72,-138.7309 72,-127.3637"/>
<polygon fill="#000000" stroke="#000000" points="75.5001,-127.0284 72,-117.0284 68.5001,-127.0284 75.5001,-127.0284"/>
<text text-anchor="middle" x="77.5" y="-137.6" font-family="Bitstream Vera Sans" font-size="8.00" fill="#000000">50</text>
</g>
<!-- 0 -->
<g id="node40" class="node">
<title>0</title>
<ellipse fill="none" stroke="#000000" cx="72" cy="-18" rx="18" ry="18"/>
<text text-anchor="middle" x="72" y="-16.1" font-family="Bitstream Vera Sans" font-size="8.00" fill="#000000">0</text>
</g>
<!-- 2&#45;&gt;0 -->
<g id="edge32" class="edge">
<title>2&#45;&gt;0</title>
<path fill="none" stroke="#000000" d="M72,-80.6198C72,-70.5034 72,-57.7309 72,-46.3637"/>
<polygon fill="#000000" stroke="#000000" points="75.5001,-46.0284 72,-36.0284 68.5001,-46.0284 75.5001,-46.0284"/>
<text text-anchor="middle" x="77.5" y="-56.6" font-family="Bitstream Vera Sans" font-size="8.00" fill="#000000">50</text>
</g>
<!-- 5 -->
<g id="node41" class="node">
<title>5</title>
<ellipse fill="none" stroke="#000000" cx="72" cy="-342" rx="18" ry="18"/>
<text text-anchor="middle" x="72" y="-340.1" font-family="Bitstream Vera Sans" font-size="8.00" fill="#000000">5</text>
</g>
<!-- 4 -->
<g id="node42" class="node">
<title>4</title>
<ellipse fill="none" stroke="#000000" cx="72" cy="-261" rx="18" ry="18"/>
<text text-anchor="middle" x="72" y="-259.1" font-family="Bitstream Vera Sans" font-size="8.00" fill="#000000">4</text>
</g>
<!-- 5&#45;&gt;4 -->
<g id="edge33" class="edge">
<title>5&#45;&gt;4</title>
<path fill="none" stroke="#000000" d="M72,-323.6198C72,-313.5034 72,-300.7309 72,-289.3637"/>
<polygon fill="#000000" stroke="#000000" points="75.5001,-289.0284 72,-279.0284 68.5001,-289.0284 75.5001,-289.0284"/>
<text text-anchor="middle" x="77.5" y="-299.6" font-family="Bitstream Vera Sans" font-size="8.00" fill="#000000">50</text>
</g>
<!-- 4&#45;&gt;3 -->
<g id="edge34" class="edge">
<title>4&#45;&gt;3</title>
<path fill="none" stroke="#000000" d="M72,-242.6198C72,-232.5034 72,-219.7309 72,-208.3637"/>
<polygon fill="#000000" stroke="#000000" points="75.5001,-208.0284 72,-198.0284 68.5001,-208.0284 75.5001,-208.0284"/>
<text text-anchor="middle" x="77.5" y="-218.6" font-family="Bitstream Vera Sans" font-size="8.00" fill="#000000">50</text>
</g>
<!-- 7 -->
<g id="node43" class="node">
<title>7</title>
<ellipse fill="none" stroke="#000000" cx="72" cy="-504" rx="18" ry="18"/>
<text text-anchor="middle" x="72" y="-502.1" font-family="Bitstream Vera Sans" font-size="8.00" fill="#000000">7</text>
</g>
<!-- 6 -->
<g id="node44" class="node">
<title>6</title>
<ellipse fill="none" stroke="#000000" cx="72" cy="-423" rx="18" ry="18"/>
<text text-anchor="middle" x="72" y="-421.1" font-family="Bitstream Vera Sans" font-size="8.00" fill="#000000">6</text>
</g>
<!-- 7&#45;&gt;6 -->
<g id="edge35" class="edge">
<title>7&#45;&gt;6</title>
<path fill="none" stroke="#000000" d="M72,-485.6198C72,-475.5034 72,-462.7309 72,-451.3637"/>
<polygon fill="#000000" stroke="#000000" points="75.5001,-451.0284 72,-441.0284 68.5001,-451.0284 75.5001,-451.0284"/>
<text text-anchor="middle" x="77.5" y="-461.6" font-family="Bitstream Vera Sans" font-size="8.00" fill="#000000">50</text>
</g>
<!-- 6&#45;&gt;5 -->
<g id="edge36" class="edge">
<title>6&#45;&gt;5</title>
<path fill="none" stroke="#000000" d="M72,-404.6198C72,-394.5034 72,-381.7309 72,-370.3637"/>
<polygon fill="#000000" stroke="#000000" points="75.5001,-370.0284 72,-360.0284 68.5001,-370.0284 75.5001,-370.0284"/>
<text text-anchor="middle" x="77.5" y="-380.6" font-family="Bitstream Vera Sans" font-size="8.00" fill="#000000">50</text>
</g>
<!-- 8 -->
<g id="node46" class="node">
<title>8</title>
<ellipse fill="none" stroke="#000000" cx="72" cy="-585" rx="18" ry="18"/>
<text text-anchor="middle" x="72" y="-583.1" font-family="Bitstream Vera Sans" font-size="8.00" fill="#000000">8</text>
</g>
<!-- 9&#45;&gt;8 -->
<g id="edge37" class="edge">
<title>9&#45;&gt;8</title>
<path fill="none" stroke="#000000" d="M72,-647.6198C72,-637.5034 72,-624.7309 72,-613.3637"/>
<polygon fill="#000000" stroke="#000000" points="75.5001,-613.0284 72,-603.0284 68.5001,-613.0284 75.5001,-613.0284"/>
<text text-anchor="middle" x="77.5" y="-623.6" font-family="Bitstream Vera Sans" font-size="8.00" fill="#000000">50</text>
</g>
<!-- 8&#45;&gt;7 -->
<g id="edge38" class="edge">
<title>8&#45;&gt;7</title>
<path fill="none" stroke="#000000" d="M72,-566.6198C72,-556.5034 72,-543.7309 72,-532.3637"/>
<polygon fill="#000000" stroke="#000000" points="75.5001,-532.0284 72,-522.0284 68.5001,-532.0284 75.5001,-532.0284"/>
<text text-anchor="middle" x="77.5" y="-542.6" font-family="Bitstream Vera Sans" font-size="8.00" fill="#000000">50</text>
</g>
<!-- 50&#45;&gt;49 -->
<g id="edge65" class="edge">
<title>50&#45;&gt;49</title>
<path fill="none" stroke="#000000" d="M207,-2186.6198C207,-2176.5034 207,-2163.7309 207,-2152.3637"/>
<polygon fill="#000000" stroke="#000000" points="210.5001,-2152.0284 207,-2142.0284 203.5001,-2152.0284 210.5001,-2152.0284"/>
<text text-anchor="middle" x="212.5" y="-2162.6" font-family="Bitstream Vera Sans" font-size="8.00" fill="#000000">50</text>
</g>
<!-- 16 -->
<g id="node50" class="node">
<title>16</title>
<ellipse fill="none" stroke="#000000" cx="153" cy="-1152" rx="18" ry="18"/>
<text text-anchor="middle" x="153" y="-1150.1" font-family="Bitstream Vera Sans" font-size="8.00" fill="#000000">16</text>
</g>
<!-- 38&#45;&gt;16 -->
<g id="edge42" class="edge">
<title>38&#45;&gt;16</title>
<path fill="none" stroke="#000000" d="M196.843,-1217.7645C188.9234,-1205.8852 177.7849,-1189.1773 168.7168,-1175.5752"/>
<polygon fill="#000000" stroke="#000000" points="171.5707,-1173.5462 163.1114,-1167.1672 165.7463,-1177.4291 171.5707,-1173.5462"/>
<text text-anchor="middle" x="186.5" y="-1190.6" font-family="Bitstream Vera Sans" font-size="8.00" fill="#000000">50</text>
</g>
<!-- 65 -->
<g id="node49" class="node">
<title>65</title>
<ellipse fill="none" stroke="#000000" cx="99" cy="-1233" rx="18" ry="18"/>
<text text-anchor="middle" x="99" y="-1231.1" font-family="Bitstream Vera Sans" font-size="8.00" fill="#000000">65</text>
</g>
<!-- 65&#45;&gt;64 -->
<g id="edge41" class="edge">
<title>65&#45;&gt;64</title>
<path fill="none" stroke="#000000" d="M99,-1214.6198C99,-1204.5034 99,-1191.7309 99,-1180.3637"/>
<polygon fill="#000000" stroke="#000000" points="102.5001,-1180.0284 99,-1170.0284 95.5001,-1180.0284 102.5001,-1180.0284"/>
<text text-anchor="middle" x="104.5" y="-1190.6" font-family="Bitstream Vera Sans" font-size="8.00" fill="#000000">50</text>
</g>
<!-- 15 -->
<g id="node55" class="node">
<title>15</title>
<ellipse fill="none" stroke="#000000" cx="153" cy="-1071" rx="18" ry="18"/>
<text text-anchor="middle" x="153" y="-1069.1" font-family="Bitstream Vera Sans" font-size="8.00" fill="#000000">15</text>
</g>
<!-- 16&#45;&gt;15 -->
<g id="edge52" class="edge">
<title>16&#45;&gt;15</title>
<path fill="none" stroke="#000000" d="M153,-1133.6198C153,-1123.5034 153,-1110.7309 153,-1099.3637"/>
<polygon fill="#000000" stroke="#000000" points="156.5001,-1099.0284 153,-1089.0284 149.5001,-1099.0284 156.5001,-1099.0284"/>
<text text-anchor="middle" x="158.5" y="-1109.6" font-family="Bitstream Vera Sans" font-size="8.00" fill="#000000">50</text>
</g>
<!-- 57 -->
<g id="node52" class="node">
<title>57</title>
<ellipse fill="none" stroke="#000000" cx="207" cy="-2772" rx="18" ry="18"/>
<text text-anchor="middle" x="207" y="-2770.1" font-family="Bitstream Vera Sans" font-size="8.00" fill="#000000">57</text>
</g>
<!-- 58&#45;&gt;57 -->
<g id="edge44" class="edge">
<title>58&#45;&gt;57</title>
<path fill="none" stroke="#000000" d="M207,-2834.6198C207,-2824.5034 207,-2811.7309 207,-2800.3637"/>
<polygon fill="#000000" stroke="#000000" points="210.5001,-2800.0284 207,-2790.0284 203.5001,-2800.0284 210.5001,-2800.0284"/>
<text text-anchor="middle" x="212.5" y="-2810.6" font-family="Bitstream Vera Sans" font-size="8.00" fill="#000000">50</text>
</g>
<!-- 57&#45;&gt;56 -->
<g id="edge64" class="edge">
<title>57&#45;&gt;56</title>
<path fill="none" stroke="#000000" d="M207,-2753.6198C207,-2743.5034 207,-2730.7309 207,-2719.3637"/>
<polygon fill="#000000" stroke="#000000" points="210.5001,-2719.0284 207,-2709.0284 203.5001,-2719.0284 210.5001,-2719.0284"/>
<text text-anchor="middle" x="212.5" y="-2729.6" font-family="Bitstream Vera Sans" font-size="8.00" fill="#000000">50</text>
</g>
<!-- 11 -->
<g id="node53" class="node">
<title>11</title>
<ellipse fill="none" stroke="#000000" cx="72" cy="-828" rx="18" ry="18"/>
<text text-anchor="middle" x="72" y="-826.1" font-family="Bitstream Vera Sans" font-size="8.00" fill="#000000">11</text>
</g>
<!-- 11&#45;&gt;10 -->
<g id="edge45" class="edge">
<title>11&#45;&gt;10</title>
<path fill="none" stroke="#000000" d="M72,-809.6198C72,-799.5034 72,-786.7309 72,-775.3637"/>
<polygon fill="#000000" stroke="#000000" points="75.5001,-775.0284 72,-765.0284 68.5001,-775.0284 75.5001,-775.0284"/>
<text text-anchor="middle" x="77.5" y="-785.6" font-family="Bitstream Vera Sans" font-size="8.00" fill="#000000">50</text>
</g>
<!-- 12&#45;&gt;10 -->
<g id="edge48" class="edge">
<title>12&#45;&gt;10</title>
<path fill="none" stroke="#000000" d="M115.843,-812.7645C107.9234,-800.8852 96.7849,-784.1773 87.7168,-770.5752"/>
<polygon fill="#000000" stroke="#000000" points="90.5707,-768.5462 82.1114,-762.1672 84.7463,-772.4291 90.5707,-768.5462"/>
<text text-anchor="middle" x="106.5" y="-785.6" font-family="Bitstream Vera Sans" font-size="8.00" fill="#000000">50</text>
</g>
<!-- 14 -->
<g id="node56" class="node">
<title>14</title>
<ellipse fill="none" stroke="#000000" cx="153" cy="-990" rx="18" ry="18"/>
<text text-anchor="middle" x="153" y="-988.1" font-family="Bitstream Vera Sans" font-size="8.00" fill="#000000">14</text>
</g>
<!-- 15&#45;&gt;14 -->
<g id="edge49" class="edge">
<title>15&#45;&gt;14</title>
<path fill="none" stroke="#000000" d="M153,-1052.6198C153,-1042.5034 153,-1029.7309 153,-1018.3637"/>
<polygon fill="#000000" stroke="#000000" points="156.5001,-1018.0284 153,-1008.0284 149.5001,-1018.0284 156.5001,-1018.0284"/>
<text text-anchor="middle" x="158.5" y="-1028.6" font-family="Bitstream Vera Sans" font-size="8.00" fill="#000000">50</text>
</g>
<!-- 14&#45;&gt;13 -->
<g id="edge50" class="edge">
<title>14&#45;&gt;13</title>
<path fill="none" stroke="#000000" d="M147.274,-972.822C143.6943,-962.0829 139.0084,-948.0252 134.9458,-935.8374"/>
<polygon fill="#000000" stroke="#000000" points="138.2005,-934.5333 131.7178,-926.1533 131.5597,-936.7469 138.2005,-934.5333"/>
<text text-anchor="middle" x="146.5" y="-947.6" font-family="Bitstream Vera Sans" font-size="8.00" fill="#000000">50</text>
</g>
<!-- 17 -->
<g id="node57" class="node">
<title>17</title>
<ellipse fill="none" stroke="#000000" cx="153" cy="-1233" rx="18" ry="18"/>
<text text-anchor="middle" x="153" y="-1231.1" font-family="Bitstream Vera Sans" font-size="8.00" fill="#000000">17</text>
</g>
<!-- 17&#45;&gt;16 -->
<g id="edge51" class="edge">
<title>17&#45;&gt;16</title>
<path fill="none" stroke="#000000" d="M153,-1214.6198C153,-1204.5034 153,-1191.7309 153,-1180.3637"/>
<polygon fill="#000000" stroke="#000000" points="156.5001,-1180.0284 153,-1170.0284 149.5001,-1180.0284 156.5001,-1180.0284"/>
<text text-anchor="middle" x="158.5" y="-1190.6" font-family="Bitstream Vera Sans" font-size="8.00" fill="#000000">50</text>
</g>
<!-- 18&#45;&gt;17 -->
<g id="edge54" class="edge">
<title>18&#45;&gt;17</title>
<path fill="none" stroke="#000000" d="M153,-1295.6198C153,-1285.5034 153,-1272.7309 153,-1261.3637"/>
<polygon fill="#000000" stroke="#000000" points="156.5001,-1261.0284 153,-1251.0284 149.5001,-1261.0284 156.5001,-1261.0284"/>
<text text-anchor="middle" x="158.5" y="-1271.6" font-family="Bitstream Vera Sans" font-size="8.00" fill="#000000">50</text>
</g>
<!-- 31 -->
<g id="node59" class="node">
<title>31</title>
<ellipse fill="none" stroke="#000000" cx="153" cy="-2367" rx="18" ry="18"/>
<text text-anchor="middle" x="153" y="-2365.1" font-family="Bitstream Vera Sans" font-size="8.00" fill="#000000">31</text>
</g>
<!-- 30 -->
<g id="node60" class="node">
<title>30</title>
<ellipse fill="none" stroke="#000000" cx="153" cy="-2286" rx="18" ry="18"/>
<text text-anchor="middle" x="153" y="-2284.1" font-family="Bitstream Vera Sans" font-size="8.00" fill="#000000">30</text>
</g>
<!-- 31&#45;&gt;30 -->
<g id="edge55" class="edge">
<title>31&#45;&gt;30</title>
<path fill="none" stroke="#000000" d="M153,-2348.6198C153,-2338.5034 153,-2325.7309 153,-2314.3637"/>
<polygon fill="#000000" stroke="#000000" points="156.5001,-2314.0284 153,-2304.0284 149.5001,-2314.0284 156.5001,-2314.0284"/>
<text text-anchor="middle" x="158.5" y="-2324.6" font-family="Bitstream Vera Sans" font-size="8.00" fill="#000000">50</text>
</g>
<!-- 30&#45;&gt;29 -->
<g id="edge56" class="edge">
<title>30&#45;&gt;29</title>
<path fill="none" stroke="#000000" d="M153,-2267.6198C153,-2257.5034 153,-2244.7309 153,-2233.3637"/>
<polygon fill="#000000" stroke="#000000" points="156.5001,-2233.0284 153,-2223.0284 149.5001,-2233.0284 156.5001,-2233.0284"/>
<text text-anchor="middle" x="158.5" y="-2243.6" font-family="Bitstream Vera Sans" font-size="8.00" fill="#000000">50</text>
</g>
<!-- 37 -->
<g id="node61" class="node">
<title>37</title>
<ellipse fill="none" stroke="#000000" cx="153" cy="-2853" rx="18" ry="18"/>
<text text-anchor="middle" x="153" y="-2851.1" font-family="Bitstream Vera Sans" font-size="8.00" fill="#000000">37</text>
</g>
<!-- 36 -->
<g id="node62" class="node">
<title>36</title>
<ellipse fill="none" stroke="#000000" cx="153" cy="-2772" rx="18" ry="18"/>
<text text-anchor="middle" x="153" y="-2770.1" font-family="Bitstream Vera Sans" font-size="8.00" fill="#000000">36</text>
</g>
<!-- 37&#45;&gt;36 -->
<g id="edge57" class="edge">
<title>37&#45;&gt;36</title>
<path fill="none" stroke="#000000" d="M153,-2834.6198C153,-2824.5034 153,-2811.7309 153,-2800.3637"/>
<polygon fill="#000000" stroke="#000000" points="156.5001,-2800.0284 153,-2790.0284 149.5001,-2800.0284 156.5001,-2800.0284"/>
<text text-anchor="middle" x="158.5" y="-2810.6" font-family="Bitstream Vera Sans" font-size="8.00" fill="#000000">50</text>
</g>
<!-- 35 -->
<g id="node63" class="node">
<title>35</title>
<ellipse fill="none" stroke="#000000" cx="153" cy="-2691" rx="18" ry="18"/>
<text text-anchor="middle" x="153" y="-2689.1" font-family="Bitstream Vera Sans" font-size="8.00" fill="#000000">35</text>
</g>
<!-- 36&#45;&gt;35 -->
<g id="edge58" class="edge">
<title>36&#45;&gt;35</title>
<path fill="none" stroke="#000000" d="M153,-2753.6198C153,-2743.5034 153,-2730.7309 153,-2719.3637"/>
<polygon fill="#000000" stroke="#000000" points="156.5001,-2719.0284 153,-2709.0284 149.5001,-2719.0284 156.5001,-2719.0284"/>
<text text-anchor="middle" x="158.5" y="-2729.6" font-family="Bitstream Vera Sans" font-size="8.00" fill="#000000">50</text>
</g>
<!-- 34 -->
<g id="node64" class="node">
<title>34</title>
<ellipse fill="none" stroke="#000000" cx="153" cy="-2610" rx="18" ry="18"/>
<text text-anchor="middle" x="153" y="-2608.1" font-family="Bitstream Vera Sans" font-size="8.00" fill="#000000">34</text>
</g>
<!-- 35&#45;&gt;34 -->
<g id="edge59" class="edge">
<title>35&#45;&gt;34</title>
<path fill="none" stroke="#000000" d="M153,-2672.6198C153,-2662.5034 153,-2649.7309 153,-2638.3637"/>
<polygon fill="#000000" stroke="#000000" points="156.5001,-2638.0284 153,-2628.0284 149.5001,-2638.0284 156.5001,-2638.0284"/>
<text text-anchor="middle" x="158.5" y="-2648.6" font-family="Bitstream Vera Sans" font-size="8.00" fill="#000000">50</text>
</g>
<!-- 33 -->
<g id="node65" class="node">
<title>33</title>
<ellipse fill="none" stroke="#000000" cx="153" cy="-2529" rx="18" ry="18"/>
<text text-anchor="middle" x="153" y="-2527.1" font-family="Bitstream Vera Sans" font-size="8.00" fill="#000000">33</text>
</g>
<!-- 34&#45;&gt;33 -->
<g id="edge60" class="edge">
<title>34&#45;&gt;33</title>
<path fill="none" stroke="#000000" d="M153,-2591.6198C153,-2581.5034 153,-2568.7309 153,-2557.3637"/>
<polygon fill="#000000" stroke="#000000" points="156.5001,-2557.0284 153,-2547.0284 149.5001,-2557.0284 156.5001,-2557.0284"/>
<text text-anchor="middle" x="158.5" y="-2567.6" font-family="Bitstream Vera Sans" font-size="8.00" fill="#000000">50</text>
</g>
<!-- 32 -->
<g id="node66" class="node">
<title>32</title>
<ellipse fill="none" stroke="#000000" cx="153" cy="-2448" rx="18" ry="18"/>
<text text-anchor="middle" x="153" y="-2446.1" font-family="Bitstream Vera Sans" font-size="8.00" fill="#000000">32</text>
</g>
<!-- 33&#45;&gt;32 -->
<g id="edge61" class="edge">
<title>33&#45;&gt;32</title>
<path fill="none" stroke="#000000" d="M153,-2510.6198C153,-2500.5034 153,-2487.7309 153,-2476.3637"/>
<polygon fill="#000000" stroke="#000000" points="156.5001,-2476.0284 153,-2466.0284 149.5001,-2476.0284 156.5001,-2476.0284"/>
<text text-anchor="middle" x="158.5" y="-2486.6" font-family="Bitstream Vera Sans" font-size="8.00" fill="#000000">50</text>
</g>
<!-- 32&#45;&gt;31 -->
<g id="edge63" class="edge">
<title>32&#45;&gt;31</title>
<path fill="none" stroke="#000000" d="M153,-2429.6198C153,-2419.5034 153,-2406.7309 153,-2395.3637"/>
<polygon fill="#000000" stroke="#000000" points="156.5001,-2395.0284 153,-2385.0284 149.5001,-2395.0284 156.5001,-2395.0284"/>
<text text-anchor="middle" x="158.5" y="-2405.6" font-family="Bitstream Vera Sans" font-size="8.00" fill="#000000">50</text>
</g>
</g>
</svg>
