<?xml version="1.0" encoding="UTF-8" standalone="no"?>
<!DOCTYPE svg PUBLIC "-//W3C//DTD SVG 1.1//EN"
 "http://www.w3.org/Graphics/SVG/1.1/DTD/svg11.dtd">
<!-- Generated by graphviz version 2.40.1 (20161225.0304)
 -->
<!-- Title: G Pages: 1 -->
<svg width="152pt" height="4418pt"
 viewBox="0.00 0.00 152.00 4418.00" xmlns="http://www.w3.org/2000/svg" xmlns:xlink="http://www.w3.org/1999/xlink">
<g id="graph0" class="graph" transform="scale(1 1) rotate(0) translate(4 4414)">
<title>G</title>
<polygon fill="#ffffff" stroke="transparent" points="-4,4 -4,-4414 148,-4414 148,4 -4,4"/>
<!-- 56 -->
<g id="node1" class="node">
<title>56</title>
<ellipse fill="none" stroke="#000000" cx="126" cy="-990" rx="18" ry="18"/>
<text text-anchor="middle" x="126" y="-988.1" font-family="Bitstream Vera Sans" font-size="8.00" fill="#000000">56</text>
</g>
<!-- 57 -->
<g id="node2" class="node">
<title>57</title>
<ellipse fill="none" stroke="#000000" cx="126" cy="-909" rx="18" ry="18"/>
<text text-anchor="middle" x="126" y="-907.1" font-family="Bitstream Vera Sans" font-size="8.00" fill="#000000">57</text>
</g>
<!-- 56&#45;&gt;57 -->
<g id="edge1" class="edge">
<title>56&#45;&gt;57</title>
<path fill="none" stroke="#000000" d="M126,-971.6198C126,-961.5034 126,-948.7309 126,-937.3637"/>
<polygon fill="#000000" stroke="#000000" points="129.5001,-937.0284 126,-927.0284 122.5001,-937.0284 129.5001,-937.0284"/>
<text text-anchor="middle" x="131.5" y="-947.6" font-family="Bitstream Vera Sans" font-size="8.00" fill="#000000">50</text>
</g>
<!-- 58 -->
<g id="node51" class="node">
<title>58</title>
<ellipse fill="none" stroke="#000000" cx="126" cy="-828" rx="18" ry="18"/>
<text text-anchor="middle" x="126" y="-826.1" font-family="Bitstream Vera Sans" font-size="8.00" fill="#000000">58</text>
</g>
<!-- 57&#45;&gt;58 -->
<g id="edge64" class="edge">
<title>57&#45;&gt;58</title>
<path fill="none" stroke="#000000" d="M126,-890.6198C126,-880.5034 126,-867.7309 126,-856.3637"/>
<polygon fill="#000000" stroke="#000000" points="129.5001,-856.0284 126,-846.0284 122.5001,-856.0284 129.5001,-856.0284"/>
<text text-anchor="middle" x="131.5" y="-866.6" font-family="Bitstream Vera Sans" font-size="8.00" fill="#000000">50</text>
</g>
<!-- 54 -->
<g id="node3" class="node">
<title>54</title>
<ellipse fill="none" stroke="#000000" cx="126" cy="-1152" rx="18" ry="18"/>
<text text-anchor="middle" x="126" y="-1150.1" font-family="Bitstream Vera Sans" font-size="8.00" fill="#000000">54</text>
</g>
<!-- 55 -->
<g id="node4" class="node">
<title>55</title>
<ellipse fill="none" stroke="#000000" cx="126" cy="-1071" rx="18" ry="18"/>
<text text-anchor="middle" x="126" y="-1069.1" font-family="Bitstream Vera Sans" font-size="8.00" fill="#000000">55</text>
</g>
<!-- 54&#45;&gt;55 -->
<g id="edge2" class="edge">
<title>54&#45;&gt;55</title>
<path fill="none" stroke="#000000" d="M126,-1133.6198C126,-1123.5034 126,-1110.7309 126,-1099.3637"/>
<polygon fill="#000000" stroke="#000000" points="129.5001,-1099.0284 126,-1089.0284 122.5001,-1099.0284 129.5001,-1099.0284"/>
<text text-anchor="middle" x="131.5" y="-1109.6" font-family="Bitstream Vera Sans" font-size="8.00" fill="#000000">50</text>
</g>
<!-- 55&#45;&gt;56 -->
<g id="edge62" class="edge">
<title>55&#45;&gt;56</title>
<path fill="none" stroke="#000000" d="M126,-1052.6198C126,-1042.5034 126,-1029.7309 126,-1018.3637"/>
<polygon fill="#000000" stroke="#000000" points="129.5001,-1018.0284 126,-1008.0284 122.5001,-1018.0284 129.5001,-1018.0284"/>
<text text-anchor="middle" x="131.5" y="-1028.6" font-family="Bitstream Vera Sans" font-size="8.00" fill="#000000">50</text>
</g>
<!-- 42 -->
<g id="node5" class="node">
<title>42</title>
<ellipse fill="none" stroke="#000000" cx="126" cy="-2124" rx="18" ry="18"/>
<text text-anchor="middle" x="126" y="-2122.1" font-family="Bitstream Vera Sans" font-size="8.00" fill="#000000">42</text>
</g>
<!-- 43 -->
<g id="node6" class="node">
<title>43</title>
<ellipse fill="none" stroke="#000000" cx="126" cy="-2043" rx="18" ry="18"/>
<text text-anchor="middle" x="126" y="-2041.1" font-family="Bitstream Vera Sans" font-size="8.00" fill="#000000">43</text>
</g>
<!-- 42&#45;&gt;43 -->
<g id="edge3" class="edge">
<title>42&#45;&gt;43</title>
<path fill="none" stroke="#000000" d="M126,-2105.6198C126,-2095.5034 126,-2082.7309 126,-2071.3637"/>
<polygon fill="#000000" stroke="#000000" points="129.5001,-2071.0284 126,-2061.0284 122.5001,-2071.0284 129.5001,-2071.0284"/>
<text text-anchor="middle" x="131.5" y="-2081.6" font-family="Bitstream Vera Sans" font-size="8.00" fill="#000000">50</text>
</g>
<!-- 44 -->
<g id="node9" class="node">
<title>44</title>
<ellipse fill="none" stroke="#000000" cx="126" cy="-1962" rx="18" ry="18"/>
<text text-anchor="middle" x="126" y="-1960.1" font-family="Bitstream Vera Sans" font-size="8.00" fill="#000000">44</text>
</g>
<!-- 43&#45;&gt;44 -->
<g id="edge5" class="edge">
<title>43&#45;&gt;44</title>
<path fill="none" stroke="#000000" d="M126,-2024.6198C126,-2014.5034 126,-2001.7309 126,-1990.3637"/>
<polygon fill="#000000" stroke="#000000" points="129.5001,-1990.0284 126,-1980.0284 122.5001,-1990.0284 129.5001,-1990.0284"/>
<text text-anchor="middle" x="131.5" y="-2000.6" font-family="Bitstream Vera Sans" font-size="8.00" fill="#000000">50</text>
</g>
<!-- 48 -->
<g id="node7" class="node">
<title>48</title>
<ellipse fill="none" stroke="#000000" cx="126" cy="-1638" rx="18" ry="18"/>
<text text-anchor="middle" x="126" y="-1636.1" font-family="Bitstream Vera Sans" font-size="8.00" fill="#000000">48</text>
</g>
<!-- 49 -->
<g id="node8" class="node">
<title>49</title>
<ellipse fill="none" stroke="#000000" cx="126" cy="-1557" rx="18" ry="18"/>
<text text-anchor="middle" x="126" y="-1555.1" font-family="Bitstream Vera Sans" font-size="8.00" fill="#000000">49</text>
</g>
<!-- 48&#45;&gt;49 -->
<g id="edge4" class="edge">
<title>48&#45;&gt;49</title>
<path fill="none" stroke="#000000" d="M126,-1619.6198C126,-1609.5034 126,-1596.7309 126,-1585.3637"/>
<polygon fill="#000000" stroke="#000000" points="129.5001,-1585.0284 126,-1575.0284 122.5001,-1585.0284 129.5001,-1585.0284"/>
<text text-anchor="middle" x="131.5" y="-1595.6" font-family="Bitstream Vera Sans" font-size="8.00" fill="#000000">50</text>
</g>
<!-- 50 -->
<g id="node17" class="node">
<title>50</title>
<ellipse fill="none" stroke="#000000" cx="126" cy="-1476" rx="18" ry="18"/>
<text text-anchor="middle" x="126" y="-1474.1" font-family="Bitstream Vera Sans" font-size="8.00" fill="#000000">50</text>
</g>
<!-- 49&#45;&gt;50 -->
<g id="edge11" class="edge">
<title>49&#45;&gt;50</title>
<path fill="none" stroke="#000000" d="M126,-1538.6198C126,-1528.5034 126,-1515.7309 126,-1504.3637"/>
<polygon fill="#000000" stroke="#000000" points="129.5001,-1504.0284 126,-1494.0284 122.5001,-1504.0284 129.5001,-1504.0284"/>
<text text-anchor="middle" x="131.5" y="-1514.6" font-family="Bitstream Vera Sans" font-size="8.00" fill="#000000">50</text>
</g>
<!-- 45 -->
<g id="node31" class="node">
<title>45</title>
<ellipse fill="none" stroke="#000000" cx="126" cy="-1881" rx="18" ry="18"/>
<text text-anchor="middle" x="126" y="-1879.1" font-family="Bitstream Vera Sans" font-size="8.00" fill="#000000">45</text>
</g>
<!-- 44&#45;&gt;45 -->
<g id="edge24" class="edge">
<title>44&#45;&gt;45</title>
<path fill="none" stroke="#000000" d="M126,-1943.6198C126,-1933.5034 126,-1920.7309 126,-1909.3637"/>
<polygon fill="#000000" stroke="#000000" points="129.5001,-1909.0284 126,-1899.0284 122.5001,-1909.0284 129.5001,-1909.0284"/>
<text text-anchor="middle" x="131.5" y="-1919.6" font-family="Bitstream Vera Sans" font-size="8.00" fill="#000000">50</text>
</g>
<!-- 60 -->
<g id="node10" class="node">
<title>60</title>
<ellipse fill="none" stroke="#000000" cx="126" cy="-666" rx="18" ry="18"/>
<text text-anchor="middle" x="126" y="-664.1" font-family="Bitstream Vera Sans" font-size="8.00" fill="#000000">60</text>
</g>
<!-- 61 -->
<g id="node11" class="node">
<title>61</title>
<ellipse fill="none" stroke="#000000" cx="126" cy="-585" rx="18" ry="18"/>
<text text-anchor="middle" x="126" y="-583.1" font-family="Bitstream Vera Sans" font-size="8.00" fill="#000000">61</text>
</g>
<!-- 60&#45;&gt;61 -->
<g id="edge6" class="edge">
<title>60&#45;&gt;61</title>
<path fill="none" stroke="#000000" d="M126,-647.6198C126,-637.5034 126,-624.7309 126,-613.3637"/>
<polygon fill="#000000" stroke="#000000" points="129.5001,-613.0284 126,-603.0284 122.5001,-613.0284 129.5001,-613.0284"/>
<text text-anchor="middle" x="131.5" y="-623.6" font-family="Bitstream Vera Sans" font-size="8.00" fill="#000000">50</text>
</g>
<!-- 12 -->
<g id="node12" class="node">
<title>12</title>
<ellipse fill="none" stroke="#000000" cx="126" cy="-504" rx="18" ry="18"/>
<text text-anchor="middle" x="126" y="-502.1" font-family="Bitstream Vera Sans" font-size="8.00" fill="#000000">12</text>
</g>
<!-- 61&#45;&gt;12 -->
<g id="edge7" class="edge">
<title>61&#45;&gt;12</title>
<path fill="none" stroke="#000000" d="M126,-566.6198C126,-556.5034 126,-543.7309 126,-532.3637"/>
<polygon fill="#000000" stroke="#000000" points="129.5001,-532.0284 126,-522.0284 122.5001,-532.0284 129.5001,-532.0284"/>
<text text-anchor="middle" x="131.5" y="-542.6" font-family="Bitstream Vera Sans" font-size="8.00" fill="#000000">50</text>
</g>
<!-- 13 -->
<g id="node53" class="node">
<title>13</title>
<ellipse fill="none" stroke="#000000" cx="126" cy="-423" rx="18" ry="18"/>
<text text-anchor="middle" x="126" y="-421.1" font-family="Bitstream Vera Sans" font-size="8.00" fill="#000000">13</text>
</g>
<!-- 12&#45;&gt;13 -->
<g id="edge48" class="edge">
<title>12&#45;&gt;13</title>
<path fill="none" stroke="#000000" d="M126,-485.6198C126,-475.5034 126,-462.7309 126,-451.3637"/>
<polygon fill="#000000" stroke="#000000" points="129.5001,-451.0284 126,-441.0284 122.5001,-451.0284 129.5001,-451.0284"/>
<text text-anchor="middle" x="131.5" y="-461.6" font-family="Bitstream Vera Sans" font-size="8.00" fill="#000000">50</text>
</g>
<!-- 62 -->
<g id="node13" class="node">
<title>62</title>
<ellipse fill="none" stroke="#000000" cx="126" cy="-342" rx="18" ry="18"/>
<text text-anchor="middle" x="126" y="-340.1" font-family="Bitstream Vera Sans" font-size="8.00" fill="#000000">62</text>
</g>
<!-- 63 -->
<g id="node14" class="node">
<title>63</title>
<ellipse fill="none" stroke="#000000" cx="126" cy="-261" rx="18" ry="18"/>
<text text-anchor="middle" x="126" y="-259.1" font-family="Bitstream Vera Sans" font-size="8.00" fill="#000000">63</text>
</g>
<!-- 62&#45;&gt;63 -->
<g id="edge8" class="edge">
<title>62&#45;&gt;63</title>
<path fill="none" stroke="#000000" d="M126,-323.6198C126,-313.5034 126,-300.7309 126,-289.3637"/>
<polygon fill="#000000" stroke="#000000" points="129.5001,-289.0284 126,-279.0284 122.5001,-289.0284 129.5001,-289.0284"/>
<text text-anchor="middle" x="131.5" y="-299.6" font-family="Bitstream Vera Sans" font-size="8.00" fill="#000000">50</text>
</g>
<!-- 64 -->
<g id="node15" class="node">
<title>64</title>
<ellipse fill="none" stroke="#000000" cx="126" cy="-180" rx="18" ry="18"/>
<text text-anchor="middle" x="126" y="-178.1" font-family="Bitstream Vera Sans" font-size="8.00" fill="#000000">64</text>
</g>
<!-- 63&#45;&gt;64 -->
<g id="edge9" class="edge">
<title>63&#45;&gt;64</title>
<path fill="none" stroke="#000000" d="M126,-242.6198C126,-232.5034 126,-219.7309 126,-208.3637"/>
<polygon fill="#000000" stroke="#000000" points="129.5001,-208.0284 126,-198.0284 122.5001,-208.0284 129.5001,-208.0284"/>
<text text-anchor="middle" x="131.5" y="-218.6" font-family="Bitstream Vera Sans" font-size="8.00" fill="#000000">50</text>
</g>
<!-- 65 -->
<g id="node16" class="node">
<title>65</title>
<ellipse fill="none" stroke="#000000" cx="126" cy="-99" rx="18" ry="18"/>
<text text-anchor="middle" x="126" y="-97.1" font-family="Bitstream Vera Sans" font-size="8.00" fill="#000000">65</text>
</g>
<!-- 64&#45;&gt;65 -->
<g id="edge10" class="edge">
<title>64&#45;&gt;65</title>
<path fill="none" stroke="#000000" d="M126,-161.6198C126,-151.5034 126,-138.7309 126,-127.3637"/>
<polygon fill="#000000" stroke="#000000" points="129.5001,-127.0284 126,-117.0284 122.5001,-127.0284 129.5001,-127.0284"/>
<text text-anchor="middle" x="131.5" y="-137.6" font-family="Bitstream Vera Sans" font-size="8.00" fill="#000000">50</text>
</g>
<!-- 1 -->
<g id="node48" class="node">
<title>1</title>
<ellipse fill="none" stroke="#000000" cx="72" cy="-18" rx="18" ry="18"/>
<text text-anchor="middle" x="72" y="-16.1" font-family="Bitstream Vera Sans" font-size="8.00" fill="#000000">1</text>
</g>
<!-- 65&#45;&gt;1 -->
<g id="edge41" class="edge">
<title>65&#45;&gt;1</title>
<path fill="none" stroke="#000000" d="M115.843,-83.7645C107.9234,-71.8852 96.7849,-55.1773 87.7168,-41.5752"/>
<polygon fill="#000000" stroke="#000000" points="90.5707,-39.5462 82.1114,-33.1672 84.7463,-43.4291 90.5707,-39.5462"/>
<text text-anchor="middle" x="105.5" y="-56.6" font-family="Bitstream Vera Sans" font-size="8.00" fill="#000000">50</text>
</g>
<!-- 51 -->
<g id="node46" class="node">
<title>51</title>
<ellipse fill="none" stroke="#000000" cx="126" cy="-1395" rx="18" ry="18"/>
<text text-anchor="middle" x="126" y="-1393.1" font-family="Bitstream Vera Sans" font-size="8.00" fill="#000000">51</text>
</g>
<!-- 50&#45;&gt;51 -->
<g id="edge65" class="edge">
<title>50&#45;&gt;51</title>
<path fill="none" stroke="#000000" d="M126,-1457.6198C126,-1447.5034 126,-1434.7309 126,-1423.3637"/>
<polygon fill="#000000" stroke="#000000" points="129.5001,-1423.0284 126,-1413.0284 122.5001,-1423.0284 129.5001,-1423.0284"/>
<text text-anchor="middle" x="131.5" y="-1433.6" font-family="Bitstream Vera Sans" font-size="8.00" fill="#000000">50</text>
</g>
<!-- 52 -->
<g id="node18" class="node">
<title>52</title>
<ellipse fill="none" stroke="#000000" cx="126" cy="-1314" rx="18" ry="18"/>
<text text-anchor="middle" x="126" y="-1312.1" font-family="Bitstream Vera Sans" font-size="8.00" fill="#000000">52</text>
</g>
<!-- 53 -->
<g id="node19" class="node">
<title>53</title>
<ellipse fill="none" stroke="#000000" cx="126" cy="-1233" rx="18" ry="18"/>
<text text-anchor="middle" x="126" y="-1231.1" font-family="Bitstream Vera Sans" font-size="8.00" fill="#000000">53</text>
</g>
<!-- 52&#45;&gt;53 -->
<g id="edge12" class="edge">
<title>52&#45;&gt;53</title>
<path fill="none" stroke="#000000" d="M126,-1295.6198C126,-1285.5034 126,-1272.7309 126,-1261.3637"/>
<polygon fill="#000000" stroke="#000000" points="129.5001,-1261.0284 126,-1251.0284 122.5001,-1261.0284 129.5001,-1261.0284"/>
<text text-anchor="middle" x="131.5" y="-1271.6" font-family="Bitstream Vera Sans" font-size="8.00" fill="#000000">50</text>
</g>
<!-- 53&#45;&gt;54 -->
<g id="edge13" class="edge">
<title>53&#45;&gt;54</title>
<path fill="none" stroke="#000000" d="M126,-1214.6198C126,-1204.5034 126,-1191.7309 126,-1180.3637"/>
<polygon fill="#000000" stroke="#000000" points="129.5001,-1180.0284 126,-1170.0284 122.5001,-1180.0284 129.5001,-1180.0284"/>
<text text-anchor="middle" x="131.5" y="-1190.6" font-family="Bitstream Vera Sans" font-size="8.00" fill="#000000">50</text>
</g>
<!-- 24 -->
<g id="node20" class="node">
<title>24</title>
<ellipse fill="none" stroke="#000000" cx="126" cy="-3825" rx="18" ry="18"/>
<text text-anchor="middle" x="126" y="-3823.1" font-family="Bitstream Vera Sans" font-size="8.00" fill="#000000">24</text>
</g>
<!-- 25 -->
<g id="node21" class="node">
<title>25</title>
<ellipse fill="none" stroke="#000000" cx="126" cy="-3744" rx="18" ry="18"/>
<text text-anchor="middle" x="126" y="-3742.1" font-family="Bitstream Vera Sans" font-size="8.00" fill="#000000">25</text>
</g>
<!-- 24&#45;&gt;25 -->
<g id="edge14" class="edge">
<title>24&#45;&gt;25</title>
<path fill="none" stroke="#000000" d="M126,-3806.6198C126,-3796.5034 126,-3783.7309 126,-3772.3637"/>
<polygon fill="#000000" stroke="#000000" points="129.5001,-3772.0284 126,-3762.0284 122.5001,-3772.0284 129.5001,-3772.0284"/>
<text text-anchor="middle" x="131.5" y="-3782.6" font-family="Bitstream Vera Sans" font-size="8.00" fill="#000000">50</text>
</g>
<!-- 26 -->
<g id="node22" class="node">
<title>26</title>
<ellipse fill="none" stroke="#000000" cx="126" cy="-3663" rx="18" ry="18"/>
<text text-anchor="middle" x="126" y="-3661.1" font-family="Bitstream Vera Sans" font-size="8.00" fill="#000000">26</text>
</g>
<!-- 25&#45;&gt;26 -->
<g id="edge15" class="edge">
<title>25&#45;&gt;26</title>
<path fill="none" stroke="#000000" d="M126,-3725.6198C126,-3715.5034 126,-3702.7309 126,-3691.3637"/>
<polygon fill="#000000" stroke="#000000" points="129.5001,-3691.0284 126,-3681.0284 122.5001,-3691.0284 129.5001,-3691.0284"/>
<text text-anchor="middle" x="131.5" y="-3701.6" font-family="Bitstream Vera Sans" font-size="8.00" fill="#000000">50</text>
</g>
<!-- 27 -->
<g id="node23" class="node">
<title>27</title>
<ellipse fill="none" stroke="#000000" cx="126" cy="-3582" rx="18" ry="18"/>
<text text-anchor="middle" x="126" y="-3580.1" font-family="Bitstream Vera Sans" font-size="8.00" fill="#000000">27</text>
</g>
<!-- 26&#45;&gt;27 -->
<g id="edge16" class="edge">
<title>26&#45;&gt;27</title>
<path fill="none" stroke="#000000" d="M126,-3644.6198C126,-3634.5034 126,-3621.7309 126,-3610.3637"/>
<polygon fill="#000000" stroke="#000000" points="129.5001,-3610.0284 126,-3600.0284 122.5001,-3610.0284 129.5001,-3610.0284"/>
<text text-anchor="middle" x="131.5" y="-3620.6" font-family="Bitstream Vera Sans" font-size="8.00" fill="#000000">50</text>
</g>
<!-- 28 -->
<g id="node24" class="node">
<title>28</title>
<ellipse fill="none" stroke="#000000" cx="126" cy="-3501" rx="18" ry="18"/>
<text text-anchor="middle" x="126" y="-3499.1" font-family="Bitstream Vera Sans" font-size="8.00" fill="#000000">28</text>
</g>
<!-- 27&#45;&gt;28 -->
<g id="edge17" class="edge">
<title>27&#45;&gt;28</title>
<path fill="none" stroke="#000000" d="M126,-3563.6198C126,-3553.5034 126,-3540.7309 126,-3529.3637"/>
<polygon fill="#000000" stroke="#000000" points="129.5001,-3529.0284 126,-3519.0284 122.5001,-3529.0284 129.5001,-3529.0284"/>
<text text-anchor="middle" x="131.5" y="-3539.6" font-family="Bitstream Vera Sans" font-size="8.00" fill="#000000">50</text>
</g>
<!-- 29 -->
<g id="node32" class="node">
<title>29</title>
<ellipse fill="none" stroke="#000000" cx="126" cy="-3420" rx="18" ry="18"/>
<text text-anchor="middle" x="126" y="-3418.1" font-family="Bitstream Vera Sans" font-size="8.00" fill="#000000">29</text>
</g>
<!-- 28&#45;&gt;29 -->
<g id="edge26" class="edge">
<title>28&#45;&gt;29</title>
<path fill="none" stroke="#000000" d="M126,-3482.6198C126,-3472.5034 126,-3459.7309 126,-3448.3637"/>
<polygon fill="#000000" stroke="#000000" points="129.5001,-3448.0284 126,-3438.0284 122.5001,-3448.0284 129.5001,-3448.0284"/>
<text text-anchor="middle" x="131.5" y="-3458.6" font-family="Bitstream Vera Sans" font-size="8.00" fill="#000000">50</text>
</g>
<!-- 20 -->
<g id="node25" class="node">
<title>20</title>
<ellipse fill="none" stroke="#000000" cx="126" cy="-4149" rx="18" ry="18"/>
<text text-anchor="middle" x="126" y="-4147.1" font-family="Bitstream Vera Sans" font-size="8.00" fill="#000000">20</text>
</g>
<!-- 21 -->
<g id="node26" class="node">
<title>21</title>
<ellipse fill="none" stroke="#000000" cx="126" cy="-4068" rx="18" ry="18"/>
<text text-anchor="middle" x="126" y="-4066.1" font-family="Bitstream Vera Sans" font-size="8.00" fill="#000000">21</text>
</g>
<!-- 20&#45;&gt;21 -->
<g id="edge18" class="edge">
<title>20&#45;&gt;21</title>
<path fill="none" stroke="#000000" d="M126,-4130.6198C126,-4120.5034 126,-4107.7309 126,-4096.3637"/>
<polygon fill="#000000" stroke="#000000" points="129.5001,-4096.0284 126,-4086.0284 122.5001,-4096.0284 129.5001,-4096.0284"/>
<text text-anchor="middle" x="131.5" y="-4106.6" font-family="Bitstream Vera Sans" font-size="8.00" fill="#000000">50</text>
</g>
<!-- 22 -->
<g id="node27" class="node">
<title>22</title>
<ellipse fill="none" stroke="#000000" cx="126" cy="-3987" rx="18" ry="18"/>
<text text-anchor="middle" x="126" y="-3985.1" font-family="Bitstream Vera Sans" font-size="8.00" fill="#000000">22</text>
</g>
<!-- 21&#45;&gt;22 -->
<g id="edge19" class="edge">
<title>21&#45;&gt;22</title>
<path fill="none" stroke="#000000" d="M126,-4049.6198C126,-4039.5034 126,-4026.7309 126,-4015.3637"/>
<polygon fill="#000000" stroke="#000000" points="129.5001,-4015.0284 126,-4005.0284 122.5001,-4015.0284 129.5001,-4015.0284"/>
<text text-anchor="middle" x="131.5" y="-4025.6" font-family="Bitstream Vera Sans" font-size="8.00" fill="#000000">50</text>
</g>
<!-- 23 -->
<g id="node28" class="node">
<title>23</title>
<ellipse fill="none" stroke="#000000" cx="126" cy="-3906" rx="18" ry="18"/>
<text text-anchor="middle" x="126" y="-3904.1" font-family="Bitstream Vera Sans" font-size="8.00" fill="#000000">23</text>
</g>
<!-- 22&#45;&gt;23 -->
<g id="edge20" class="edge">
<title>22&#45;&gt;23</title>
<path fill="none" stroke="#000000" d="M126,-3968.6198C126,-3958.5034 126,-3945.7309 126,-3934.3637"/>
<polygon fill="#000000" stroke="#000000" points="129.5001,-3934.0284 126,-3924.0284 122.5001,-3934.0284 129.5001,-3934.0284"/>
<text text-anchor="middle" x="131.5" y="-3944.6" font-family="Bitstream Vera Sans" font-size="8.00" fill="#000000">50</text>
</g>
<!-- 23&#45;&gt;24 -->
<g id="edge21" class="edge">
<title>23&#45;&gt;24</title>
<path fill="none" stroke="#000000" d="M126,-3887.6198C126,-3877.5034 126,-3864.7309 126,-3853.3637"/>
<polygon fill="#000000" stroke="#000000" points="129.5001,-3853.0284 126,-3843.0284 122.5001,-3853.0284 129.5001,-3853.0284"/>
<text text-anchor="middle" x="131.5" y="-3863.6" font-family="Bitstream Vera Sans" font-size="8.00" fill="#000000">50</text>
</g>
<!-- 46 -->
<g id="node29" class="node">
<title>46</title>
<ellipse fill="none" stroke="#000000" cx="126" cy="-1800" rx="18" ry="18"/>
<text text-anchor="middle" x="126" y="-1798.1" font-family="Bitstream Vera Sans" font-size="8.00" fill="#000000">46</text>
</g>
<!-- 47 -->
<g id="node30" class="node">
<title>47</title>
<ellipse fill="none" stroke="#000000" cx="126" cy="-1719" rx="18" ry="18"/>
<text text-anchor="middle" x="126" y="-1717.1" font-family="Bitstream Vera Sans" font-size="8.00" fill="#000000">47</text>
</g>
<!-- 46&#45;&gt;47 -->
<g id="edge22" class="edge">
<title>46&#45;&gt;47</title>
<path fill="none" stroke="#000000" d="M126,-1781.6198C126,-1771.5034 126,-1758.7309 126,-1747.3637"/>
<polygon fill="#000000" stroke="#000000" points="129.5001,-1747.0284 126,-1737.0284 122.5001,-1747.0284 129.5001,-1747.0284"/>
<text text-anchor="middle" x="131.5" y="-1757.6" font-family="Bitstream Vera Sans" font-size="8.00" fill="#000000">50</text>
</g>
<!-- 47&#45;&gt;48 -->
<g id="edge23" class="edge">
<title>47&#45;&gt;48</title>
<path fill="none" stroke="#000000" d="M126,-1700.6198C126,-1690.5034 126,-1677.7309 126,-1666.3637"/>
<polygon fill="#000000" stroke="#000000" points="129.5001,-1666.0284 126,-1656.0284 122.5001,-1666.0284 129.5001,-1666.0284"/>
<text text-anchor="middle" x="131.5" y="-1676.6" font-family="Bitstream Vera Sans" font-size="8.00" fill="#000000">50</text>
</g>
<!-- 45&#45;&gt;46 -->
<g id="edge25" class="edge">
<title>45&#45;&gt;46</title>
<path fill="none" stroke="#000000" d="M126,-1862.6198C126,-1852.5034 126,-1839.7309 126,-1828.3637"/>
<polygon fill="#000000" stroke="#000000" points="129.5001,-1828.0284 126,-1818.0284 122.5001,-1828.0284 129.5001,-1828.0284"/>
<text text-anchor="middle" x="131.5" y="-1838.6" font-family="Bitstream Vera Sans" font-size="8.00" fill="#000000">50</text>
</g>
<!-- 30 -->
<g id="node33" class="node">
<title>30</title>
<ellipse fill="none" stroke="#000000" cx="126" cy="-3339" rx="18" ry="18"/>
<text text-anchor="middle" x="126" y="-3337.1" font-family="Bitstream Vera Sans" font-size="8.00" fill="#000000">30</text>
</g>
<!-- 29&#45;&gt;30 -->
<g id="edge27" class="edge">
<title>29&#45;&gt;30</title>
<path fill="none" stroke="#000000" d="M126,-3401.6198C126,-3391.5034 126,-3378.7309 126,-3367.3637"/>
<polygon fill="#000000" stroke="#000000" points="129.5001,-3367.0284 126,-3357.0284 122.5001,-3367.0284 129.5001,-3367.0284"/>
<text text-anchor="middle" x="131.5" y="-3377.6" font-family="Bitstream Vera Sans" font-size="8.00" fill="#000000">50</text>
</g>
<!-- 31 -->
<g id="node60" class="node">
<title>31</title>
<ellipse fill="none" stroke="#000000" cx="126" cy="-3258" rx="18" ry="18"/>
<text text-anchor="middle" x="126" y="-3256.1" font-family="Bitstream Vera Sans" font-size="8.00" fill="#000000">31</text>
</g>
<!-- 30&#45;&gt;31 -->
<g id="edge56" class="edge">
<title>30&#45;&gt;31</title>
<path fill="none" stroke="#000000" d="M126,-3320.6198C126,-3310.5034 126,-3297.7309 126,-3286.3637"/>
<polygon fill="#000000" stroke="#000000" points="129.5001,-3286.0284 126,-3276.0284 122.5001,-3286.0284 129.5001,-3286.0284"/>
<text text-anchor="middle" x="131.5" y="-3296.6" font-family="Bitstream Vera Sans" font-size="8.00" fill="#000000">50</text>
</g>
<!-- 40 -->
<g id="node34" class="node">
<title>40</title>
<ellipse fill="none" stroke="#000000" cx="126" cy="-2286" rx="18" ry="18"/>
<text text-anchor="middle" x="126" y="-2284.1" font-family="Bitstream Vera Sans" font-size="8.00" fill="#000000">40</text>
</g>
<!-- 41 -->
<g id="node35" class="node">
<title>41</title>
<ellipse fill="none" stroke="#000000" cx="126" cy="-2205" rx="18" ry="18"/>
<text text-anchor="middle" x="126" y="-2203.1" font-family="Bitstream Vera Sans" font-size="8.00" fill="#000000">41</text>
</g>
<!-- 40&#45;&gt;41 -->
<g id="edge28" class="edge">
<title>40&#45;&gt;41</title>
<path fill="none" stroke="#000000" d="M126,-2267.6198C126,-2257.5034 126,-2244.7309 126,-2233.3637"/>
<polygon fill="#000000" stroke="#000000" points="129.5001,-2233.0284 126,-2223.0284 122.5001,-2233.0284 129.5001,-2233.0284"/>
<text text-anchor="middle" x="131.5" y="-2243.6" font-family="Bitstream Vera Sans" font-size="8.00" fill="#000000">50</text>
</g>
<!-- 41&#45;&gt;42 -->
<g id="edge29" class="edge">
<title>41&#45;&gt;42</title>
<path fill="none" stroke="#000000" d="M126,-2186.6198C126,-2176.5034 126,-2163.7309 126,-2152.3637"/>
<polygon fill="#000000" stroke="#000000" points="129.5001,-2152.0284 126,-2142.0284 122.5001,-2152.0284 129.5001,-2152.0284"/>
<text text-anchor="middle" x="131.5" y="-2162.6" font-family="Bitstream Vera Sans" font-size="8.00" fill="#000000">50</text>
</g>
<!-- 0 -->
<g id="node36" class="node">
<title>0</title>
<ellipse fill="none" stroke="#000000" cx="18" cy="-828" rx="18" ry="18"/>
<text text-anchor="middle" x="18" y="-826.1" font-family="Bitstream Vera Sans" font-size="8.00" fill="#000000">0</text>
</g>
<!-- 2 -->
<g id="node37" class="node">
<title>2</title>
<ellipse fill="none" stroke="#000000" cx="18" cy="-747" rx="18" ry="18"/>
<text text-anchor="middle" x="18" y="-745.1" font-family="Bitstream Vera Sans" font-size="8.00" fill="#000000">2</text>
</g>
<!-- 0&#45;&gt;2 -->
<g id="edge30" class="edge">
<title>0&#45;&gt;2</title>
<path fill="none" stroke="#000000" d="M18,-809.6198C18,-799.5034 18,-786.7309 18,-775.3637"/>
<polygon fill="#000000" stroke="#000000" points="21.5001,-775.0284 18,-765.0284 14.5001,-775.0284 21.5001,-775.0284"/>
<text text-anchor="middle" x="23.5" y="-785.6" font-family="Bitstream Vera Sans" font-size="8.00" fill="#000000">50</text>
</g>
<!-- 3 -->
<g id="node38" class="node">
<title>3</title>
<ellipse fill="none" stroke="#000000" cx="18" cy="-666" rx="18" ry="18"/>
<text text-anchor="middle" x="18" y="-664.1" font-family="Bitstream Vera Sans" font-size="8.00" fill="#000000">3</text>
</g>
<!-- 2&#45;&gt;3 -->
<g id="edge32" class="edge">
<title>2&#45;&gt;3</title>
<path fill="none" stroke="#000000" d="M18,-728.6198C18,-718.5034 18,-705.7309 18,-694.3637"/>
<polygon fill="#000000" stroke="#000000" points="21.5001,-694.0284 18,-684.0284 14.5001,-694.0284 21.5001,-694.0284"/>
<text text-anchor="middle" x="23.5" y="-704.6" font-family="Bitstream Vera Sans" font-size="8.00" fill="#000000">50</text>
</g>
<!-- 4 -->
<g id="node39" class="node">
<title>4</title>
<ellipse fill="none" stroke="#000000" cx="18" cy="-585" rx="18" ry="18"/>
<text text-anchor="middle" x="18" y="-583.1" font-family="Bitstream Vera Sans" font-size="8.00" fill="#000000">4</text>
</g>
<!-- 3&#45;&gt;4 -->
<g id="edge31" class="edge">
<title>3&#45;&gt;4</title>
<path fill="none" stroke="#000000" d="M18,-647.6198C18,-637.5034 18,-624.7309 18,-613.3637"/>
<polygon fill="#000000" stroke="#000000" points="21.5001,-613.0284 18,-603.0284 14.5001,-613.0284 21.5001,-613.0284"/>
<text text-anchor="middle" x="23.5" y="-623.6" font-family="Bitstream Vera Sans" font-size="8.00" fill="#000000">50</text>
</g>
<!-- 5 -->
<g id="node40" class="node">
<title>5</title>
<ellipse fill="none" stroke="#000000" cx="18" cy="-504" rx="18" ry="18"/>
<text text-anchor="middle" x="18" y="-502.1" font-family="Bitstream Vera Sans" font-size="8.00" fill="#000000">5</text>
</g>
<!-- 4&#45;&gt;5 -->
<g id="edge34" class="edge">
<title>4&#45;&gt;5</title>
<path fill="none" stroke="#000000" d="M18,-566.6198C18,-556.5034 18,-543.7309 18,-532.3637"/>
<polygon fill="#000000" stroke="#000000" points="21.5001,-532.0284 18,-522.0284 14.5001,-532.0284 21.5001,-532.0284"/>
<text text-anchor="middle" x="23.5" y="-542.6" font-family="Bitstream Vera Sans" font-size="8.00" fill="#000000">50</text>
</g>
<!-- 6 -->
<g id="node41" class="node">
<title>6</title>
<ellipse fill="none" stroke="#000000" cx="18" cy="-423" rx="18" ry="18"/>
<text text-anchor="middle" x="18" y="-421.1" font-family="Bitstream Vera Sans" font-size="8.00" fill="#000000">6</text>
</g>
<!-- 5&#45;&gt;6 -->
<g id="edge33" class="edge">
<title>5&#45;&gt;6</title>
<path fill="none" stroke="#000000" d="M18,-485.6198C18,-475.5034 18,-462.7309 18,-451.3637"/>
<polygon fill="#000000" stroke="#000000" points="21.5001,-451.0284 18,-441.0284 14.5001,-451.0284 21.5001,-451.0284"/>
<text text-anchor="middle" x="23.5" y="-461.6" font-family="Bitstream Vera Sans" font-size="8.00" fill="#000000">50</text>
</g>
<!-- 7 -->
<g id="node42" class="node">
<title>7</title>
<ellipse fill="none" stroke="#000000" cx="18" cy="-342" rx="18" ry="18"/>
<text text-anchor="middle" x="18" y="-340.1" font-family="Bitstream Vera Sans" font-size="8.00" fill="#000000">7</text>
</g>
<!-- 6&#45;&gt;7 -->
<g id="edge36" class="edge">
<title>6&#45;&gt;7</title>
<path fill="none" stroke="#000000" d="M18,-404.6198C18,-394.5034 18,-381.7309 18,-370.3637"/>
<polygon fill="#000000" stroke="#000000" points="21.5001,-370.0284 18,-360.0284 14.5001,-370.0284 21.5001,-370.0284"/>
<text text-anchor="middle" x="23.5" y="-380.6" font-family="Bitstream Vera Sans" font-size="8.00" fill="#000000">50</text>
</g>
<!-- 8 -->
<g id="node43" class="node">
<title>8</title>
<ellipse fill="none" stroke="#000000" cx="18" cy="-261" rx="18" ry="18"/>
<text text-anchor="middle" x="18" y="-259.1" font-family="Bitstream Vera Sans" font-size="8.00" fill="#000000">8</text>
</g>
<!-- 7&#45;&gt;8 -->
<g id="edge35" class="edge">
<title>7&#45;&gt;8</title>
<path fill="none" stroke="#000000" d="M18,-323.6198C18,-313.5034 18,-300.7309 18,-289.3637"/>
<polygon fill="#000000" stroke="#000000" points="21.5001,-289.0284 18,-279.0284 14.5001,-289.0284 21.5001,-289.0284"/>
<text text-anchor="middle" x="23.5" y="-299.6" font-family="Bitstream Vera Sans" font-size="8.00" fill="#000000">50</text>
</g>
<!-- 9 -->
<g id="node44" class="node">
<title>9</title>
<ellipse fill="none" stroke="#000000" cx="18" cy="-180" rx="18" ry="18"/>
<text text-anchor="middle" x="18" y="-178.1" font-family="Bitstream Vera Sans" font-size="8.00" fill="#000000">9</text>
</g>
<!-- 8&#45;&gt;9 -->
<g id="edge38" class="edge">
<title>8&#45;&gt;9</title>
<path fill="none" stroke="#000000" d="M18,-242.6198C18,-232.5034 18,-219.7309 18,-208.3637"/>
<polygon fill="#000000" stroke="#000000" points="21.5001,-208.0284 18,-198.0284 14.5001,-208.0284 21.5001,-208.0284"/>
<text text-anchor="middle" x="23.5" y="-218.6" font-family="Bitstream Vera Sans" font-size="8.00" fill="#000000">50</text>
</g>
<!-- 10 -->
<g id="node45" class="node">
<title>10</title>
<ellipse fill="none" stroke="#000000" cx="18" cy="-99" rx="18" ry="18"/>
<text text-anchor="middle" x="18" y="-97.1" font-family="Bitstream Vera Sans" font-size="8.00" fill="#000000">10</text>
</g>
<!-- 9&#45;&gt;10 -->
<g id="edge37" class="edge">
<title>9&#45;&gt;10</title>
<path fill="none" stroke="#000000" d="M18,-161.6198C18,-151.5034 18,-138.7309 18,-127.3637"/>
<polygon fill="#000000" stroke="#000000" points="21.5001,-127.0284 18,-117.0284 14.5001,-127.0284 21.5001,-127.0284"/>
<text text-anchor="middle" x="23.5" y="-137.6" font-family="Bitstream Vera Sans" font-size="8.00" fill="#000000">50</text>
</g>
<!-- 10&#45;&gt;1 -->
<g id="edge46" class="edge">
<title>10&#45;&gt;1</title>
<path fill="none" stroke="#000000" d="M28.157,-83.7645C36.0766,-71.8852 47.2151,-55.1773 56.2832,-41.5752"/>
<polygon fill="#000000" stroke="#000000" points="59.2537,-43.4291 61.8886,-33.1672 53.4293,-39.5462 59.2537,-43.4291"/>
<text text-anchor="middle" x="52.5" y="-56.6" font-family="Bitstream Vera Sans" font-size="8.00" fill="#000000">50</text>
</g>
<!-- 51&#45;&gt;52 -->
<g id="edge39" class="edge">
<title>51&#45;&gt;52</title>
<path fill="none" stroke="#000000" d="M126,-1376.6198C126,-1366.5034 126,-1353.7309 126,-1342.3637"/>
<polygon fill="#000000" stroke="#000000" points="129.5001,-1342.0284 126,-1332.0284 122.5001,-1342.0284 129.5001,-1342.0284"/>
<text text-anchor="middle" x="131.5" y="-1352.6" font-family="Bitstream Vera Sans" font-size="8.00" fill="#000000">50</text>
</g>
<!-- 39 -->
<g id="node47" class="node">
<title>39</title>
<ellipse fill="none" stroke="#000000" cx="126" cy="-2367" rx="18" ry="18"/>
<text text-anchor="middle" x="126" y="-2365.1" font-family="Bitstream Vera Sans" font-size="8.00" fill="#000000">39</text>
</g>
<!-- 39&#45;&gt;40 -->
<g id="edge40" class="edge">
<title>39&#45;&gt;40</title>
<path fill="none" stroke="#000000" d="M126,-2348.6198C126,-2338.5034 126,-2325.7309 126,-2314.3637"/>
<polygon fill="#000000" stroke="#000000" points="129.5001,-2314.0284 126,-2304.0284 122.5001,-2314.0284 129.5001,-2314.0284"/>
<text text-anchor="middle" x="131.5" y="-2324.6" font-family="Bitstream Vera Sans" font-size="8.00" fill="#000000">50</text>
</g>
<!-- 38 -->
<g id="node49" class="node">
<title>38</title>
<ellipse fill="none" stroke="#000000" cx="126" cy="-2448" rx="18" ry="18"/>
<text text-anchor="middle" x="126" y="-2446.1" font-family="Bitstream Vera Sans" font-size="8.00" fill="#000000">38</text>
</g>
<!-- 38&#45;&gt;39 -->
<g id="edge42" class="edge">
<title>38&#45;&gt;39</title>
<path fill="none" stroke="#000000" d="M126,-2429.6198C126,-2419.5034 126,-2406.7309 126,-2395.3637"/>
<polygon fill="#000000" stroke="#000000" points="129.5001,-2395.0284 126,-2385.0284 122.5001,-2395.0284 129.5001,-2395.0284"/>
<text text-anchor="middle" x="131.5" y="-2405.6" font-family="Bitstream Vera Sans" font-size="8.00" fill="#000000">50</text>
</g>
<!-- 59 -->
<g id="node50" class="node">
<title>59</title>
<ellipse fill="none" stroke="#000000" cx="126" cy="-747" rx="18" ry="18"/>
<text text-anchor="middle" x="126" y="-745.1" font-family="Bitstream Vera Sans" font-size="8.00" fill="#000000">59</text>
</g>
<!-- 59&#45;&gt;60 -->
<g id="edge43" class="edge">
<title>59&#45;&gt;60</title>
<path fill="none" stroke="#000000" d="M126,-728.6198C126,-718.5034 126,-705.7309 126,-694.3637"/>
<polygon fill="#000000" stroke="#000000" points="129.5001,-694.0284 126,-684.0284 122.5001,-694.0284 129.5001,-694.0284"/>
<text text-anchor="middle" x="131.5" y="-704.6" font-family="Bitstream Vera Sans" font-size="8.00" fill="#000000">50</text>
</g>
<!-- 58&#45;&gt;59 -->
<g id="edge44" class="edge">
<title>58&#45;&gt;59</title>
<path fill="none" stroke="#000000" d="M126,-809.6198C126,-799.5034 126,-786.7309 126,-775.3637"/>
<polygon fill="#000000" stroke="#000000" points="129.5001,-775.0284 126,-765.0284 122.5001,-775.0284 129.5001,-775.0284"/>
<text text-anchor="middle" x="131.5" y="-785.6" font-family="Bitstream Vera Sans" font-size="8.00" fill="#000000">50</text>
</g>
<!-- 11 -->
<g id="node52" class="node">
<title>11</title>
<ellipse fill="none" stroke="#000000" cx="72" cy="-99" rx="18" ry="18"/>
<text text-anchor="middle" x="72" y="-97.1" font-family="Bitstream Vera Sans" font-size="8.00" fill="#000000">11</text>
</g>
<!-- 11&#45;&gt;1 -->
<g id="edge45" class="edge">
<title>11&#45;&gt;1</title>
<path fill="none" stroke="#000000" d="M72,-80.6198C72,-70.5034 72,-57.7309 72,-46.3637"/>
<polygon fill="#000000" stroke="#000000" points="75.5001,-46.0284 72,-36.0284 68.5001,-46.0284 75.5001,-46.0284"/>
<text text-anchor="middle" x="77.5" y="-56.6" font-family="Bitstream Vera Sans" font-size="8.00" fill="#000000">50</text>
</g>
<!-- 13&#45;&gt;62 -->
<g id="edge47" class="edge">
<title>13&#45;&gt;62</title>
<path fill="none" stroke="#000000" d="M126,-404.6198C126,-394.5034 126,-381.7309 126,-370.3637"/>
<polygon fill="#000000" stroke="#000000" points="129.5001,-370.0284 126,-360.0284 122.5001,-370.0284 129.5001,-370.0284"/>
<text text-anchor="middle" x="131.5" y="-380.6" font-family="Bitstream Vera Sans" font-size="8.00" fill="#000000">50</text>
</g>
<!-- 15 -->
<g id="node54" class="node">
<title>15</title>
<ellipse fill="none" stroke="#000000" cx="126" cy="-2610" rx="18" ry="18"/>
<text text-anchor="middle" x="126" y="-2608.1" font-family="Bitstream Vera Sans" font-size="8.00" fill="#000000">15</text>
</g>
<!-- 16 -->
<g id="node55" class="node">
<title>16</title>
<ellipse fill="none" stroke="#000000" cx="126" cy="-2529" rx="18" ry="18"/>
<text text-anchor="middle" x="126" y="-2527.1" font-family="Bitstream Vera Sans" font-size="8.00" fill="#000000">16</text>
</g>
<!-- 15&#45;&gt;16 -->
<g id="edge49" class="edge">
<title>15&#45;&gt;16</title>
<path fill="none" stroke="#000000" d="M126,-2591.6198C126,-2581.5034 126,-2568.7309 126,-2557.3637"/>
<polygon fill="#000000" stroke="#000000" points="129.5001,-2557.0284 126,-2547.0284 122.5001,-2557.0284 129.5001,-2557.0284"/>
<text text-anchor="middle" x="131.5" y="-2567.6" font-family="Bitstream Vera Sans" font-size="8.00" fill="#000000">50</text>
</g>
<!-- 16&#45;&gt;38 -->
<g id="edge52" class="edge">
<title>16&#45;&gt;38</title>
<path fill="none" stroke="#000000" d="M126,-2510.6198C126,-2500.5034 126,-2487.7309 126,-2476.3637"/>
<polygon fill="#000000" stroke="#000000" points="129.5001,-2476.0284 126,-2466.0284 122.5001,-2476.0284 129.5001,-2476.0284"/>
<text text-anchor="middle" x="131.5" y="-2486.6" font-family="Bitstream Vera Sans" font-size="8.00" fill="#000000">50</text>
</g>
<!-- 14 -->
<g id="node56" class="node">
<title>14</title>
<ellipse fill="none" stroke="#000000" cx="126" cy="-2691" rx="18" ry="18"/>
<text text-anchor="middle" x="126" y="-2689.1" font-family="Bitstream Vera Sans" font-size="8.00" fill="#000000">14</text>
</g>
<!-- 14&#45;&gt;15 -->
<g id="edge50" class="edge">
<title>14&#45;&gt;15</title>
<path fill="none" stroke="#000000" d="M126,-2672.6198C126,-2662.5034 126,-2649.7309 126,-2638.3637"/>
<polygon fill="#000000" stroke="#000000" points="129.5001,-2638.0284 126,-2628.0284 122.5001,-2638.0284 129.5001,-2638.0284"/>
<text text-anchor="middle" x="131.5" y="-2648.6" font-family="Bitstream Vera Sans" font-size="8.00" fill="#000000">50</text>
</g>
<!-- 17 -->
<g id="node57" class="node">
<title>17</title>
<ellipse fill="none" stroke="#000000" cx="126" cy="-4392" rx="18" ry="18"/>
<text text-anchor="middle" x="126" y="-4390.1" font-family="Bitstream Vera Sans" font-size="8.00" fill="#000000">17</text>
</g>
<!-- 18 -->
<g id="node58" class="node">
<title>18</title>
<ellipse fill="none" stroke="#000000" cx="126" cy="-4311" rx="18" ry="18"/>
<text text-anchor="middle" x="126" y="-4309.1" font-family="Bitstream Vera Sans" font-size="8.00" fill="#000000">18</text>
</g>
<!-- 17&#45;&gt;18 -->
<g id="edge51" class="edge">
<title>17&#45;&gt;18</title>
<path fill="none" stroke="#000000" d="M126,-4373.6198C126,-4363.5034 126,-4350.7309 126,-4339.3637"/>
<polygon fill="#000000" stroke="#000000" points="129.5001,-4339.0284 126,-4329.0284 122.5001,-4339.0284 129.5001,-4339.0284"/>
<text text-anchor="middle" x="131.5" y="-4349.6" font-family="Bitstream Vera Sans" font-size="8.00" fill="#000000">50</text>
</g>
<!-- 19 -->
<g id="node59" class="node">
<title>19</title>
<ellipse fill="none" stroke="#000000" cx="126" cy="-4230" rx="18" ry="18"/>
<text text-anchor="middle" x="126" y="-4228.1" font-family="Bitstream Vera Sans" font-size="8.00" fill="#000000">19</text>
</g>
<!-- 18&#45;&gt;19 -->
<g id="edge54" class="edge">
<title>18&#45;&gt;19</title>
<path fill="none" stroke="#000000" d="M126,-4292.6198C126,-4282.5034 126,-4269.7309 126,-4258.3637"/>
<polygon fill="#000000" stroke="#000000" points="129.5001,-4258.0284 126,-4248.0284 122.5001,-4258.0284 129.5001,-4258.0284"/>
<text text-anchor="middle" x="131.5" y="-4268.6" font-family="Bitstream Vera Sans" font-size="8.00" fill="#000000">50</text>
</g>
<!-- 19&#45;&gt;20 -->
<g id="edge53" class="edge">
<title>19&#45;&gt;20</title>
<path fill="none" stroke="#000000" d="M126,-4211.6198C126,-4201.5034 126,-4188.7309 126,-4177.3637"/>
<polygon fill="#000000" stroke="#000000" points="129.5001,-4177.0284 126,-4167.0284 122.5001,-4177.0284 129.5001,-4177.0284"/>
<text text-anchor="middle" x="131.5" y="-4187.6" font-family="Bitstream Vera Sans" font-size="8.00" fill="#000000">50</text>
</g>
<!-- 32 -->
<g id="node61" class="node">
<title>32</title>
<ellipse fill="none" stroke="#000000" cx="126" cy="-3177" rx="18" ry="18"/>
<text text-anchor="middle" x="126" y="-3175.1" font-family="Bitstream Vera Sans" font-size="8.00" fill="#000000">32</text>
</g>
<!-- 31&#45;&gt;32 -->
<g id="edge55" class="edge">
<title>31&#45;&gt;32</title>
<path fill="none" stroke="#000000" d="M126,-3239.6198C126,-3229.5034 126,-3216.7309 126,-3205.3637"/>
<polygon fill="#000000" stroke="#000000" points="129.5001,-3205.0284 126,-3195.0284 122.5001,-3205.0284 129.5001,-3205.0284"/>
<text text-anchor="middle" x="131.5" y="-3215.6" font-family="Bitstream Vera Sans" font-size="8.00" fill="#000000">50</text>
</g>
<!-- 33 -->
<g id="node66" class="node">
<title>33</title>
<ellipse fill="none" stroke="#000000" cx="126" cy="-3096" rx="18" ry="18"/>
<text text-anchor="middle" x="126" y="-3094.1" font-family="Bitstream Vera Sans" font-size="8.00" fill="#000000">33</text>
</g>
<!-- 32&#45;&gt;33 -->
<g id="edge63" class="edge">
<title>32&#45;&gt;33</title>
<path fill="none" stroke="#000000" d="M126,-3158.6198C126,-3148.5034 126,-3135.7309 126,-3124.3637"/>
<polygon fill="#000000" stroke="#000000" points="129.5001,-3124.0284 126,-3114.0284 122.5001,-3124.0284 129.5001,-3124.0284"/>
<text text-anchor="middle" x="131.5" y="-3134.6" font-family="Bitstream Vera Sans" font-size="8.00" fill="#000000">50</text>
</g>
<!-- 37 -->
<g id="node62" class="node">
<title>37</title>
<ellipse fill="none" stroke="#000000" cx="126" cy="-2772" rx="18" ry="18"/>
<text text-anchor="middle" x="126" y="-2770.1" font-family="Bitstream Vera Sans" font-size="8.00" fill="#000000">37</text>
</g>
<!-- 37&#45;&gt;14 -->
<g id="edge57" class="edge">
<title>37&#45;&gt;14</title>
<path fill="none" stroke="#000000" d="M126,-2753.6198C126,-2743.5034 126,-2730.7309 126,-2719.3637"/>
<polygon fill="#000000" stroke="#000000" points="129.5001,-2719.0284 126,-2709.0284 122.5001,-2719.0284 129.5001,-2719.0284"/>
<text text-anchor="middle" x="131.5" y="-2729.6" font-family="Bitstream Vera Sans" font-size="8.00" fill="#000000">50</text>
</g>
<!-- 36 -->
<g id="node63" class="node">
<title>36</title>
<ellipse fill="none" stroke="#000000" cx="126" cy="-2853" rx="18" ry="18"/>
<text text-anchor="middle" x="126" y="-2851.1" font-family="Bitstream Vera Sans" font-size="8.00" fill="#000000">36</text>
</g>
<!-- 36&#45;&gt;37 -->
<g id="edge58" class="edge">
<title>36&#45;&gt;37</title>
<path fill="none" stroke="#000000" d="M126,-2834.6198C126,-2824.5034 126,-2811.7309 126,-2800.3637"/>
<polygon fill="#000000" stroke="#000000" points="129.5001,-2800.0284 126,-2790.0284 122.5001,-2800.0284 129.5001,-2800.0284"/>
<text text-anchor="middle" x="131.5" y="-2810.6" font-family="Bitstream Vera Sans" font-size="8.00" fill="#000000">50</text>
</g>
<!-- 35 -->
<g id="node64" class="node">
<title>35</title>
<ellipse fill="none" stroke="#000000" cx="126" cy="-2934" rx="18" ry="18"/>
<text text-anchor="middle" x="126" y="-2932.1" font-family="Bitstream Vera Sans" font-size="8.00" fill="#000000">35</text>
</g>
<!-- 35&#45;&gt;36 -->
<g id="edge59" class="edge">
<title>35&#45;&gt;36</title>
<path fill="none" stroke="#000000" d="M126,-2915.6198C126,-2905.5034 126,-2892.7309 126,-2881.3637"/>
<polygon fill="#000000" stroke="#000000" points="129.5001,-2881.0284 126,-2871.0284 122.5001,-2881.0284 129.5001,-2881.0284"/>
<text text-anchor="middle" x="131.5" y="-2891.6" font-family="Bitstream Vera Sans" font-size="8.00" fill="#000000">50</text>
</g>
<!-- 34 -->
<g id="node65" class="node">
<title>34</title>
<ellipse fill="none" stroke="#000000" cx="126" cy="-3015" rx="18" ry="18"/>
<text text-anchor="middle" x="126" y="-3013.1" font-family="Bitstream Vera Sans" font-size="8.00" fill="#000000">34</text>
</g>
<!-- 34&#45;&gt;35 -->
<g id="edge60" class="edge">
<title>34&#45;&gt;35</title>
<path fill="none" stroke="#000000" d="M126,-2996.6198C126,-2986.5034 126,-2973.7309 126,-2962.3637"/>
<polygon fill="#000000" stroke="#000000" points="129.5001,-2962.0284 126,-2952.0284 122.5001,-2962.0284 129.5001,-2962.0284"/>
<text text-anchor="middle" x="131.5" y="-2972.6" font-family="Bitstream Vera Sans" font-size="8.00" fill="#000000">50</text>
</g>
<!-- 33&#45;&gt;34 -->
<g id="edge61" class="edge">
<title>33&#45;&gt;34</title>
<path fill="none" stroke="#000000" d="M126,-3077.6198C126,-3067.5034 126,-3054.7309 126,-3043.3637"/>
<polygon fill="#000000" stroke="#000000" points="129.5001,-3043.0284 126,-3033.0284 122.5001,-3043.0284 129.5001,-3043.0284"/>
<text text-anchor="middle" x="131.5" y="-3053.6" font-family="Bitstream Vera Sans" font-size="8.00" fill="#000000">50</text>
</g>
</g>
</svg>
