<?xml version="1.0" encoding="UTF-8" standalone="no"?>
<!DOCTYPE svg PUBLIC "-//W3C//DTD SVG 1.1//EN"
 "http://www.w3.org/Graphics/SVG/1.1/DTD/svg11.dtd">
<!-- Generated by graphviz version 2.40.1 (20161225.0304)
 -->
<!-- Title: G Pages: 1 -->
<svg width="995pt" height="1196pt"
 viewBox="0.00 0.00 995.00 1196.00" xmlns="http://www.w3.org/2000/svg" xmlns:xlink="http://www.w3.org/1999/xlink">
<g id="graph0" class="graph" transform="scale(1 1) rotate(0) translate(4 1192)">
<title>G</title>
<polygon fill="#ffffff" stroke="transparent" points="-4,4 -4,-1192 991,-1192 991,4 -4,4"/>
<!-- 24 -->
<g id="node1" class="node">
<title>24</title>
<ellipse fill="none" stroke="#000000" cx="198" cy="-666" rx="18" ry="18"/>
<text text-anchor="middle" x="198" y="-664.1" font-family="Bitstream Vera Sans" font-size="8.00" fill="#000000">24</text>
</g>
<!-- 25 -->
<g id="node2" class="node">
<title>25</title>
<ellipse fill="none" stroke="#000000" cx="156" cy="-594" rx="18" ry="18"/>
<text text-anchor="middle" x="156" y="-592.1" font-family="Bitstream Vera Sans" font-size="8.00" fill="#000000">25</text>
</g>
<!-- 24&#45;&gt;25 -->
<g id="edge39" class="edge">
<title>24&#45;&gt;25</title>
<path fill="none" stroke="#000000" d="M188.8866,-650.3771C183.4379,-641.0364 176.3973,-628.9668 170.2293,-618.3932"/>
<polygon fill="#000000" stroke="#000000" points="173.1576,-616.4667 165.0956,-609.5924 167.1111,-619.9938 173.1576,-616.4667"/>
</g>
<!-- 26 -->
<g id="node3" class="node">
<title>26</title>
<ellipse fill="none" stroke="#000000" cx="160" cy="-522" rx="18" ry="18"/>
<text text-anchor="middle" x="160" y="-520.1" font-family="Bitstream Vera Sans" font-size="8.00" fill="#000000">26</text>
</g>
<!-- 25&#45;&gt;26 -->
<g id="edge1" class="edge">
<title>25&#45;&gt;26</title>
<path fill="none" stroke="#0000ff" d="M157.0094,-575.8314C157.4372,-568.131 157.9459,-558.9743 158.4213,-550.4166"/>
<polygon fill="#0000ff" stroke="#0000ff" points="161.9169,-550.592 158.977,-540.4133 154.9276,-550.2037 161.9169,-550.592"/>
</g>
<!-- 27 -->
<g id="node4" class="node">
<title>27</title>
<ellipse fill="none" stroke="#000000" cx="130" cy="-450" rx="18" ry="18"/>
<text text-anchor="middle" x="130" y="-448.1" font-family="Bitstream Vera Sans" font-size="8.00" fill="#000000">27</text>
</g>
<!-- 25&#45;&gt;27 -->
<g id="edge2" class="edge">
<title>25&#45;&gt;27</title>
<path fill="none" stroke="#0000ff" d="M147.32,-577.9802C142.1163,-567.5018 135.953,-553.3314 133,-540 128.499,-519.6802 127.868,-496.156 128.2991,-478.2549"/>
<polygon fill="#0000ff" stroke="#0000ff" points="131.7999,-478.2946 128.667,-468.1736 124.8046,-478.0392 131.7999,-478.2946"/>
</g>
<!-- 28 -->
<g id="node9" class="node">
<title>28</title>
<ellipse fill="none" stroke="#000000" cx="92" cy="-306" rx="18" ry="18"/>
<text text-anchor="middle" x="92" y="-304.1" font-family="Bitstream Vera Sans" font-size="8.00" fill="#000000">28</text>
</g>
<!-- 25&#45;&gt;28 -->
<g id="edge3" class="edge">
<title>25&#45;&gt;28</title>
<path fill="none" stroke="#0000ff" d="M145.2547,-579.0765C123.1646,-547.3257 73.3558,-469.9241 57,-396 53.5436,-380.3778 52.4626,-375.3431 57,-360 60.4094,-348.4715 67.1367,-337.0935 73.7903,-327.7765"/>
<polygon fill="#0000ff" stroke="#0000ff" points="76.784,-329.6211 80.0361,-319.5377 71.2057,-325.3922 76.784,-329.6211"/>
</g>
<!-- 29 -->
<g id="node10" class="node">
<title>29</title>
<ellipse fill="none" stroke="#000000" cx="168" cy="-234" rx="18" ry="18"/>
<text text-anchor="middle" x="168" y="-232.1" font-family="Bitstream Vera Sans" font-size="8.00" fill="#000000">29</text>
</g>
<!-- 25&#45;&gt;29 -->
<g id="edge4" class="edge">
<title>25&#45;&gt;29</title>
<path fill="none" stroke="#0000ff" d="M166.2968,-579.0411C173.088,-568.5401 181.6807,-553.9372 187,-540 201.5773,-501.8056 206,-490.8816 206,-450 206,-450 206,-450 206,-378 206,-335.6288 190.4285,-288.4967 179.2214,-260.0616"/>
<polygon fill="#0000ff" stroke="#0000ff" points="182.3332,-258.4223 175.3268,-250.4749 175.848,-261.057 182.3332,-258.4223"/>
</g>
<!-- 26&#45;&gt;27 -->
<g id="edge40" class="edge">
<title>26&#45;&gt;27</title>
<path fill="none" stroke="#000000" d="M153.042,-505.3008C149.4963,-496.7912 145.0995,-486.2388 141.1001,-476.6403"/>
<polygon fill="#000000" stroke="#000000" points="144.2056,-474.9932 137.1286,-467.1086 137.744,-477.6856 144.2056,-474.9932"/>
</g>
<!-- 27&#45;&gt;28 -->
<g id="edge5" class="edge">
<title>27&#45;&gt;28</title>
<path fill="none" stroke="#0000ff" d="M126.9583,-432.2448C123.6634,-413.9716 117.9369,-384.7572 111,-360 108.456,-350.9206 105.188,-341.1542 102.0821,-332.4569"/>
<polygon fill="#0000ff" stroke="#0000ff" points="105.2875,-331.0313 98.5635,-322.8435 98.7139,-333.4373 105.2875,-331.0313"/>
</g>
<!-- 27&#45;&gt;29 -->
<g id="edge6" class="edge">
<title>27&#45;&gt;29</title>
<path fill="none" stroke="#0000ff" d="M133.1745,-431.9555C139.8131,-394.2205 155.2011,-306.7518 163.1113,-261.7882"/>
<polygon fill="#0000ff" stroke="#0000ff" points="166.5756,-262.2965 164.8613,-251.8413 159.6815,-261.0836 166.5756,-262.2965"/>
</g>
<!-- 35 -->
<g id="node38" class="node">
<title>35</title>
<ellipse fill="none" stroke="#000000" cx="84" cy="-378" rx="18" ry="18"/>
<text text-anchor="middle" x="84" y="-376.1" font-family="Bitstream Vera Sans" font-size="8.00" fill="#000000">35</text>
</g>
<!-- 27&#45;&gt;35 -->
<g id="edge7" class="edge">
<title>27&#45;&gt;35</title>
<path fill="none" stroke="#0000ff" d="M120.2446,-434.7307C114.1459,-425.1848 106.1625,-412.6891 99.241,-401.8554"/>
<polygon fill="#0000ff" stroke="#0000ff" points="102.0747,-399.7899 93.7414,-393.2473 96.1759,-403.5587 102.0747,-399.7899"/>
</g>
<!-- 20 -->
<g id="node5" class="node">
<title>20</title>
<ellipse fill="none" stroke="#000000" cx="851" cy="-666" rx="18" ry="18"/>
<text text-anchor="middle" x="851" y="-664.1" font-family="Bitstream Vera Sans" font-size="8.00" fill="#000000">20</text>
</g>
<!-- 21 -->
<g id="node6" class="node">
<title>21</title>
<ellipse fill="none" stroke="#000000" cx="828" cy="-594" rx="18" ry="18"/>
<text text-anchor="middle" x="828" y="-592.1" font-family="Bitstream Vera Sans" font-size="8.00" fill="#000000">21</text>
</g>
<!-- 20&#45;&gt;21 -->
<g id="edge41" class="edge">
<title>20&#45;&gt;21</title>
<path fill="none" stroke="#000000" d="M845.4323,-648.5708C842.7767,-640.2575 839.5399,-630.1249 836.5796,-620.8577"/>
<polygon fill="#000000" stroke="#000000" points="839.8934,-619.7294 833.5164,-611.2687 833.2254,-621.8595 839.8934,-619.7294"/>
</g>
<!-- 19 -->
<g id="node32" class="node">
<title>19</title>
<ellipse fill="none" stroke="#000000" cx="801" cy="-522" rx="18" ry="18"/>
<text text-anchor="middle" x="801" y="-520.1" font-family="Bitstream Vera Sans" font-size="8.00" fill="#000000">19</text>
</g>
<!-- 21&#45;&gt;19 -->
<g id="edge42" class="edge">
<title>21&#45;&gt;19</title>
<path fill="none" stroke="#000000" d="M821.6014,-576.937C818.407,-568.4186 814.471,-557.9227 810.8982,-548.3952"/>
<polygon fill="#000000" stroke="#000000" points="814.1411,-547.0749 807.3527,-538.9405 807.5868,-549.5328 814.1411,-547.0749"/>
</g>
<!-- 22 -->
<g id="node7" class="node">
<title>22</title>
<ellipse fill="none" stroke="#000000" cx="186" cy="-810" rx="18" ry="18"/>
<text text-anchor="middle" x="186" y="-808.1" font-family="Bitstream Vera Sans" font-size="8.00" fill="#000000">22</text>
</g>
<!-- 23 -->
<g id="node8" class="node">
<title>23</title>
<ellipse fill="none" stroke="#000000" cx="175" cy="-738" rx="18" ry="18"/>
<text text-anchor="middle" x="175" y="-736.1" font-family="Bitstream Vera Sans" font-size="8.00" fill="#000000">23</text>
</g>
<!-- 22&#45;&gt;23 -->
<g id="edge43" class="edge">
<title>22&#45;&gt;23</title>
<path fill="none" stroke="#000000" d="M183.2809,-792.2022C182.0645,-784.2406 180.6019,-774.6671 179.2466,-765.7957"/>
<polygon fill="#000000" stroke="#000000" points="182.6961,-765.1992 177.7259,-755.8425 175.7764,-766.2565 182.6961,-765.1992"/>
</g>
<!-- 23&#45;&gt;24 -->
<g id="edge8" class="edge">
<title>23&#45;&gt;24</title>
<path fill="none" stroke="#0000ff" d="M180.5677,-720.5708C183.2233,-712.2575 186.4601,-702.1249 189.4204,-692.8577"/>
<polygon fill="#0000ff" stroke="#0000ff" points="192.7746,-693.8595 192.4836,-683.2687 186.1066,-691.7294 192.7746,-693.8595"/>
</g>
<!-- 23&#45;&gt;25 -->
<g id="edge9" class="edge">
<title>23&#45;&gt;25</title>
<path fill="none" stroke="#0000ff" d="M172.6321,-720.0535C169.3894,-695.4774 163.5341,-651.1008 159.7073,-622.0974"/>
<polygon fill="#0000ff" stroke="#0000ff" points="163.1759,-621.6289 158.3978,-612.1727 156.2361,-622.5447 163.1759,-621.6289"/>
</g>
<!-- 23&#45;&gt;28 -->
<g id="edge10" class="edge">
<title>23&#45;&gt;28</title>
<path fill="none" stroke="#0000ff" d="M157.5805,-732.9419C113.3163,-718.9039 0,-675.0516 0,-594 0,-594 0,-594 0,-450 0,-397.8875 43.3166,-349.4914 70.5045,-324.2478"/>
<polygon fill="#0000ff" stroke="#0000ff" points="72.9422,-326.7626 78.0272,-317.4677 68.2557,-321.5628 72.9422,-326.7626"/>
</g>
<!-- 23&#45;&gt;29 -->
<g id="edge11" class="edge">
<title>23&#45;&gt;29</title>
<path fill="none" stroke="#0000ff" d="M189.088,-726.6472C200.5401,-716.6352 216.1924,-701.0212 225,-684 243.7878,-647.6912 244,-634.8816 244,-594 244,-594 244,-594 244,-378 244,-329.5354 209.9133,-281.3998 187.3962,-254.8893"/>
<polygon fill="#0000ff" stroke="#0000ff" points="189.7703,-252.2876 180.5499,-247.0689 184.5034,-256.8984 189.7703,-252.2876"/>
</g>
<!-- 28&#45;&gt;29 -->
<g id="edge44" class="edge">
<title>28&#45;&gt;29</title>
<path fill="none" stroke="#000000" d="M105.2382,-293.4586C116.8989,-282.4115 134.0696,-266.1446 147.5047,-253.4166"/>
<polygon fill="#000000" stroke="#000000" points="150.0611,-255.816 154.9135,-246.3977 145.2468,-250.7344 150.0611,-255.816"/>
</g>
<!-- 31 -->
<g id="node34" class="node">
<title>31</title>
<ellipse fill="none" stroke="#000000" cx="53" cy="-162" rx="18" ry="18"/>
<text text-anchor="middle" x="53" y="-160.1" font-family="Bitstream Vera Sans" font-size="8.00" fill="#000000">31</text>
</g>
<!-- 29&#45;&gt;31 -->
<g id="edge14" class="edge">
<title>29&#45;&gt;31</title>
<path fill="none" stroke="#0000ff" d="M152.3115,-224.6164C134.6245,-213.9813 105.0639,-196.0367 80,-180 78.9056,-179.2998 77.7892,-178.5796 76.6638,-177.8488"/>
<polygon fill="#0000ff" stroke="#0000ff" points="78.3482,-174.7673 68.0711,-172.1921 74.4991,-180.6141 78.3482,-174.7673"/>
</g>
<!-- 30 -->
<g id="node35" class="node">
<title>30</title>
<ellipse fill="none" stroke="#000000" cx="107" cy="-162" rx="18" ry="18"/>
<text text-anchor="middle" x="107" y="-160.1" font-family="Bitstream Vera Sans" font-size="8.00" fill="#000000">30</text>
</g>
<!-- 29&#45;&gt;30 -->
<g id="edge15" class="edge">
<title>29&#45;&gt;30</title>
<path fill="none" stroke="#0000ff" d="M156.2386,-220.1177C147.4622,-209.7587 135.3061,-195.4105 125.2684,-183.5627"/>
<polygon fill="#0000ff" stroke="#0000ff" points="127.86,-181.2071 118.7253,-175.8397 122.5191,-185.732 127.86,-181.2071"/>
</g>
<!-- 34 -->
<g id="node39" class="node">
<title>34</title>
<ellipse fill="none" stroke="#000000" cx="161" cy="-162" rx="18" ry="18"/>
<text text-anchor="middle" x="161" y="-160.1" font-family="Bitstream Vera Sans" font-size="8.00" fill="#000000">34</text>
</g>
<!-- 29&#45;&gt;34 -->
<g id="edge16" class="edge">
<title>29&#45;&gt;34</title>
<path fill="none" stroke="#0000ff" d="M166.2336,-215.8314C165.485,-208.131 164.5947,-198.9743 163.7627,-190.4166"/>
<polygon fill="#0000ff" stroke="#0000ff" points="167.2415,-190.0276 162.7902,-180.4133 160.2744,-190.7051 167.2415,-190.0276"/>
</g>
<!-- 33 -->
<g id="node40" class="node">
<title>33</title>
<ellipse fill="none" stroke="#000000" cx="174" cy="-18" rx="18" ry="18"/>
<text text-anchor="middle" x="174" y="-16.1" font-family="Bitstream Vera Sans" font-size="8.00" fill="#000000">33</text>
</g>
<!-- 29&#45;&gt;33 -->
<g id="edge12" class="edge">
<title>29&#45;&gt;33</title>
<path fill="none" stroke="#0000ff" d="M179.9674,-219.9647C187.9341,-209.6546 197.6994,-194.9018 202,-180 205.5921,-167.5531 206.6294,-95.127 201,-72 198.4978,-61.7203 193.7713,-51.152 188.9635,-42.1207"/>
<polygon fill="#0000ff" stroke="#0000ff" points="191.974,-40.3337 184.0137,-33.3421 185.8765,-43.7719 191.974,-40.3337"/>
</g>
<!-- 32 -->
<g id="node41" class="node">
<title>32</title>
<ellipse fill="none" stroke="#000000" cx="174" cy="-90" rx="18" ry="18"/>
<text text-anchor="middle" x="174" y="-88.1" font-family="Bitstream Vera Sans" font-size="8.00" fill="#000000">32</text>
</g>
<!-- 29&#45;&gt;32 -->
<g id="edge13" class="edge">
<title>29&#45;&gt;32</title>
<path fill="none" stroke="#0000ff" d="M175.8927,-217.408C180.4272,-206.9405 185.6718,-192.9895 188,-180 191.778,-158.9218 187.6413,-134.959 182.9063,-117.062"/>
<polygon fill="#0000ff" stroke="#0000ff" points="186.2258,-115.9406 180.1046,-107.293 179.4971,-117.8704 186.2258,-115.9406"/>
</g>
<!-- 40 -->
<g id="node11" class="node">
<title>40</title>
<ellipse fill="none" stroke="#000000" cx="627" cy="-1170" rx="18" ry="18"/>
<text text-anchor="middle" x="627" y="-1168.1" font-family="Bitstream Vera Sans" font-size="8.00" fill="#000000">40</text>
</g>
<!-- 1 -->
<g id="node12" class="node">
<title>1</title>
<ellipse fill="none" stroke="#000000" cx="681" cy="-1170" rx="18" ry="18"/>
<text text-anchor="middle" x="681" y="-1168.1" font-family="Bitstream Vera Sans" font-size="8.00" fill="#000000">1</text>
</g>
<!-- 0 -->
<g id="node13" class="node">
<title>0</title>
<ellipse fill="none" stroke="#000000" cx="735" cy="-1170" rx="18" ry="18"/>
<text text-anchor="middle" x="735" y="-1168.1" font-family="Bitstream Vera Sans" font-size="8.00" fill="#000000">0</text>
</g>
<!-- 3 -->
<g id="node14" class="node">
<title>3</title>
<ellipse fill="none" stroke="#000000" cx="53" cy="-234" rx="18" ry="18"/>
<text text-anchor="middle" x="53" y="-232.1" font-family="Bitstream Vera Sans" font-size="8.00" fill="#000000">3</text>
</g>
<!-- 3&#45;&gt;31 -->
<g id="edge45" class="edge">
<title>3&#45;&gt;31</title>
<path fill="none" stroke="#000000" d="M53,-215.8314C53,-208.131 53,-198.9743 53,-190.4166"/>
<polygon fill="#000000" stroke="#000000" points="56.5001,-190.4132 53,-180.4133 49.5001,-190.4133 56.5001,-190.4132"/>
</g>
<!-- 2 -->
<g id="node15" class="node">
<title>2</title>
<ellipse fill="none" stroke="#000000" cx="774" cy="-594" rx="18" ry="18"/>
<text text-anchor="middle" x="774" y="-592.1" font-family="Bitstream Vera Sans" font-size="8.00" fill="#000000">2</text>
</g>
<!-- 2&#45;&gt;19 -->
<g id="edge46" class="edge">
<title>2&#45;&gt;19</title>
<path fill="none" stroke="#000000" d="M780.3986,-576.937C783.593,-568.4186 787.529,-557.9227 791.1018,-548.3952"/>
<polygon fill="#000000" stroke="#000000" points="794.4132,-549.5328 794.6473,-538.9405 787.8589,-547.0749 794.4132,-549.5328"/>
</g>
<!-- 5 -->
<g id="node16" class="node">
<title>5</title>
<ellipse fill="none" stroke="#000000" cx="430" cy="-1098" rx="18" ry="18"/>
<text text-anchor="middle" x="430" y="-1096.1" font-family="Bitstream Vera Sans" font-size="8.00" fill="#000000">5</text>
</g>
<!-- 6 -->
<g id="node19" class="node">
<title>6</title>
<ellipse fill="none" stroke="#000000" cx="465" cy="-1026" rx="18" ry="18"/>
<text text-anchor="middle" x="465" y="-1024.1" font-family="Bitstream Vera Sans" font-size="8.00" fill="#000000">6</text>
</g>
<!-- 5&#45;&gt;6 -->
<g id="edge49" class="edge">
<title>5&#45;&gt;6</title>
<path fill="none" stroke="#000000" d="M437.942,-1081.6621C442.2828,-1072.7326 447.7552,-1061.475 452.641,-1051.4243"/>
<polygon fill="#000000" stroke="#000000" points="455.8652,-1052.7971 457.0894,-1042.2733 449.5696,-1049.7368 455.8652,-1052.7971"/>
</g>
<!-- 11 -->
<g id="node24" class="node">
<title>11</title>
<ellipse fill="none" stroke="#000000" cx="411" cy="-1026" rx="18" ry="18"/>
<text text-anchor="middle" x="411" y="-1024.1" font-family="Bitstream Vera Sans" font-size="8.00" fill="#000000">11</text>
</g>
<!-- 5&#45;&gt;11 -->
<g id="edge47" class="edge">
<title>5&#45;&gt;11</title>
<path fill="none" stroke="#000000" d="M425.4006,-1080.5708C423.2461,-1072.4065 420.6286,-1062.4873 418.2191,-1053.3566"/>
<polygon fill="#000000" stroke="#000000" points="421.5586,-1052.2942 415.6229,-1043.5182 414.7903,-1054.0803 421.5586,-1052.2942"/>
</g>
<!-- 36 -->
<g id="node37" class="node">
<title>36</title>
<ellipse fill="none" stroke="#000000" cx="300" cy="-1026" rx="18" ry="18"/>
<text text-anchor="middle" x="300" y="-1024.1" font-family="Bitstream Vera Sans" font-size="8.00" fill="#000000">36</text>
</g>
<!-- 5&#45;&gt;36 -->
<g id="edge48" class="edge">
<title>5&#45;&gt;36</title>
<path fill="none" stroke="#000000" d="M414.0594,-1089.1714C391.8379,-1076.8641 351.3273,-1054.4274 325.0485,-1039.873"/>
<polygon fill="#000000" stroke="#000000" points="326.5146,-1036.6841 316.0709,-1034.9008 323.1231,-1042.8076 326.5146,-1036.6841"/>
</g>
<!-- 4 -->
<g id="node17" class="node">
<title>4</title>
<ellipse fill="none" stroke="#000000" cx="849" cy="-1026" rx="18" ry="18"/>
<text text-anchor="middle" x="849" y="-1024.1" font-family="Bitstream Vera Sans" font-size="8.00" fill="#000000">4</text>
</g>
<!-- 14 -->
<g id="node29" class="node">
<title>14</title>
<ellipse fill="none" stroke="#000000" cx="872" cy="-954" rx="18" ry="18"/>
<text text-anchor="middle" x="872" y="-952.1" font-family="Bitstream Vera Sans" font-size="8.00" fill="#000000">14</text>
</g>
<!-- 4&#45;&gt;14 -->
<g id="edge50" class="edge">
<title>4&#45;&gt;14</title>
<path fill="none" stroke="#000000" d="M854.5677,-1008.5708C857.2233,-1000.2575 860.4601,-990.1249 863.4204,-980.8577"/>
<polygon fill="#000000" stroke="#000000" points="866.7746,-981.8595 866.4836,-971.2687 860.1066,-979.7294 866.7746,-981.8595"/>
</g>
<!-- 7 -->
<g id="node18" class="node">
<title>7</title>
<ellipse fill="none" stroke="#000000" cx="670" cy="-1098" rx="18" ry="18"/>
<text text-anchor="middle" x="670" y="-1096.1" font-family="Bitstream Vera Sans" font-size="8.00" fill="#000000">7</text>
</g>
<!-- 8 -->
<g id="node21" class="node">
<title>8</title>
<ellipse fill="none" stroke="#000000" cx="725" cy="-1026" rx="18" ry="18"/>
<text text-anchor="middle" x="725" y="-1024.1" font-family="Bitstream Vera Sans" font-size="8.00" fill="#000000">8</text>
</g>
<!-- 7&#45;&gt;8 -->
<g id="edge51" class="edge">
<title>7&#45;&gt;8</title>
<path fill="none" stroke="#000000" d="M681.1301,-1083.4297C688.7341,-1073.4754 698.9634,-1060.0842 707.6316,-1048.7368"/>
<polygon fill="#000000" stroke="#000000" points="710.5974,-1050.62 713.8865,-1040.5486 705.0347,-1046.3707 710.5974,-1050.62"/>
</g>
<!-- 9 -->
<g id="node20" class="node">
<title>9</title>
<ellipse fill="none" stroke="#000000" cx="555" cy="-1170" rx="18" ry="18"/>
<text text-anchor="middle" x="555" y="-1168.1" font-family="Bitstream Vera Sans" font-size="8.00" fill="#000000">9</text>
</g>
<!-- 6&#45;&gt;9 -->
<g id="edge52" class="edge">
<title>6&#45;&gt;9</title>
<path fill="none" stroke="#000000" d="M478.1311,-1038.6852C491.0333,-1056.2613 509.776,-1088.9177 527,-1116 532.7939,-1125.11 539.3829,-1134.8951 544.9191,-1143.5996"/>
<polygon fill="#000000" stroke="#000000" points="541.9998,-1145.5337 550.2298,-1152.2059 547.9569,-1141.8577 541.9998,-1145.5337"/>
</g>
<!-- 9&#45;&gt;22 -->
<g id="edge26" class="edge">
<title>9&#45;&gt;22</title>
<path fill="none" stroke="#0000ff" d="M536.7359,-1168.751C477.1216,-1164.3906 289.1834,-1148.3217 239,-1116 198.3751,-1089.8346 178,-1074.322 178,-1026 178,-1026 178,-1026 178,-954 178,-913.8141 181.1444,-867.417 183.4905,-838.3918"/>
<polygon fill="#0000ff" stroke="#0000ff" points="186.9999,-838.4235 184.3424,-828.1674 180.0241,-837.8422 186.9999,-838.4235"/>
</g>
<!-- 9&#45;&gt;23 -->
<g id="edge35" class="edge">
<title>9&#45;&gt;23</title>
<path fill="none" stroke="#0000ff" d="M536.6041,-1169.3929C470.7008,-1166.9016 247.2864,-1155.6381 190,-1116 152.3712,-1089.9635 140,-1071.7584 140,-1026 140,-1026 140,-1026 140,-882 140,-840.0676 154.1867,-793.1604 164.4959,-764.6095"/>
<polygon fill="#0000ff" stroke="#0000ff" points="167.8776,-765.5573 168.0851,-754.9645 161.3172,-763.1159 167.8776,-765.5573"/>
</g>
<!-- 9&#45;&gt;7 -->
<g id="edge31" class="edge">
<title>9&#45;&gt;7</title>
<path fill="none" stroke="#0000ff" d="M570.5094,-1160.2898C589.9079,-1148.1446 623.3261,-1127.2219 646.0279,-1113.0086"/>
<polygon fill="#0000ff" stroke="#0000ff" points="648.1178,-1115.8296 654.7363,-1107.5564 644.4031,-1109.8965 648.1178,-1115.8296"/>
</g>
<!-- 9&#45;&gt;6 -->
<g id="edge32" class="edge">
<title>9&#45;&gt;6</title>
<path fill="none" stroke="#0000ff" d="M540.2371,-1158.9795C530.4717,-1148.17 518.6361,-1131.1514 509,-1116 495.7809,-1095.2149 481.6673,-1071.1466 472.6755,-1053.132"/>
<polygon fill="#0000ff" stroke="#0000ff" points="475.6976,-1051.3368 468.2452,-1043.8061 469.3748,-1054.3405 475.6976,-1051.3368"/>
</g>
<!-- 9&#45;&gt;9 -->
<g id="edge33" class="edge">
<title>9&#45;&gt;9</title>
<path fill="none" stroke="#0000ff" d="M569.0417,-1181.7565C579.9126,-1186.1532 591,-1182.2344 591,-1170 591,-1161.5889 585.7595,-1157.1081 578.9516,-1156.5578"/>
<polygon fill="#0000ff" stroke="#0000ff" points="578.3132,-1153.116 569.0417,-1158.2435 579.4871,-1160.0169 578.3132,-1153.116"/>
</g>
<!-- 9&#45;&gt;8 -->
<g id="edge30" class="edge">
<title>9&#45;&gt;8</title>
<path fill="none" stroke="#0000ff" d="M570.5855,-1160.1727C576.9541,-1157.4883 584.248,-1154.6029 591,-1152 633.9067,-1135.4596 656.3697,-1149.378 688,-1116 704.2197,-1098.8841 711.0512,-1072.5204 715.5297,-1052.7433"/>
<polygon fill="#0000ff" stroke="#0000ff" points="718.9841,-1053.3337 717.7572,-1042.8102 712.1538,-1051.802 718.9841,-1053.3337"/>
</g>
<!-- 39 -->
<g id="node22" class="node">
<title>39</title>
<ellipse fill="none" stroke="#000000" cx="780" cy="-1098" rx="18" ry="18"/>
<text text-anchor="middle" x="780" y="-1096.1" font-family="Bitstream Vera Sans" font-size="8.00" fill="#000000">39</text>
</g>
<!-- 9&#45;&gt;39 -->
<g id="edge34" class="edge">
<title>9&#45;&gt;39</title>
<path fill="none" stroke="#0000ff" d="M571.8871,-1162.5843C580.2434,-1159.0854 590.543,-1155.0247 600,-1152 664.4781,-1131.3773 685.021,-1140.8266 748,-1116 750.5796,-1114.9831 753.2064,-1113.7921 755.79,-1112.5155"/>
<polygon fill="#0000ff" stroke="#0000ff" points="757.645,-1115.4921 764.7963,-1107.6748 754.3309,-1109.3262 757.645,-1115.4921"/>
</g>
<!-- 38 -->
<g id="node23" class="node">
<title>38</title>
<ellipse fill="none" stroke="#000000" cx="338" cy="-1098" rx="18" ry="18"/>
<text text-anchor="middle" x="338" y="-1096.1" font-family="Bitstream Vera Sans" font-size="8.00" fill="#000000">38</text>
</g>
<!-- 9&#45;&gt;38 -->
<g id="edge29" class="edge">
<title>9&#45;&gt;38</title>
<path fill="none" stroke="#0000ff" d="M537.1964,-1166.233C503.6695,-1158.8297 429.214,-1140.9094 370,-1116 367.4974,-1114.9472 364.9418,-1113.7465 362.42,-1112.4762"/>
<polygon fill="#0000ff" stroke="#0000ff" points="364.0525,-1109.3801 353.5901,-1107.7105 360.7278,-1115.5402 364.0525,-1109.3801"/>
</g>
<!-- 9&#45;&gt;11 -->
<g id="edge17" class="edge">
<title>9&#45;&gt;11</title>
<path fill="none" stroke="#0000ff" d="M537.3142,-1166.3684C500.7579,-1158.4654 418.9493,-1138.5921 403,-1116 390.0399,-1097.6421 394.0895,-1071.6476 400.1702,-1052.3117"/>
<polygon fill="#0000ff" stroke="#0000ff" points="403.564,-1053.2094 403.5587,-1042.6145 396.9558,-1050.9002 403.564,-1053.2094"/>
</g>
<!-- 10 -->
<g id="node25" class="node">
<title>10</title>
<ellipse fill="none" stroke="#000000" cx="578" cy="-1098" rx="18" ry="18"/>
<text text-anchor="middle" x="578" y="-1096.1" font-family="Bitstream Vera Sans" font-size="8.00" fill="#000000">10</text>
</g>
<!-- 9&#45;&gt;10 -->
<g id="edge18" class="edge">
<title>9&#45;&gt;10</title>
<path fill="none" stroke="#0000ff" d="M560.5677,-1152.5708C563.2233,-1144.2575 566.4601,-1134.1249 569.4204,-1124.8577"/>
<polygon fill="#0000ff" stroke="#0000ff" points="572.7746,-1125.8595 572.4836,-1115.2687 566.1066,-1123.7294 572.7746,-1125.8595"/>
</g>
<!-- 13 -->
<g id="node26" class="node">
<title>13</title>
<ellipse fill="none" stroke="#000000" cx="263" cy="-882" rx="18" ry="18"/>
<text text-anchor="middle" x="263" y="-880.1" font-family="Bitstream Vera Sans" font-size="8.00" fill="#000000">13</text>
</g>
<!-- 9&#45;&gt;13 -->
<g id="edge19" class="edge">
<title>9&#45;&gt;13</title>
<path fill="none" stroke="#0000ff" d="M536.9809,-1169.4703C479.1688,-1167.3631 300.0243,-1157.5339 264,-1116 213.2859,-1057.5296 237.5029,-956.4847 253.2092,-908.6196"/>
<polygon fill="#0000ff" stroke="#0000ff" points="256.5814,-909.5745 256.4961,-898.98 249.956,-907.3153 256.5814,-909.5745"/>
</g>
<!-- 12 -->
<g id="node27" class="node">
<title>12</title>
<ellipse fill="none" stroke="#000000" cx="481" cy="-954" rx="18" ry="18"/>
<text text-anchor="middle" x="481" y="-952.1" font-family="Bitstream Vera Sans" font-size="8.00" fill="#000000">12</text>
</g>
<!-- 9&#45;&gt;12 -->
<g id="edge20" class="edge">
<title>9&#45;&gt;12</title>
<path fill="none" stroke="#0000ff" d="M549.0694,-1152.6889C536.183,-1115.0746 505.552,-1025.6652 490.16,-980.7374"/>
<polygon fill="#0000ff" stroke="#0000ff" points="493.4083,-979.4195 486.8562,-971.0937 486.7862,-981.6883 493.4083,-979.4195"/>
</g>
<!-- 15 -->
<g id="node28" class="node">
<title>15</title>
<ellipse fill="none" stroke="#000000" cx="895" cy="-1098" rx="18" ry="18"/>
<text text-anchor="middle" x="895" y="-1096.1" font-family="Bitstream Vera Sans" font-size="8.00" fill="#000000">15</text>
</g>
<!-- 9&#45;&gt;15 -->
<g id="edge21" class="edge">
<title>9&#45;&gt;15</title>
<path fill="none" stroke="#0000ff" d="M571.3553,-1162.3939C579.7577,-1158.7618 590.2545,-1154.6416 600,-1152 704.1034,-1123.7819 735.0443,-1140.8614 840,-1116 849.3762,-1113.779 859.4464,-1110.6958 868.3747,-1107.7082"/>
<polygon fill="#0000ff" stroke="#0000ff" points="869.5632,-1111.0006 877.8718,-1104.4267 867.2771,-1104.3844 869.5632,-1111.0006"/>
</g>
<!-- 9&#45;&gt;14 -->
<g id="edge22" class="edge">
<title>9&#45;&gt;14</title>
<path fill="none" stroke="#0000ff" d="M571.3819,-1162.4899C579.7911,-1158.8822 590.2859,-1154.755 600,-1152 689.8379,-1126.5215 742.1079,-1183.1492 807,-1116 840.6762,-1081.1524 801.2499,-1051.7936 822,-1008 828.5392,-994.1987 839.8726,-981.5129 850.0974,-971.9097"/>
<polygon fill="#0000ff" stroke="#0000ff" points="852.4805,-974.474 857.6026,-965.1996 847.8149,-969.2556 852.4805,-974.474"/>
</g>
<!-- 17 -->
<g id="node30" class="node">
<title>17</title>
<ellipse fill="none" stroke="#000000" cx="624" cy="-810" rx="18" ry="18"/>
<text text-anchor="middle" x="624" y="-808.1" font-family="Bitstream Vera Sans" font-size="8.00" fill="#000000">17</text>
</g>
<!-- 9&#45;&gt;17 -->
<g id="edge23" class="edge">
<title>9&#45;&gt;17</title>
<path fill="none" stroke="#0000ff" d="M569.088,-1158.6472C580.5401,-1148.6352 596.1924,-1133.0212 605,-1116 623.7878,-1079.6912 624,-1066.8816 624,-1026 624,-1026 624,-1026 624,-954 624,-913.876 624,-867.4631 624,-838.4177"/>
<polygon fill="#0000ff" stroke="#0000ff" points="627.5001,-838.1853 624,-828.1854 620.5001,-838.1854 627.5001,-838.1853"/>
</g>
<!-- 16 -->
<g id="node31" class="node">
<title>16</title>
<ellipse fill="none" stroke="#000000" cx="941" cy="-1026" rx="18" ry="18"/>
<text text-anchor="middle" x="941" y="-1024.1" font-family="Bitstream Vera Sans" font-size="8.00" fill="#000000">16</text>
</g>
<!-- 9&#45;&gt;16 -->
<g id="edge24" class="edge">
<title>9&#45;&gt;16</title>
<path fill="none" stroke="#0000ff" d="M571.3148,-1162.2386C579.7068,-1158.5669 590.2066,-1154.4582 600,-1152 669.8351,-1134.4712 868.6858,-1164.392 922,-1116 938.8391,-1100.7155 942.8233,-1074.5861 943.0435,-1054.4068"/>
<polygon fill="#0000ff" stroke="#0000ff" points="946.5391,-1054.1328 942.8503,-1044.2009 939.5403,-1054.2654 946.5391,-1054.1328"/>
</g>
<!-- 18 -->
<g id="node33" class="node">
<title>18</title>
<ellipse fill="none" stroke="#000000" cx="805" cy="-738" rx="18" ry="18"/>
<text text-anchor="middle" x="805" y="-736.1" font-family="Bitstream Vera Sans" font-size="8.00" fill="#000000">18</text>
</g>
<!-- 9&#45;&gt;18 -->
<g id="edge25" class="edge">
<title>9&#45;&gt;18</title>
<path fill="none" stroke="#0000ff" d="M571.3072,-1162.2081C579.6973,-1158.5285 590.1976,-1154.4221 600,-1152 674.8324,-1133.5096 882.2223,-1160.7296 945,-1116 980.9494,-1090.3858 987,-1070.1412 987,-1026 987,-1026 987,-1026 987,-882 987,-803.9727 882.849,-761.592 832.1228,-745.578"/>
<polygon fill="#0000ff" stroke="#0000ff" points="833.0365,-742.1977 822.4509,-742.6406 831.0023,-748.8956 833.0365,-742.1977"/>
</g>
<!-- 37 -->
<g id="node36" class="node">
<title>37</title>
<ellipse fill="none" stroke="#000000" cx="300" cy="-954" rx="18" ry="18"/>
<text text-anchor="middle" x="300" y="-952.1" font-family="Bitstream Vera Sans" font-size="8.00" fill="#000000">37</text>
</g>
<!-- 9&#45;&gt;37 -->
<g id="edge27" class="edge">
<title>9&#45;&gt;37</title>
<path fill="none" stroke="#0000ff" d="M536.7891,-1168.7136C483.2247,-1164.565 327.724,-1149.7944 292,-1116 256.5947,-1082.5071 261.8025,-1055.4334 273,-1008 275.4307,-997.7032 280.1422,-987.1312 284.9579,-978.1018"/>
<polygon fill="#0000ff" stroke="#0000ff" points="288.0445,-979.7539 289.9229,-969.3269 281.9521,-976.3067 288.0445,-979.7539"/>
</g>
<!-- 9&#45;&gt;36 -->
<g id="edge28" class="edge">
<title>9&#45;&gt;36</title>
<path fill="none" stroke="#0000ff" d="M536.7977,-1168.6324C485.5094,-1164.3865 341.5538,-1149.6435 311,-1116 296.0191,-1099.5042 294.2425,-1073.7324 295.648,-1053.9871"/>
<polygon fill="#0000ff" stroke="#0000ff" points="299.1326,-1054.315 296.6559,-1044.0138 292.168,-1053.6111 299.1326,-1054.315"/>
</g>
<!-- 8&#45;&gt;9 -->
<g id="edge53" class="edge">
<title>8&#45;&gt;9</title>
<path fill="none" stroke="#000000" d="M730.498,-1043.1633C731.1317,-1063.1339 725.0222,-1095.9267 706,-1116 674.3697,-1149.378 651.9067,-1135.4596 609,-1152 600.4435,-1155.2985 591.0166,-1159.0508 582.3168,-1162.2727"/>
<polygon fill="#000000" stroke="#000000" points="581.1335,-1158.9788 572.8886,-1165.6325 583.4832,-1165.5726 581.1335,-1158.9788"/>
</g>
<!-- 38&#45;&gt;6 -->
<g id="edge56" class="edge">
<title>38&#45;&gt;6</title>
<path fill="none" stroke="#000000" d="M354.1905,-1089.8458C374.1828,-1079.6432 409.0886,-1061.392 438,-1044 439.1133,-1043.3303 440.2452,-1042.6351 441.3832,-1041.9245"/>
<polygon fill="#000000" stroke="#000000" points="443.5226,-1044.7093 450.0222,-1036.3424 439.7235,-1038.8299 443.5226,-1044.7093"/>
</g>
<!-- 38&#45;&gt;11 -->
<g id="edge54" class="edge">
<title>38&#45;&gt;11</title>
<path fill="none" stroke="#000000" d="M351.0509,-1085.1278C362.0546,-1074.2749 377.9889,-1058.5589 390.6642,-1046.0572"/>
<polygon fill="#000000" stroke="#000000" points="393.4001,-1048.2748 398.0621,-1038.7607 388.4846,-1043.291 393.4001,-1048.2748"/>
</g>
<!-- 38&#45;&gt;36 -->
<g id="edge55" class="edge">
<title>38&#45;&gt;36</title>
<path fill="none" stroke="#000000" d="M329.5666,-1082.0209C324.7452,-1072.8857 318.5929,-1061.2286 313.1502,-1050.9162"/>
<polygon fill="#000000" stroke="#000000" points="316.1728,-1049.1447 308.4099,-1041.9345 309.9821,-1052.412 316.1728,-1049.1447"/>
</g>
<!-- 11&#45;&gt;12 -->
<g id="edge57" class="edge">
<title>11&#45;&gt;12</title>
<path fill="none" stroke="#000000" d="M423.8391,-1012.7941C434.2985,-1002.0358 449.2435,-986.6639 461.2288,-974.3361"/>
<polygon fill="#000000" stroke="#000000" points="463.781,-976.732 468.2423,-967.1222 458.762,-971.8524 463.781,-976.732"/>
</g>
<!-- 10&#45;&gt;12 -->
<g id="edge58" class="edge">
<title>10&#45;&gt;12</title>
<path fill="none" stroke="#000000" d="M574.605,-1080.1232C570.3245,-1060.9627 561.571,-1030.2979 546,-1008 535.1133,-992.4101 518.589,-978.7645 504.9261,-969.0905"/>
<polygon fill="#000000" stroke="#000000" points="506.6863,-966.055 496.4489,-963.3264 502.7503,-971.8436 506.6863,-966.055"/>
</g>
<!-- 13&#45;&gt;24 -->
<g id="edge59" class="edge">
<title>13&#45;&gt;24</title>
<path fill="none" stroke="#000000" d="M257.7907,-864.6889C246.4995,-827.1675 219.6987,-738.1064 206.1464,-693.071"/>
<polygon fill="#000000" stroke="#000000" points="209.4674,-691.9607 203.2342,-683.3935 202.7643,-693.9779 209.4674,-691.9607"/>
</g>
<!-- 13&#45;&gt;26 -->
<g id="edge60" class="edge">
<title>13&#45;&gt;26</title>
<path fill="none" stroke="#000000" d="M266.8449,-864.3639C272.3968,-837.3149 282,-783.8944 282,-738 282,-738 282,-738 282,-666 282,-606.4451 220.5013,-558.8685 184.831,-536.2821"/>
<polygon fill="#000000" stroke="#000000" points="186.3037,-533.0796 175.9494,-530.835 182.644,-539.0467 186.3037,-533.0796"/>
</g>
<!-- 13&#45;&gt;22 -->
<g id="edge61" class="edge">
<title>13&#45;&gt;22</title>
<path fill="none" stroke="#000000" d="M249.5876,-869.4586C237.7735,-858.4115 220.3769,-842.1446 206.765,-829.4166"/>
<polygon fill="#000000" stroke="#000000" points="208.9534,-826.6712 199.2587,-822.3977 204.1725,-831.7842 208.9534,-826.6712"/>
</g>
<!-- 13&#45;&gt;17 -->
<g id="edge62" class="edge">
<title>13&#45;&gt;17</title>
<path fill="none" stroke="#000000" d="M280.902,-878.4295C339.3618,-866.77 524.9731,-829.7505 595.9914,-815.5862"/>
<polygon fill="#000000" stroke="#000000" points="596.8677,-818.9805 605.9899,-813.592 595.4984,-812.1157 596.8677,-818.9805"/>
</g>
<!-- 12&#45;&gt;13 -->
<g id="edge63" class="edge">
<title>12&#45;&gt;13</title>
<path fill="none" stroke="#000000" d="M463.8939,-948.3503C426.1802,-935.8944 335.6298,-905.9878 290.1017,-890.951"/>
<polygon fill="#000000" stroke="#000000" points="290.9215,-887.5359 280.3283,-887.7231 288.7261,-894.1827 290.9215,-887.5359"/>
</g>
<!-- 15&#45;&gt;16 -->
<g id="edge64" class="edge">
<title>15&#45;&gt;16</title>
<path fill="none" stroke="#000000" d="M904.7554,-1082.7307C910.8541,-1073.1848 918.8375,-1060.6891 925.759,-1049.8554"/>
<polygon fill="#000000" stroke="#000000" points="928.8241,-1051.5587 931.2586,-1041.2473 922.9253,-1047.7899 928.8241,-1051.5587"/>
</g>
<!-- 14&#45;&gt;15 -->
<g id="edge65" class="edge">
<title>14&#45;&gt;15</title>
<path fill="none" stroke="#000000" d="M874.9026,-972.1727C878.8472,-996.8697 885.9373,-1041.2595 890.5547,-1070.1684"/>
<polygon fill="#000000" stroke="#000000" points="887.1,-1070.7307 892.1335,-1080.0535 894.0124,-1069.6266 887.1,-1070.7307"/>
</g>
<!-- 17&#45;&gt;18 -->
<g id="edge66" class="edge">
<title>17&#45;&gt;18</title>
<path fill="none" stroke="#000000" d="M641.028,-803.2264C672.7761,-790.5974 741.1926,-763.3819 778.8412,-748.4057"/>
<polygon fill="#000000" stroke="#000000" points="780.1509,-751.6515 788.1491,-744.7031 777.5635,-745.1473 780.1509,-751.6515"/>
</g>
<!-- 16&#45;&gt;14 -->
<g id="edge67" class="edge">
<title>16&#45;&gt;14</title>
<path fill="none" stroke="#000000" d="M928.3443,-1012.7941C918.1316,-1002.1373 903.5804,-986.9535 891.8239,-974.6858"/>
<polygon fill="#000000" stroke="#000000" points="894.0215,-971.9204 884.5754,-967.1222 888.9675,-976.7638 894.0215,-971.9204"/>
</g>
<!-- 19&#45;&gt;20 -->
<g id="edge68" class="edge">
<title>19&#45;&gt;20</title>
<path fill="none" stroke="#000000" d="M816.1653,-531.9027C829.2322,-541.4268 847.1865,-557.1365 855,-576 863.2439,-595.9024 861.459,-620.4412 858.0505,-638.8663"/>
<polygon fill="#000000" stroke="#000000" points="854.6229,-638.1582 855.9817,-648.6655 861.472,-639.6042 854.6229,-638.1582"/>
</g>
<!-- 18&#45;&gt;20 -->
<g id="edge37" class="edge">
<title>18&#45;&gt;20</title>
<path fill="none" stroke="#0000ff" d="M814.7554,-722.7307C820.8541,-713.1848 828.8375,-700.6891 835.759,-689.8554"/>
<polygon fill="#0000ff" stroke="#0000ff" points="838.8241,-691.5587 841.2586,-681.2473 832.9253,-687.7899 838.8241,-691.5587"/>
</g>
<!-- 18&#45;&gt;21 -->
<g id="edge38" class="edge">
<title>18&#45;&gt;21</title>
<path fill="none" stroke="#0000ff" d="M807.8665,-720.0535C811.7918,-695.4774 818.8797,-651.1008 823.5122,-622.0974"/>
<polygon fill="#0000ff" stroke="#0000ff" points="826.9763,-622.5996 825.0974,-612.1727 820.0639,-621.4955 826.9763,-622.5996"/>
</g>
<!-- 18&#45;&gt;19 -->
<g id="edge36" class="edge">
<title>18&#45;&gt;19</title>
<path fill="none" stroke="#0000ff" d="M795.1527,-722.474C781.1828,-699.433 756.2775,-654.3419 747,-612 743.5755,-596.3708 740.8771,-590.7821 747,-576 753.2874,-560.8208 766.1412,-547.6837 777.7309,-538.1685"/>
<polygon fill="#0000ff" stroke="#0000ff" points="780.0645,-540.7884 785.8347,-531.9027 775.7827,-535.2507 780.0645,-540.7884"/>
</g>
<!-- 31&#45;&gt;32 -->
<g id="edge69" class="edge">
<title>31&#45;&gt;32</title>
<path fill="none" stroke="#000000" d="M68.0217,-151.7295C71.8917,-149.1544 76.0731,-146.4332 80,-144 103.1296,-129.6685 130.1145,-114.3018 149.2234,-103.6399"/>
<polygon fill="#000000" stroke="#000000" points="151.135,-106.5818 158.1777,-98.6665 147.7361,-100.4623 151.135,-106.5818"/>
</g>
<!-- 30&#45;&gt;28 -->
<g id="edge70" class="edge">
<title>30&#45;&gt;28</title>
<path fill="none" stroke="#000000" d="M105.107,-180.1727C102.5457,-204.7613 97.951,-248.8705 94.9388,-277.7871"/>
<polygon fill="#000000" stroke="#000000" points="91.4244,-277.7446 93.8694,-288.0535 98.3867,-278.4699 91.4244,-277.7446"/>
</g>
<!-- 37&#45;&gt;38 -->
<g id="edge71" class="edge">
<title>37&#45;&gt;38</title>
<path fill="none" stroke="#000000" d="M309.5254,-969.475C315.5247,-979.9639 322.8878,-994.3511 327,-1008 333.0451,-1028.0647 335.7777,-1051.5992 337.0082,-1069.5688"/>
<polygon fill="#000000" stroke="#000000" points="333.522,-1069.9122 337.5847,-1079.6971 340.5107,-1069.5143 333.522,-1069.9122"/>
</g>
<!-- 36&#45;&gt;37 -->
<g id="edge72" class="edge">
<title>36&#45;&gt;37</title>
<path fill="none" stroke="#000000" d="M300,-1007.8314C300,-1000.131 300,-990.9743 300,-982.4166"/>
<polygon fill="#000000" stroke="#000000" points="303.5001,-982.4132 300,-972.4133 296.5001,-982.4133 303.5001,-982.4132"/>
</g>
<!-- 35&#45;&gt;28 -->
<g id="edge73" class="edge">
<title>35&#45;&gt;28</title>
<path fill="none" stroke="#000000" d="M86.0187,-359.8314C86.8875,-352.0125 87.9231,-342.6923 88.8864,-334.0221"/>
<polygon fill="#000000" stroke="#000000" points="92.3838,-334.2388 90.0096,-323.9134 85.4266,-333.4657 92.3838,-334.2388"/>
</g>
<!-- 33&#45;&gt;31 -->
<g id="edge74" class="edge">
<title>33&#45;&gt;31</title>
<path fill="none" stroke="#000000" d="M162.2553,-31.9771C141.0627,-57.1982 96.2968,-110.4733 71.1412,-140.4104"/>
<polygon fill="#000000" stroke="#000000" points="68.3556,-138.285 64.602,-148.1927 73.7148,-142.7883 68.3556,-138.285"/>
</g>
<!-- 32&#45;&gt;33 -->
<g id="edge75" class="edge">
<title>32&#45;&gt;33</title>
<path fill="none" stroke="#000000" d="M174,-71.8314C174,-64.131 174,-54.9743 174,-46.4166"/>
<polygon fill="#000000" stroke="#000000" points="177.5001,-46.4132 174,-36.4133 170.5001,-46.4133 177.5001,-46.4132"/>
</g>
</g>
</svg>
