<?xml version="1.0" encoding="UTF-8" standalone="no"?>
<!DOCTYPE svg PUBLIC "-//W3C//DTD SVG 1.1//EN"
 "http://www.w3.org/Graphics/SVG/1.1/DTD/svg11.dtd">
<!-- Generated by graphviz version 2.40.1 (20161225.0304)
 -->
<!-- Title: G Pages: 1 -->
<svg width="207pt" height="1916pt"
 viewBox="0.00 0.00 207.00 1916.00" xmlns="http://www.w3.org/2000/svg" xmlns:xlink="http://www.w3.org/1999/xlink">
<g id="graph0" class="graph" transform="scale(1 1) rotate(0) translate(4 1912)">
<title>G</title>
<polygon fill="#ffffff" stroke="transparent" points="-4,4 -4,-1912 203,-1912 203,4 -4,4"/>
<!-- 24 -->
<g id="node1" class="node">
<title>24</title>
<ellipse fill="none" stroke="#000000" cx="181" cy="-1458" rx="18" ry="18"/>
<text text-anchor="middle" x="181" y="-1456.1" font-family="Bitstream Vera Sans" font-size="8.00" fill="#000000">24</text>
</g>
<!-- 23 -->
<g id="node8" class="node">
<title>23</title>
<ellipse fill="none" stroke="#000000" cx="113" cy="-1386" rx="18" ry="18"/>
<text text-anchor="middle" x="113" y="-1384.1" font-family="Bitstream Vera Sans" font-size="8.00" fill="#000000">23</text>
</g>
<!-- 24&#45;&gt;23 -->
<g id="edge1" class="edge">
<title>24&#45;&gt;23</title>
<path fill="none" stroke="#000000" d="M168.5278,-1444.7941C158.463,-1434.1373 144.1227,-1418.9535 132.5366,-1406.6858"/>
<polygon fill="#000000" stroke="#000000" points="134.804,-1403.9892 125.3932,-1399.1222 129.7149,-1408.7955 134.804,-1403.9892"/>
</g>
<!-- 25 -->
<g id="node2" class="node">
<title>25</title>
<ellipse fill="none" stroke="#000000" cx="181" cy="-1530" rx="18" ry="18"/>
<text text-anchor="middle" x="181" y="-1528.1" font-family="Bitstream Vera Sans" font-size="8.00" fill="#000000">25</text>
</g>
<!-- 25&#45;&gt;24 -->
<g id="edge2" class="edge">
<title>25&#45;&gt;24</title>
<path fill="none" stroke="#000000" d="M181,-1511.8314C181,-1504.131 181,-1494.9743 181,-1486.4166"/>
<polygon fill="#000000" stroke="#000000" points="184.5001,-1486.4132 181,-1476.4133 177.5001,-1486.4133 184.5001,-1486.4132"/>
</g>
<!-- 26 -->
<g id="node3" class="node">
<title>26</title>
<ellipse fill="none" stroke="#000000" cx="181" cy="-1602" rx="18" ry="18"/>
<text text-anchor="middle" x="181" y="-1600.1" font-family="Bitstream Vera Sans" font-size="8.00" fill="#000000">26</text>
</g>
<!-- 26&#45;&gt;25 -->
<g id="edge3" class="edge">
<title>26&#45;&gt;25</title>
<path fill="none" stroke="#000000" d="M181,-1583.8314C181,-1576.131 181,-1566.9743 181,-1558.4166"/>
<polygon fill="#000000" stroke="#000000" points="184.5001,-1558.4132 181,-1548.4133 177.5001,-1558.4133 184.5001,-1558.4132"/>
</g>
<!-- 27 -->
<g id="node4" class="node">
<title>27</title>
<ellipse fill="none" stroke="#000000" cx="181" cy="-1674" rx="18" ry="18"/>
<text text-anchor="middle" x="181" y="-1672.1" font-family="Bitstream Vera Sans" font-size="8.00" fill="#000000">27</text>
</g>
<!-- 27&#45;&gt;26 -->
<g id="edge4" class="edge">
<title>27&#45;&gt;26</title>
<path fill="none" stroke="#000000" d="M181,-1655.8314C181,-1648.131 181,-1638.9743 181,-1630.4166"/>
<polygon fill="#000000" stroke="#000000" points="184.5001,-1630.4132 181,-1620.4133 177.5001,-1630.4133 184.5001,-1630.4132"/>
</g>
<!-- 20 -->
<g id="node5" class="node">
<title>20</title>
<ellipse fill="none" stroke="#000000" cx="32" cy="-1386" rx="18" ry="18"/>
<text text-anchor="middle" x="32" y="-1384.1" font-family="Bitstream Vera Sans" font-size="8.00" fill="#000000">20</text>
</g>
<!-- 19 -->
<g id="node32" class="node">
<title>19</title>
<ellipse fill="none" stroke="#000000" cx="45" cy="-1314" rx="18" ry="18"/>
<text text-anchor="middle" x="45" y="-1312.1" font-family="Bitstream Vera Sans" font-size="8.00" fill="#000000">19</text>
</g>
<!-- 20&#45;&gt;19 -->
<g id="edge5" class="edge">
<title>20&#45;&gt;19</title>
<path fill="none" stroke="#000000" d="M35.2135,-1368.2022C36.651,-1360.2406 38.3795,-1350.6671 39.9813,-1341.7957"/>
<polygon fill="#000000" stroke="#000000" points="43.4458,-1342.3053 41.7784,-1331.8425 36.5572,-1341.0615 43.4458,-1342.3053"/>
</g>
<!-- 21 -->
<g id="node6" class="node">
<title>21</title>
<ellipse fill="none" stroke="#000000" cx="19" cy="-1458" rx="18" ry="18"/>
<text text-anchor="middle" x="19" y="-1456.1" font-family="Bitstream Vera Sans" font-size="8.00" fill="#000000">21</text>
</g>
<!-- 21&#45;&gt;20 -->
<g id="edge6" class="edge">
<title>21&#45;&gt;20</title>
<path fill="none" stroke="#000000" d="M22.2135,-1440.2022C23.651,-1432.2406 25.3795,-1422.6671 26.9813,-1413.7957"/>
<polygon fill="#000000" stroke="#000000" points="30.4458,-1414.3053 28.7784,-1403.8425 23.5572,-1413.0615 30.4458,-1414.3053"/>
</g>
<!-- 22 -->
<g id="node7" class="node">
<title>22</title>
<ellipse fill="none" stroke="#000000" cx="106" cy="-1314" rx="18" ry="18"/>
<text text-anchor="middle" x="106" y="-1312.1" font-family="Bitstream Vera Sans" font-size="8.00" fill="#000000">22</text>
</g>
<!-- 18 -->
<g id="node33" class="node">
<title>18</title>
<ellipse fill="none" stroke="#000000" cx="72" cy="-1242" rx="18" ry="18"/>
<text text-anchor="middle" x="72" y="-1240.1" font-family="Bitstream Vera Sans" font-size="8.00" fill="#000000">18</text>
</g>
<!-- 22&#45;&gt;18 -->
<g id="edge7" class="edge">
<title>22&#45;&gt;18</title>
<path fill="none" stroke="#000000" d="M98.2849,-1297.6621C94.1276,-1288.8584 88.9016,-1277.7917 84.2068,-1267.8497"/>
<polygon fill="#000000" stroke="#000000" points="87.3555,-1266.3209 79.9205,-1258.7729 81.0258,-1269.31 87.3555,-1266.3209"/>
</g>
<!-- 23&#45;&gt;22 -->
<g id="edge8" class="edge">
<title>23&#45;&gt;22</title>
<path fill="none" stroke="#000000" d="M111.2336,-1367.8314C110.485,-1360.131 109.5947,-1350.9743 108.7627,-1342.4166"/>
<polygon fill="#000000" stroke="#000000" points="112.2415,-1342.0276 107.7902,-1332.4133 105.2744,-1342.7051 112.2415,-1342.0276"/>
</g>
<!-- 28 -->
<g id="node9" class="node">
<title>28</title>
<ellipse fill="none" stroke="#000000" cx="73" cy="-1458" rx="18" ry="18"/>
<text text-anchor="middle" x="73" y="-1456.1" font-family="Bitstream Vera Sans" font-size="8.00" fill="#000000">28</text>
</g>
<!-- 28&#45;&gt;23 -->
<g id="edge9" class="edge">
<title>28&#45;&gt;23</title>
<path fill="none" stroke="#000000" d="M81.8773,-1442.0209C86.9524,-1432.8857 93.4285,-1421.2286 99.1577,-1410.9162"/>
<polygon fill="#000000" stroke="#000000" points="102.3506,-1412.3758 104.1475,-1401.9345 96.2315,-1408.9763 102.3506,-1412.3758"/>
</g>
<!-- 29 -->
<g id="node10" class="node">
<title>29</title>
<ellipse fill="none" stroke="#000000" cx="73" cy="-1530" rx="18" ry="18"/>
<text text-anchor="middle" x="73" y="-1528.1" font-family="Bitstream Vera Sans" font-size="8.00" fill="#000000">29</text>
</g>
<!-- 29&#45;&gt;28 -->
<g id="edge10" class="edge">
<title>29&#45;&gt;28</title>
<path fill="none" stroke="#000000" d="M73,-1511.8314C73,-1504.131 73,-1494.9743 73,-1486.4166"/>
<polygon fill="#000000" stroke="#000000" points="76.5001,-1486.4132 73,-1476.4133 69.5001,-1486.4133 76.5001,-1486.4132"/>
</g>
<!-- 40 -->
<g id="node11" class="node">
<title>40</title>
<ellipse fill="none" stroke="#000000" cx="18" cy="-666" rx="18" ry="18"/>
<text text-anchor="middle" x="18" y="-664.1" font-family="Bitstream Vera Sans" font-size="8.00" fill="#000000">40</text>
</g>
<!-- 9 -->
<g id="node20" class="node">
<title>9</title>
<ellipse fill="none" stroke="#000000" cx="45" cy="-594" rx="18" ry="18"/>
<text text-anchor="middle" x="45" y="-592.1" font-family="Bitstream Vera Sans" font-size="8.00" fill="#000000">9</text>
</g>
<!-- 40&#45;&gt;9 -->
<g id="edge11" class="edge">
<title>40&#45;&gt;9</title>
<path fill="none" stroke="#000000" d="M24.3986,-648.937C27.593,-640.4186 31.529,-629.9227 35.1018,-620.3952"/>
<polygon fill="#000000" stroke="#000000" points="38.4132,-621.5328 38.6473,-610.9405 31.8589,-619.0749 38.4132,-621.5328"/>
</g>
<!-- 1 -->
<g id="node12" class="node">
<title>1</title>
<ellipse fill="none" stroke="#000000" cx="18" cy="-738" rx="18" ry="18"/>
<text text-anchor="middle" x="18" y="-736.1" font-family="Bitstream Vera Sans" font-size="8.00" fill="#000000">1</text>
</g>
<!-- 1&#45;&gt;40 -->
<g id="edge12" class="edge">
<title>1&#45;&gt;40</title>
<path fill="none" stroke="#000000" d="M18,-719.8314C18,-712.131 18,-702.9743 18,-694.4166"/>
<polygon fill="#000000" stroke="#000000" points="21.5001,-694.4132 18,-684.4133 14.5001,-694.4133 21.5001,-694.4132"/>
</g>
<!-- 0 -->
<g id="node13" class="node">
<title>0</title>
<ellipse fill="none" stroke="#000000" cx="45" cy="-18" rx="18" ry="18"/>
<text text-anchor="middle" x="45" y="-16.1" font-family="Bitstream Vera Sans" font-size="8.00" fill="#000000">0</text>
</g>
<!-- 3 -->
<g id="node14" class="node">
<title>3</title>
<ellipse fill="none" stroke="#000000" cx="45" cy="-162" rx="18" ry="18"/>
<text text-anchor="middle" x="45" y="-160.1" font-family="Bitstream Vera Sans" font-size="8.00" fill="#000000">3</text>
</g>
<!-- 2 -->
<g id="node15" class="node">
<title>2</title>
<ellipse fill="none" stroke="#000000" cx="45" cy="-90" rx="18" ry="18"/>
<text text-anchor="middle" x="45" y="-88.1" font-family="Bitstream Vera Sans" font-size="8.00" fill="#000000">2</text>
</g>
<!-- 3&#45;&gt;2 -->
<g id="edge13" class="edge">
<title>3&#45;&gt;2</title>
<path fill="none" stroke="#000000" d="M45,-143.8314C45,-136.131 45,-126.9743 45,-118.4166"/>
<polygon fill="#000000" stroke="#000000" points="48.5001,-118.4132 45,-108.4133 41.5001,-118.4133 48.5001,-118.4132"/>
</g>
<!-- 2&#45;&gt;0 -->
<g id="edge14" class="edge">
<title>2&#45;&gt;0</title>
<path fill="none" stroke="#000000" d="M45,-71.8314C45,-64.131 45,-54.9743 45,-46.4166"/>
<polygon fill="#000000" stroke="#000000" points="48.5001,-46.4132 45,-36.4133 41.5001,-46.4133 48.5001,-46.4132"/>
</g>
<!-- 5 -->
<g id="node16" class="node">
<title>5</title>
<ellipse fill="none" stroke="#000000" cx="45" cy="-306" rx="18" ry="18"/>
<text text-anchor="middle" x="45" y="-304.1" font-family="Bitstream Vera Sans" font-size="8.00" fill="#000000">5</text>
</g>
<!-- 4 -->
<g id="node17" class="node">
<title>4</title>
<ellipse fill="none" stroke="#000000" cx="45" cy="-234" rx="18" ry="18"/>
<text text-anchor="middle" x="45" y="-232.1" font-family="Bitstream Vera Sans" font-size="8.00" fill="#000000">4</text>
</g>
<!-- 5&#45;&gt;4 -->
<g id="edge15" class="edge">
<title>5&#45;&gt;4</title>
<path fill="none" stroke="#000000" d="M45,-287.8314C45,-280.131 45,-270.9743 45,-262.4166"/>
<polygon fill="#000000" stroke="#000000" points="48.5001,-262.4132 45,-252.4133 41.5001,-262.4133 48.5001,-262.4132"/>
</g>
<!-- 4&#45;&gt;3 -->
<g id="edge16" class="edge">
<title>4&#45;&gt;3</title>
<path fill="none" stroke="#000000" d="M45,-215.8314C45,-208.131 45,-198.9743 45,-190.4166"/>
<polygon fill="#000000" stroke="#000000" points="48.5001,-190.4132 45,-180.4133 41.5001,-190.4133 48.5001,-190.4132"/>
</g>
<!-- 7 -->
<g id="node18" class="node">
<title>7</title>
<ellipse fill="none" stroke="#000000" cx="45" cy="-450" rx="18" ry="18"/>
<text text-anchor="middle" x="45" y="-448.1" font-family="Bitstream Vera Sans" font-size="8.00" fill="#000000">7</text>
</g>
<!-- 6 -->
<g id="node19" class="node">
<title>6</title>
<ellipse fill="none" stroke="#000000" cx="45" cy="-378" rx="18" ry="18"/>
<text text-anchor="middle" x="45" y="-376.1" font-family="Bitstream Vera Sans" font-size="8.00" fill="#000000">6</text>
</g>
<!-- 7&#45;&gt;6 -->
<g id="edge17" class="edge">
<title>7&#45;&gt;6</title>
<path fill="none" stroke="#000000" d="M45,-431.8314C45,-424.131 45,-414.9743 45,-406.4166"/>
<polygon fill="#000000" stroke="#000000" points="48.5001,-406.4132 45,-396.4133 41.5001,-406.4133 48.5001,-406.4132"/>
</g>
<!-- 6&#45;&gt;5 -->
<g id="edge18" class="edge">
<title>6&#45;&gt;5</title>
<path fill="none" stroke="#000000" d="M45,-359.8314C45,-352.131 45,-342.9743 45,-334.4166"/>
<polygon fill="#000000" stroke="#000000" points="48.5001,-334.4132 45,-324.4133 41.5001,-334.4133 48.5001,-334.4132"/>
</g>
<!-- 8 -->
<g id="node21" class="node">
<title>8</title>
<ellipse fill="none" stroke="#000000" cx="45" cy="-522" rx="18" ry="18"/>
<text text-anchor="middle" x="45" y="-520.1" font-family="Bitstream Vera Sans" font-size="8.00" fill="#000000">8</text>
</g>
<!-- 9&#45;&gt;8 -->
<g id="edge19" class="edge">
<title>9&#45;&gt;8</title>
<path fill="none" stroke="#000000" d="M45,-575.8314C45,-568.131 45,-558.9743 45,-550.4166"/>
<polygon fill="#000000" stroke="#000000" points="48.5001,-550.4132 45,-540.4133 41.5001,-550.4133 48.5001,-550.4132"/>
</g>
<!-- 8&#45;&gt;7 -->
<g id="edge20" class="edge">
<title>8&#45;&gt;7</title>
<path fill="none" stroke="#000000" d="M45,-503.8314C45,-496.131 45,-486.9743 45,-478.4166"/>
<polygon fill="#000000" stroke="#000000" points="48.5001,-478.4132 45,-468.4133 41.5001,-478.4133 48.5001,-478.4132"/>
</g>
<!-- 39 -->
<g id="node22" class="node">
<title>39</title>
<ellipse fill="none" stroke="#000000" cx="127" cy="-1674" rx="18" ry="18"/>
<text text-anchor="middle" x="127" y="-1672.1" font-family="Bitstream Vera Sans" font-size="8.00" fill="#000000">39</text>
</g>
<!-- 38 -->
<g id="node23" class="node">
<title>38</title>
<ellipse fill="none" stroke="#000000" cx="127" cy="-1602" rx="18" ry="18"/>
<text text-anchor="middle" x="127" y="-1600.1" font-family="Bitstream Vera Sans" font-size="8.00" fill="#000000">38</text>
</g>
<!-- 39&#45;&gt;38 -->
<g id="edge21" class="edge">
<title>39&#45;&gt;38</title>
<path fill="none" stroke="#000000" d="M127,-1655.8314C127,-1648.131 127,-1638.9743 127,-1630.4166"/>
<polygon fill="#000000" stroke="#000000" points="130.5001,-1630.4132 127,-1620.4133 123.5001,-1630.4133 130.5001,-1630.4132"/>
</g>
<!-- 37 -->
<g id="node36" class="node">
<title>37</title>
<ellipse fill="none" stroke="#000000" cx="127" cy="-1530" rx="18" ry="18"/>
<text text-anchor="middle" x="127" y="-1528.1" font-family="Bitstream Vera Sans" font-size="8.00" fill="#000000">37</text>
</g>
<!-- 38&#45;&gt;37 -->
<g id="edge22" class="edge">
<title>38&#45;&gt;37</title>
<path fill="none" stroke="#000000" d="M127,-1583.8314C127,-1576.131 127,-1566.9743 127,-1558.4166"/>
<polygon fill="#000000" stroke="#000000" points="130.5001,-1558.4132 127,-1548.4133 123.5001,-1558.4133 130.5001,-1558.4132"/>
</g>
<!-- 11 -->
<g id="node24" class="node">
<title>11</title>
<ellipse fill="none" stroke="#000000" cx="72" cy="-738" rx="18" ry="18"/>
<text text-anchor="middle" x="72" y="-736.1" font-family="Bitstream Vera Sans" font-size="8.00" fill="#000000">11</text>
</g>
<!-- 10 -->
<g id="node25" class="node">
<title>10</title>
<ellipse fill="none" stroke="#000000" cx="72" cy="-666" rx="18" ry="18"/>
<text text-anchor="middle" x="72" y="-664.1" font-family="Bitstream Vera Sans" font-size="8.00" fill="#000000">10</text>
</g>
<!-- 11&#45;&gt;10 -->
<g id="edge23" class="edge">
<title>11&#45;&gt;10</title>
<path fill="none" stroke="#000000" d="M72,-719.8314C72,-712.131 72,-702.9743 72,-694.4166"/>
<polygon fill="#000000" stroke="#000000" points="75.5001,-694.4132 72,-684.4133 68.5001,-694.4133 75.5001,-694.4132"/>
</g>
<!-- 10&#45;&gt;9 -->
<g id="edge24" class="edge">
<title>10&#45;&gt;9</title>
<path fill="none" stroke="#000000" d="M65.6014,-648.937C62.407,-640.4186 58.471,-629.9227 54.8982,-620.3952"/>
<polygon fill="#000000" stroke="#000000" points="58.1411,-619.0749 51.3527,-610.9405 51.5868,-621.5328 58.1411,-619.0749"/>
</g>
<!-- 13 -->
<g id="node26" class="node">
<title>13</title>
<ellipse fill="none" stroke="#000000" cx="72" cy="-882" rx="18" ry="18"/>
<text text-anchor="middle" x="72" y="-880.1" font-family="Bitstream Vera Sans" font-size="8.00" fill="#000000">13</text>
</g>
<!-- 12 -->
<g id="node27" class="node">
<title>12</title>
<ellipse fill="none" stroke="#000000" cx="72" cy="-810" rx="18" ry="18"/>
<text text-anchor="middle" x="72" y="-808.1" font-family="Bitstream Vera Sans" font-size="8.00" fill="#000000">12</text>
</g>
<!-- 13&#45;&gt;12 -->
<g id="edge25" class="edge">
<title>13&#45;&gt;12</title>
<path fill="none" stroke="#000000" d="M72,-863.8314C72,-856.131 72,-846.9743 72,-838.4166"/>
<polygon fill="#000000" stroke="#000000" points="75.5001,-838.4132 72,-828.4133 68.5001,-838.4133 75.5001,-838.4132"/>
</g>
<!-- 12&#45;&gt;11 -->
<g id="edge26" class="edge">
<title>12&#45;&gt;11</title>
<path fill="none" stroke="#000000" d="M72,-791.8314C72,-784.131 72,-774.9743 72,-766.4166"/>
<polygon fill="#000000" stroke="#000000" points="75.5001,-766.4132 72,-756.4133 68.5001,-766.4133 75.5001,-766.4132"/>
</g>
<!-- 15 -->
<g id="node28" class="node">
<title>15</title>
<ellipse fill="none" stroke="#000000" cx="72" cy="-1026" rx="18" ry="18"/>
<text text-anchor="middle" x="72" y="-1024.1" font-family="Bitstream Vera Sans" font-size="8.00" fill="#000000">15</text>
</g>
<!-- 14 -->
<g id="node29" class="node">
<title>14</title>
<ellipse fill="none" stroke="#000000" cx="72" cy="-954" rx="18" ry="18"/>
<text text-anchor="middle" x="72" y="-952.1" font-family="Bitstream Vera Sans" font-size="8.00" fill="#000000">14</text>
</g>
<!-- 15&#45;&gt;14 -->
<g id="edge27" class="edge">
<title>15&#45;&gt;14</title>
<path fill="none" stroke="#000000" d="M72,-1007.8314C72,-1000.131 72,-990.9743 72,-982.4166"/>
<polygon fill="#000000" stroke="#000000" points="75.5001,-982.4132 72,-972.4133 68.5001,-982.4133 75.5001,-982.4132"/>
</g>
<!-- 14&#45;&gt;13 -->
<g id="edge28" class="edge">
<title>14&#45;&gt;13</title>
<path fill="none" stroke="#000000" d="M72,-935.8314C72,-928.131 72,-918.9743 72,-910.4166"/>
<polygon fill="#000000" stroke="#000000" points="75.5001,-910.4132 72,-900.4133 68.5001,-910.4133 75.5001,-910.4132"/>
</g>
<!-- 17 -->
<g id="node30" class="node">
<title>17</title>
<ellipse fill="none" stroke="#000000" cx="72" cy="-1170" rx="18" ry="18"/>
<text text-anchor="middle" x="72" y="-1168.1" font-family="Bitstream Vera Sans" font-size="8.00" fill="#000000">17</text>
</g>
<!-- 16 -->
<g id="node31" class="node">
<title>16</title>
<ellipse fill="none" stroke="#000000" cx="72" cy="-1098" rx="18" ry="18"/>
<text text-anchor="middle" x="72" y="-1096.1" font-family="Bitstream Vera Sans" font-size="8.00" fill="#000000">16</text>
</g>
<!-- 17&#45;&gt;16 -->
<g id="edge29" class="edge">
<title>17&#45;&gt;16</title>
<path fill="none" stroke="#000000" d="M72,-1151.8314C72,-1144.131 72,-1134.9743 72,-1126.4166"/>
<polygon fill="#000000" stroke="#000000" points="75.5001,-1126.4132 72,-1116.4133 68.5001,-1126.4133 75.5001,-1126.4132"/>
</g>
<!-- 16&#45;&gt;15 -->
<g id="edge30" class="edge">
<title>16&#45;&gt;15</title>
<path fill="none" stroke="#000000" d="M72,-1079.8314C72,-1072.131 72,-1062.9743 72,-1054.4166"/>
<polygon fill="#000000" stroke="#000000" points="75.5001,-1054.4132 72,-1044.4133 68.5001,-1054.4133 75.5001,-1054.4132"/>
</g>
<!-- 19&#45;&gt;18 -->
<g id="edge31" class="edge">
<title>19&#45;&gt;18</title>
<path fill="none" stroke="#000000" d="M51.3986,-1296.937C54.593,-1288.4186 58.529,-1277.9227 62.1018,-1268.3952"/>
<polygon fill="#000000" stroke="#000000" points="65.4132,-1269.5328 65.6473,-1258.9405 58.8589,-1267.0749 65.4132,-1269.5328"/>
</g>
<!-- 18&#45;&gt;17 -->
<g id="edge32" class="edge">
<title>18&#45;&gt;17</title>
<path fill="none" stroke="#000000" d="M72,-1223.8314C72,-1216.131 72,-1206.9743 72,-1198.4166"/>
<polygon fill="#000000" stroke="#000000" points="75.5001,-1198.4132 72,-1188.4133 68.5001,-1198.4133 75.5001,-1198.4132"/>
</g>
<!-- 31 -->
<g id="node34" class="node">
<title>31</title>
<ellipse fill="none" stroke="#000000" cx="73" cy="-1674" rx="18" ry="18"/>
<text text-anchor="middle" x="73" y="-1672.1" font-family="Bitstream Vera Sans" font-size="8.00" fill="#000000">31</text>
</g>
<!-- 30 -->
<g id="node35" class="node">
<title>30</title>
<ellipse fill="none" stroke="#000000" cx="73" cy="-1602" rx="18" ry="18"/>
<text text-anchor="middle" x="73" y="-1600.1" font-family="Bitstream Vera Sans" font-size="8.00" fill="#000000">30</text>
</g>
<!-- 31&#45;&gt;30 -->
<g id="edge33" class="edge">
<title>31&#45;&gt;30</title>
<path fill="none" stroke="#000000" d="M73,-1655.8314C73,-1648.131 73,-1638.9743 73,-1630.4166"/>
<polygon fill="#000000" stroke="#000000" points="76.5001,-1630.4132 73,-1620.4133 69.5001,-1630.4133 76.5001,-1630.4132"/>
</g>
<!-- 30&#45;&gt;29 -->
<g id="edge34" class="edge">
<title>30&#45;&gt;29</title>
<path fill="none" stroke="#000000" d="M73,-1583.8314C73,-1576.131 73,-1566.9743 73,-1558.4166"/>
<polygon fill="#000000" stroke="#000000" points="76.5001,-1558.4132 73,-1548.4133 69.5001,-1558.4133 76.5001,-1558.4132"/>
</g>
<!-- 36 -->
<g id="node37" class="node">
<title>36</title>
<ellipse fill="none" stroke="#000000" cx="127" cy="-1458" rx="18" ry="18"/>
<text text-anchor="middle" x="127" y="-1456.1" font-family="Bitstream Vera Sans" font-size="8.00" fill="#000000">36</text>
</g>
<!-- 37&#45;&gt;36 -->
<g id="edge35" class="edge">
<title>37&#45;&gt;36</title>
<path fill="none" stroke="#000000" d="M127,-1511.8314C127,-1504.131 127,-1494.9743 127,-1486.4166"/>
<polygon fill="#000000" stroke="#000000" points="130.5001,-1486.4132 127,-1476.4133 123.5001,-1486.4133 130.5001,-1486.4132"/>
</g>
<!-- 36&#45;&gt;23 -->
<g id="edge36" class="edge">
<title>36&#45;&gt;23</title>
<path fill="none" stroke="#000000" d="M123.5393,-1440.2022C121.9912,-1432.2406 120.1297,-1422.6671 118.4047,-1413.7957"/>
<polygon fill="#000000" stroke="#000000" points="121.8138,-1412.9906 116.4694,-1403.8425 114.9425,-1414.3268 121.8138,-1412.9906"/>
</g>
<!-- 35 -->
<g id="node38" class="node">
<title>35</title>
<ellipse fill="none" stroke="#000000" cx="181" cy="-1746" rx="18" ry="18"/>
<text text-anchor="middle" x="181" y="-1744.1" font-family="Bitstream Vera Sans" font-size="8.00" fill="#000000">35</text>
</g>
<!-- 35&#45;&gt;27 -->
<g id="edge37" class="edge">
<title>35&#45;&gt;27</title>
<path fill="none" stroke="#000000" d="M181,-1727.8314C181,-1720.131 181,-1710.9743 181,-1702.4166"/>
<polygon fill="#000000" stroke="#000000" points="184.5001,-1702.4132 181,-1692.4133 177.5001,-1702.4133 184.5001,-1702.4132"/>
</g>
<!-- 34 -->
<g id="node39" class="node">
<title>34</title>
<ellipse fill="none" stroke="#000000" cx="73" cy="-1890" rx="18" ry="18"/>
<text text-anchor="middle" x="73" y="-1888.1" font-family="Bitstream Vera Sans" font-size="8.00" fill="#000000">34</text>
</g>
<!-- 33 -->
<g id="node40" class="node">
<title>33</title>
<ellipse fill="none" stroke="#000000" cx="73" cy="-1818" rx="18" ry="18"/>
<text text-anchor="middle" x="73" y="-1816.1" font-family="Bitstream Vera Sans" font-size="8.00" fill="#000000">33</text>
</g>
<!-- 34&#45;&gt;33 -->
<g id="edge38" class="edge">
<title>34&#45;&gt;33</title>
<path fill="none" stroke="#000000" d="M73,-1871.8314C73,-1864.131 73,-1854.9743 73,-1846.4166"/>
<polygon fill="#000000" stroke="#000000" points="76.5001,-1846.4132 73,-1836.4133 69.5001,-1846.4133 76.5001,-1846.4132"/>
</g>
<!-- 32 -->
<g id="node41" class="node">
<title>32</title>
<ellipse fill="none" stroke="#000000" cx="73" cy="-1746" rx="18" ry="18"/>
<text text-anchor="middle" x="73" y="-1744.1" font-family="Bitstream Vera Sans" font-size="8.00" fill="#000000">32</text>
</g>
<!-- 33&#45;&gt;32 -->
<g id="edge39" class="edge">
<title>33&#45;&gt;32</title>
<path fill="none" stroke="#000000" d="M73,-1799.8314C73,-1792.131 73,-1782.9743 73,-1774.4166"/>
<polygon fill="#000000" stroke="#000000" points="76.5001,-1774.4132 73,-1764.4133 69.5001,-1774.4133 76.5001,-1774.4132"/>
</g>
<!-- 32&#45;&gt;31 -->
<g id="edge40" class="edge">
<title>32&#45;&gt;31</title>
<path fill="none" stroke="#000000" d="M73,-1727.8314C73,-1720.131 73,-1710.9743 73,-1702.4166"/>
<polygon fill="#000000" stroke="#000000" points="76.5001,-1702.4132 73,-1692.4133 69.5001,-1702.4133 76.5001,-1702.4132"/>
</g>
</g>
</svg>
