<?xml version="1.0" encoding="UTF-8" standalone="no"?>
<!DOCTYPE svg PUBLIC "-//W3C//DTD SVG 1.1//EN"
 "http://www.w3.org/Graphics/SVG/1.1/DTD/svg11.dtd">
<!-- Generated by graphviz version 2.40.1 (20161225.0304)
 -->
<!-- Title: G Pages: 1 -->
<svg width="368pt" height="1484pt"
 viewBox="0.00 0.00 368.00 1484.00" xmlns="http://www.w3.org/2000/svg" xmlns:xlink="http://www.w3.org/1999/xlink">
<g id="graph0" class="graph" transform="scale(1 1) rotate(0) translate(4 1480)">
<title>G</title>
<polygon fill="#ffffff" stroke="transparent" points="-4,4 -4,-1480 364,-1480 364,4 -4,4"/>
<!-- 24 -->
<g id="node1" class="node">
<title>24</title>
<ellipse fill="none" stroke="#000000" cx="18" cy="-810" rx="18" ry="18"/>
<text text-anchor="middle" x="18" y="-808.1" font-family="Bitstream Vera Sans" font-size="8.00" fill="#000000">24</text>
</g>
<!-- 25 -->
<g id="node2" class="node">
<title>25</title>
<ellipse fill="none" stroke="#000000" cx="18" cy="-738" rx="18" ry="18"/>
<text text-anchor="middle" x="18" y="-736.1" font-family="Bitstream Vera Sans" font-size="8.00" fill="#000000">25</text>
</g>
<!-- 24&#45;&gt;25 -->
<g id="edge1" class="edge">
<title>24&#45;&gt;25</title>
<path fill="none" stroke="#000000" d="M18,-791.8314C18,-784.131 18,-774.9743 18,-766.4166"/>
<polygon fill="#000000" stroke="#000000" points="21.5001,-766.4132 18,-756.4133 14.5001,-766.4133 21.5001,-766.4132"/>
</g>
<!-- 36 -->
<g id="node37" class="node">
<title>36</title>
<ellipse fill="none" stroke="#000000" cx="180" cy="-666" rx="18" ry="18"/>
<text text-anchor="middle" x="180" y="-664.1" font-family="Bitstream Vera Sans" font-size="8.00" fill="#000000">36</text>
</g>
<!-- 25&#45;&gt;36 -->
<g id="edge2" class="edge">
<title>25&#45;&gt;36</title>
<path fill="none" stroke="#000000" d="M32.7978,-727.3379C36.672,-724.7703 40.9115,-722.1507 45,-720 81.0539,-701.0346 125.3007,-684.5209 153.0828,-674.9047"/>
<polygon fill="#000000" stroke="#000000" points="154.5378,-678.1066 162.873,-671.5663 152.2785,-671.4812 154.5378,-678.1066"/>
</g>
<!-- 26 -->
<g id="node3" class="node">
<title>26</title>
<ellipse fill="none" stroke="#000000" cx="72" cy="-810" rx="18" ry="18"/>
<text text-anchor="middle" x="72" y="-808.1" font-family="Bitstream Vera Sans" font-size="8.00" fill="#000000">26</text>
</g>
<!-- 27 -->
<g id="node4" class="node">
<title>27</title>
<ellipse fill="none" stroke="#000000" cx="72" cy="-738" rx="18" ry="18"/>
<text text-anchor="middle" x="72" y="-736.1" font-family="Bitstream Vera Sans" font-size="8.00" fill="#000000">27</text>
</g>
<!-- 26&#45;&gt;27 -->
<g id="edge3" class="edge">
<title>26&#45;&gt;27</title>
<path fill="none" stroke="#000000" d="M72,-791.8314C72,-784.131 72,-774.9743 72,-766.4166"/>
<polygon fill="#000000" stroke="#000000" points="75.5001,-766.4132 72,-756.4133 68.5001,-766.4133 75.5001,-766.4132"/>
</g>
<!-- 27&#45;&gt;36 -->
<g id="edge4" class="edge">
<title>27&#45;&gt;36</title>
<path fill="none" stroke="#000000" d="M87.0169,-727.9887C104.97,-716.02 135.2325,-695.845 156.3396,-681.7736"/>
<polygon fill="#000000" stroke="#000000" points="158.3834,-684.6176 164.7624,-676.1584 154.5005,-678.7932 158.3834,-684.6176"/>
</g>
<!-- 20 -->
<g id="node5" class="node">
<title>20</title>
<ellipse fill="none" stroke="#000000" cx="99" cy="-954" rx="18" ry="18"/>
<text text-anchor="middle" x="99" y="-952.1" font-family="Bitstream Vera Sans" font-size="8.00" fill="#000000">20</text>
</g>
<!-- 21 -->
<g id="node6" class="node">
<title>21</title>
<ellipse fill="none" stroke="#000000" cx="99" cy="-882" rx="18" ry="18"/>
<text text-anchor="middle" x="99" y="-880.1" font-family="Bitstream Vera Sans" font-size="8.00" fill="#000000">21</text>
</g>
<!-- 20&#45;&gt;21 -->
<g id="edge5" class="edge">
<title>20&#45;&gt;21</title>
<path fill="none" stroke="#000000" d="M99,-935.8314C99,-928.131 99,-918.9743 99,-910.4166"/>
<polygon fill="#000000" stroke="#000000" points="102.5001,-910.4132 99,-900.4133 95.5001,-910.4133 102.5001,-910.4132"/>
</g>
<!-- 22 -->
<g id="node7" class="node">
<title>22</title>
<ellipse fill="none" stroke="#000000" cx="126" cy="-810" rx="18" ry="18"/>
<text text-anchor="middle" x="126" y="-808.1" font-family="Bitstream Vera Sans" font-size="8.00" fill="#000000">22</text>
</g>
<!-- 21&#45;&gt;22 -->
<g id="edge6" class="edge">
<title>21&#45;&gt;22</title>
<path fill="none" stroke="#000000" d="M105.3986,-864.937C108.593,-856.4186 112.529,-845.9227 116.1018,-836.3952"/>
<polygon fill="#000000" stroke="#000000" points="119.4132,-837.5328 119.6473,-826.9405 112.8589,-835.0749 119.4132,-837.5328"/>
</g>
<!-- 23 -->
<g id="node8" class="node">
<title>23</title>
<ellipse fill="none" stroke="#000000" cx="126" cy="-738" rx="18" ry="18"/>
<text text-anchor="middle" x="126" y="-736.1" font-family="Bitstream Vera Sans" font-size="8.00" fill="#000000">23</text>
</g>
<!-- 22&#45;&gt;23 -->
<g id="edge7" class="edge">
<title>22&#45;&gt;23</title>
<path fill="none" stroke="#000000" d="M126,-791.8314C126,-784.131 126,-774.9743 126,-766.4166"/>
<polygon fill="#000000" stroke="#000000" points="129.5001,-766.4132 126,-756.4133 122.5001,-766.4133 129.5001,-766.4132"/>
</g>
<!-- 23&#45;&gt;36 -->
<g id="edge8" class="edge">
<title>23&#45;&gt;36</title>
<path fill="none" stroke="#000000" d="M136.9277,-723.4297C144.3934,-713.4754 154.4368,-700.0842 162.9474,-688.7368"/>
<polygon fill="#000000" stroke="#000000" points="165.8885,-690.6486 169.0885,-680.5486 160.2885,-686.4486 165.8885,-690.6486"/>
</g>
<!-- 28 -->
<g id="node9" class="node">
<title>28</title>
<ellipse fill="none" stroke="#000000" cx="180" cy="-810" rx="18" ry="18"/>
<text text-anchor="middle" x="180" y="-808.1" font-family="Bitstream Vera Sans" font-size="8.00" fill="#000000">28</text>
</g>
<!-- 29 -->
<g id="node10" class="node">
<title>29</title>
<ellipse fill="none" stroke="#000000" cx="180" cy="-738" rx="18" ry="18"/>
<text text-anchor="middle" x="180" y="-736.1" font-family="Bitstream Vera Sans" font-size="8.00" fill="#000000">29</text>
</g>
<!-- 28&#45;&gt;29 -->
<g id="edge9" class="edge">
<title>28&#45;&gt;29</title>
<path fill="none" stroke="#000000" d="M180,-791.8314C180,-784.131 180,-774.9743 180,-766.4166"/>
<polygon fill="#000000" stroke="#000000" points="183.5001,-766.4132 180,-756.4133 176.5001,-766.4133 183.5001,-766.4132"/>
</g>
<!-- 29&#45;&gt;36 -->
<g id="edge10" class="edge">
<title>29&#45;&gt;36</title>
<path fill="none" stroke="#000000" d="M180,-719.8314C180,-712.131 180,-702.9743 180,-694.4166"/>
<polygon fill="#000000" stroke="#000000" points="183.5001,-694.4132 180,-684.4133 176.5001,-694.4133 183.5001,-694.4132"/>
</g>
<!-- 40 -->
<g id="node11" class="node">
<title>40</title>
<ellipse fill="none" stroke="#000000" cx="301" cy="-90" rx="18" ry="18"/>
<text text-anchor="middle" x="301" y="-88.1" font-family="Bitstream Vera Sans" font-size="8.00" fill="#000000">40</text>
</g>
<!-- 1 -->
<g id="node12" class="node">
<title>1</title>
<ellipse fill="none" stroke="#000000" cx="301" cy="-18" rx="18" ry="18"/>
<text text-anchor="middle" x="301" y="-16.1" font-family="Bitstream Vera Sans" font-size="8.00" fill="#000000">1</text>
</g>
<!-- 40&#45;&gt;1 -->
<g id="edge11" class="edge">
<title>40&#45;&gt;1</title>
<path fill="none" stroke="#000000" d="M301,-71.8314C301,-64.131 301,-54.9743 301,-46.4166"/>
<polygon fill="#000000" stroke="#000000" points="304.5001,-46.4132 301,-36.4133 297.5001,-46.4133 304.5001,-46.4132"/>
</g>
<!-- 0 -->
<g id="node13" class="node">
<title>0</title>
<ellipse fill="none" stroke="#000000" cx="342" cy="-738" rx="18" ry="18"/>
<text text-anchor="middle" x="342" y="-736.1" font-family="Bitstream Vera Sans" font-size="8.00" fill="#000000">0</text>
</g>
<!-- 2 -->
<g id="node15" class="node">
<title>2</title>
<ellipse fill="none" stroke="#000000" cx="341" cy="-666" rx="18" ry="18"/>
<text text-anchor="middle" x="341" y="-664.1" font-family="Bitstream Vera Sans" font-size="8.00" fill="#000000">2</text>
</g>
<!-- 0&#45;&gt;2 -->
<g id="edge12" class="edge">
<title>0&#45;&gt;2</title>
<path fill="none" stroke="#000000" d="M341.7477,-719.8314C341.6407,-712.131 341.5135,-702.9743 341.3947,-694.4166"/>
<polygon fill="#000000" stroke="#000000" points="344.8944,-694.3637 341.2557,-684.4133 337.8951,-694.4609 344.8944,-694.3637"/>
</g>
<!-- 3 -->
<g id="node14" class="node">
<title>3</title>
<ellipse fill="none" stroke="#000000" cx="340" cy="-594" rx="18" ry="18"/>
<text text-anchor="middle" x="340" y="-592.1" font-family="Bitstream Vera Sans" font-size="8.00" fill="#000000">3</text>
</g>
<!-- 4 -->
<g id="node17" class="node">
<title>4</title>
<ellipse fill="none" stroke="#000000" cx="338" cy="-522" rx="18" ry="18"/>
<text text-anchor="middle" x="338" y="-520.1" font-family="Bitstream Vera Sans" font-size="8.00" fill="#000000">4</text>
</g>
<!-- 3&#45;&gt;4 -->
<g id="edge13" class="edge">
<title>3&#45;&gt;4</title>
<path fill="none" stroke="#000000" d="M339.4953,-575.8314C339.2814,-568.131 339.0271,-558.9743 338.7894,-550.4166"/>
<polygon fill="#000000" stroke="#000000" points="342.2879,-550.3122 338.5115,-540.4133 335.2906,-550.5066 342.2879,-550.3122"/>
</g>
<!-- 2&#45;&gt;3 -->
<g id="edge14" class="edge">
<title>2&#45;&gt;3</title>
<path fill="none" stroke="#000000" d="M340.7477,-647.8314C340.6407,-640.131 340.5135,-630.9743 340.3947,-622.4166"/>
<polygon fill="#000000" stroke="#000000" points="343.8944,-622.3637 340.2557,-612.4133 336.8951,-622.4609 343.8944,-622.3637"/>
</g>
<!-- 5 -->
<g id="node16" class="node">
<title>5</title>
<ellipse fill="none" stroke="#000000" cx="335" cy="-450" rx="18" ry="18"/>
<text text-anchor="middle" x="335" y="-448.1" font-family="Bitstream Vera Sans" font-size="8.00" fill="#000000">5</text>
</g>
<!-- 6 -->
<g id="node19" class="node">
<title>6</title>
<ellipse fill="none" stroke="#000000" cx="301" cy="-378" rx="18" ry="18"/>
<text text-anchor="middle" x="301" y="-376.1" font-family="Bitstream Vera Sans" font-size="8.00" fill="#000000">6</text>
</g>
<!-- 5&#45;&gt;6 -->
<g id="edge15" class="edge">
<title>5&#45;&gt;6</title>
<path fill="none" stroke="#000000" d="M327.2849,-433.6621C323.1276,-424.8584 317.9016,-413.7917 313.2068,-403.8497"/>
<polygon fill="#000000" stroke="#000000" points="316.3555,-402.3209 308.9205,-394.7729 310.0258,-405.31 316.3555,-402.3209"/>
</g>
<!-- 4&#45;&gt;5 -->
<g id="edge16" class="edge">
<title>4&#45;&gt;5</title>
<path fill="none" stroke="#000000" d="M337.243,-503.8314C336.9221,-496.131 336.5406,-486.9743 336.184,-478.4166"/>
<polygon fill="#000000" stroke="#000000" points="339.6806,-478.2589 335.7672,-468.4133 332.6867,-478.5503 339.6806,-478.2589"/>
</g>
<!-- 7 -->
<g id="node18" class="node">
<title>7</title>
<ellipse fill="none" stroke="#000000" cx="301" cy="-306" rx="18" ry="18"/>
<text text-anchor="middle" x="301" y="-304.1" font-family="Bitstream Vera Sans" font-size="8.00" fill="#000000">7</text>
</g>
<!-- 8 -->
<g id="node21" class="node">
<title>8</title>
<ellipse fill="none" stroke="#000000" cx="301" cy="-234" rx="18" ry="18"/>
<text text-anchor="middle" x="301" y="-232.1" font-family="Bitstream Vera Sans" font-size="8.00" fill="#000000">8</text>
</g>
<!-- 7&#45;&gt;8 -->
<g id="edge17" class="edge">
<title>7&#45;&gt;8</title>
<path fill="none" stroke="#000000" d="M301,-287.8314C301,-280.131 301,-270.9743 301,-262.4166"/>
<polygon fill="#000000" stroke="#000000" points="304.5001,-262.4132 301,-252.4133 297.5001,-262.4133 304.5001,-262.4132"/>
</g>
<!-- 6&#45;&gt;7 -->
<g id="edge18" class="edge">
<title>6&#45;&gt;7</title>
<path fill="none" stroke="#000000" d="M301,-359.8314C301,-352.131 301,-342.9743 301,-334.4166"/>
<polygon fill="#000000" stroke="#000000" points="304.5001,-334.4132 301,-324.4133 297.5001,-334.4133 304.5001,-334.4132"/>
</g>
<!-- 9 -->
<g id="node20" class="node">
<title>9</title>
<ellipse fill="none" stroke="#000000" cx="301" cy="-162" rx="18" ry="18"/>
<text text-anchor="middle" x="301" y="-160.1" font-family="Bitstream Vera Sans" font-size="8.00" fill="#000000">9</text>
</g>
<!-- 9&#45;&gt;40 -->
<g id="edge19" class="edge">
<title>9&#45;&gt;40</title>
<path fill="none" stroke="#000000" d="M301,-143.8314C301,-136.131 301,-126.9743 301,-118.4166"/>
<polygon fill="#000000" stroke="#000000" points="304.5001,-118.4132 301,-108.4133 297.5001,-118.4133 304.5001,-118.4132"/>
</g>
<!-- 8&#45;&gt;9 -->
<g id="edge20" class="edge">
<title>8&#45;&gt;9</title>
<path fill="none" stroke="#000000" d="M301,-215.8314C301,-208.131 301,-198.9743 301,-190.4166"/>
<polygon fill="#000000" stroke="#000000" points="304.5001,-190.4132 301,-180.4133 297.5001,-190.4133 304.5001,-190.4132"/>
</g>
<!-- 39 -->
<g id="node22" class="node">
<title>39</title>
<ellipse fill="none" stroke="#000000" cx="274" cy="-450" rx="18" ry="18"/>
<text text-anchor="middle" x="274" y="-448.1" font-family="Bitstream Vera Sans" font-size="8.00" fill="#000000">39</text>
</g>
<!-- 39&#45;&gt;6 -->
<g id="edge21" class="edge">
<title>39&#45;&gt;6</title>
<path fill="none" stroke="#000000" d="M280.3986,-432.937C283.593,-424.4186 287.529,-413.9227 291.1018,-404.3952"/>
<polygon fill="#000000" stroke="#000000" points="294.4132,-405.5328 294.6473,-394.9405 287.8589,-403.0749 294.4132,-405.5328"/>
</g>
<!-- 38 -->
<g id="node23" class="node">
<title>38</title>
<ellipse fill="none" stroke="#000000" cx="261" cy="-522" rx="18" ry="18"/>
<text text-anchor="middle" x="261" y="-520.1" font-family="Bitstream Vera Sans" font-size="8.00" fill="#000000">38</text>
</g>
<!-- 38&#45;&gt;39 -->
<g id="edge22" class="edge">
<title>38&#45;&gt;39</title>
<path fill="none" stroke="#000000" d="M264.2135,-504.2022C265.651,-496.2406 267.3795,-486.6671 268.9813,-477.7957"/>
<polygon fill="#000000" stroke="#000000" points="272.4458,-478.3053 270.7784,-467.8425 265.5572,-477.0615 272.4458,-478.3053"/>
</g>
<!-- 11 -->
<g id="node24" class="node">
<title>11</title>
<ellipse fill="none" stroke="#000000" cx="153" cy="-1386" rx="18" ry="18"/>
<text text-anchor="middle" x="153" y="-1384.1" font-family="Bitstream Vera Sans" font-size="8.00" fill="#000000">11</text>
</g>
<!-- 12 -->
<g id="node27" class="node">
<title>12</title>
<ellipse fill="none" stroke="#000000" cx="153" cy="-1314" rx="18" ry="18"/>
<text text-anchor="middle" x="153" y="-1312.1" font-family="Bitstream Vera Sans" font-size="8.00" fill="#000000">12</text>
</g>
<!-- 11&#45;&gt;12 -->
<g id="edge23" class="edge">
<title>11&#45;&gt;12</title>
<path fill="none" stroke="#000000" d="M153,-1367.8314C153,-1360.131 153,-1350.9743 153,-1342.4166"/>
<polygon fill="#000000" stroke="#000000" points="156.5001,-1342.4132 153,-1332.4133 149.5001,-1342.4133 156.5001,-1342.4132"/>
</g>
<!-- 10 -->
<g id="node25" class="node">
<title>10</title>
<ellipse fill="none" stroke="#000000" cx="153" cy="-1458" rx="18" ry="18"/>
<text text-anchor="middle" x="153" y="-1456.1" font-family="Bitstream Vera Sans" font-size="8.00" fill="#000000">10</text>
</g>
<!-- 10&#45;&gt;11 -->
<g id="edge24" class="edge">
<title>10&#45;&gt;11</title>
<path fill="none" stroke="#000000" d="M153,-1439.8314C153,-1432.131 153,-1422.9743 153,-1414.4166"/>
<polygon fill="#000000" stroke="#000000" points="156.5001,-1414.4132 153,-1404.4133 149.5001,-1414.4133 156.5001,-1414.4132"/>
</g>
<!-- 13 -->
<g id="node26" class="node">
<title>13</title>
<ellipse fill="none" stroke="#000000" cx="153" cy="-1242" rx="18" ry="18"/>
<text text-anchor="middle" x="153" y="-1240.1" font-family="Bitstream Vera Sans" font-size="8.00" fill="#000000">13</text>
</g>
<!-- 14 -->
<g id="node29" class="node">
<title>14</title>
<ellipse fill="none" stroke="#000000" cx="153" cy="-1170" rx="18" ry="18"/>
<text text-anchor="middle" x="153" y="-1168.1" font-family="Bitstream Vera Sans" font-size="8.00" fill="#000000">14</text>
</g>
<!-- 13&#45;&gt;14 -->
<g id="edge25" class="edge">
<title>13&#45;&gt;14</title>
<path fill="none" stroke="#000000" d="M153,-1223.8314C153,-1216.131 153,-1206.9743 153,-1198.4166"/>
<polygon fill="#000000" stroke="#000000" points="156.5001,-1198.4132 153,-1188.4133 149.5001,-1198.4133 156.5001,-1198.4132"/>
</g>
<!-- 12&#45;&gt;13 -->
<g id="edge26" class="edge">
<title>12&#45;&gt;13</title>
<path fill="none" stroke="#000000" d="M153,-1295.8314C153,-1288.131 153,-1278.9743 153,-1270.4166"/>
<polygon fill="#000000" stroke="#000000" points="156.5001,-1270.4132 153,-1260.4133 149.5001,-1270.4133 156.5001,-1270.4132"/>
</g>
<!-- 15 -->
<g id="node28" class="node">
<title>15</title>
<ellipse fill="none" stroke="#000000" cx="153" cy="-1098" rx="18" ry="18"/>
<text text-anchor="middle" x="153" y="-1096.1" font-family="Bitstream Vera Sans" font-size="8.00" fill="#000000">15</text>
</g>
<!-- 16 -->
<g id="node31" class="node">
<title>16</title>
<ellipse fill="none" stroke="#000000" cx="153" cy="-1026" rx="18" ry="18"/>
<text text-anchor="middle" x="153" y="-1024.1" font-family="Bitstream Vera Sans" font-size="8.00" fill="#000000">16</text>
</g>
<!-- 15&#45;&gt;16 -->
<g id="edge27" class="edge">
<title>15&#45;&gt;16</title>
<path fill="none" stroke="#000000" d="M153,-1079.8314C153,-1072.131 153,-1062.9743 153,-1054.4166"/>
<polygon fill="#000000" stroke="#000000" points="156.5001,-1054.4132 153,-1044.4133 149.5001,-1054.4133 156.5001,-1054.4132"/>
</g>
<!-- 14&#45;&gt;15 -->
<g id="edge28" class="edge">
<title>14&#45;&gt;15</title>
<path fill="none" stroke="#000000" d="M153,-1151.8314C153,-1144.131 153,-1134.9743 153,-1126.4166"/>
<polygon fill="#000000" stroke="#000000" points="156.5001,-1126.4132 153,-1116.4133 149.5001,-1126.4133 156.5001,-1126.4132"/>
</g>
<!-- 17 -->
<g id="node30" class="node">
<title>17</title>
<ellipse fill="none" stroke="#000000" cx="153" cy="-954" rx="18" ry="18"/>
<text text-anchor="middle" x="153" y="-952.1" font-family="Bitstream Vera Sans" font-size="8.00" fill="#000000">17</text>
</g>
<!-- 18 -->
<g id="node33" class="node">
<title>18</title>
<ellipse fill="none" stroke="#000000" cx="153" cy="-882" rx="18" ry="18"/>
<text text-anchor="middle" x="153" y="-880.1" font-family="Bitstream Vera Sans" font-size="8.00" fill="#000000">18</text>
</g>
<!-- 17&#45;&gt;18 -->
<g id="edge29" class="edge">
<title>17&#45;&gt;18</title>
<path fill="none" stroke="#000000" d="M153,-935.8314C153,-928.131 153,-918.9743 153,-910.4166"/>
<polygon fill="#000000" stroke="#000000" points="156.5001,-910.4132 153,-900.4133 149.5001,-910.4133 156.5001,-910.4132"/>
</g>
<!-- 16&#45;&gt;17 -->
<g id="edge30" class="edge">
<title>16&#45;&gt;17</title>
<path fill="none" stroke="#000000" d="M153,-1007.8314C153,-1000.131 153,-990.9743 153,-982.4166"/>
<polygon fill="#000000" stroke="#000000" points="156.5001,-982.4132 153,-972.4133 149.5001,-982.4133 156.5001,-982.4132"/>
</g>
<!-- 19 -->
<g id="node32" class="node">
<title>19</title>
<ellipse fill="none" stroke="#000000" cx="99" cy="-1026" rx="18" ry="18"/>
<text text-anchor="middle" x="99" y="-1024.1" font-family="Bitstream Vera Sans" font-size="8.00" fill="#000000">19</text>
</g>
<!-- 19&#45;&gt;20 -->
<g id="edge31" class="edge">
<title>19&#45;&gt;20</title>
<path fill="none" stroke="#000000" d="M99,-1007.8314C99,-1000.131 99,-990.9743 99,-982.4166"/>
<polygon fill="#000000" stroke="#000000" points="102.5001,-982.4132 99,-972.4133 95.5001,-982.4133 102.5001,-982.4132"/>
</g>
<!-- 18&#45;&gt;22 -->
<g id="edge32" class="edge">
<title>18&#45;&gt;22</title>
<path fill="none" stroke="#000000" d="M146.6014,-864.937C143.407,-856.4186 139.471,-845.9227 135.8982,-836.3952"/>
<polygon fill="#000000" stroke="#000000" points="139.1411,-835.0749 132.3527,-826.9405 132.5868,-837.5328 139.1411,-835.0749"/>
</g>
<!-- 31 -->
<g id="node34" class="node">
<title>31</title>
<ellipse fill="none" stroke="#000000" cx="288" cy="-954" rx="18" ry="18"/>
<text text-anchor="middle" x="288" y="-952.1" font-family="Bitstream Vera Sans" font-size="8.00" fill="#000000">31</text>
</g>
<!-- 32 -->
<g id="node41" class="node">
<title>32</title>
<ellipse fill="none" stroke="#000000" cx="288" cy="-882" rx="18" ry="18"/>
<text text-anchor="middle" x="288" y="-880.1" font-family="Bitstream Vera Sans" font-size="8.00" fill="#000000">32</text>
</g>
<!-- 31&#45;&gt;32 -->
<g id="edge33" class="edge">
<title>31&#45;&gt;32</title>
<path fill="none" stroke="#000000" d="M288,-935.8314C288,-928.131 288,-918.9743 288,-910.4166"/>
<polygon fill="#000000" stroke="#000000" points="291.5001,-910.4132 288,-900.4133 284.5001,-910.4133 291.5001,-910.4132"/>
</g>
<!-- 30 -->
<g id="node35" class="node">
<title>30</title>
<ellipse fill="none" stroke="#000000" cx="288" cy="-1026" rx="18" ry="18"/>
<text text-anchor="middle" x="288" y="-1024.1" font-family="Bitstream Vera Sans" font-size="8.00" fill="#000000">30</text>
</g>
<!-- 30&#45;&gt;31 -->
<g id="edge34" class="edge">
<title>30&#45;&gt;31</title>
<path fill="none" stroke="#000000" d="M288,-1007.8314C288,-1000.131 288,-990.9743 288,-982.4166"/>
<polygon fill="#000000" stroke="#000000" points="291.5001,-982.4132 288,-972.4133 284.5001,-982.4133 291.5001,-982.4132"/>
</g>
<!-- 37 -->
<g id="node36" class="node">
<title>37</title>
<ellipse fill="none" stroke="#000000" cx="234" cy="-594" rx="18" ry="18"/>
<text text-anchor="middle" x="234" y="-592.1" font-family="Bitstream Vera Sans" font-size="8.00" fill="#000000">37</text>
</g>
<!-- 37&#45;&gt;38 -->
<g id="edge35" class="edge">
<title>37&#45;&gt;38</title>
<path fill="none" stroke="#000000" d="M240.3986,-576.937C243.593,-568.4186 247.529,-557.9227 251.1018,-548.3952"/>
<polygon fill="#000000" stroke="#000000" points="254.4132,-549.5328 254.6473,-538.9405 247.8589,-547.0749 254.4132,-549.5328"/>
</g>
<!-- 36&#45;&gt;37 -->
<g id="edge36" class="edge">
<title>36&#45;&gt;37</title>
<path fill="none" stroke="#000000" d="M190.9277,-651.4297C198.3934,-641.4754 208.4368,-628.0842 216.9474,-616.7368"/>
<polygon fill="#000000" stroke="#000000" points="219.8885,-618.6486 223.0885,-608.5486 214.2885,-614.4486 219.8885,-618.6486"/>
</g>
<!-- 35 -->
<g id="node38" class="node">
<title>35</title>
<ellipse fill="none" stroke="#000000" cx="234" cy="-738" rx="18" ry="18"/>
<text text-anchor="middle" x="234" y="-736.1" font-family="Bitstream Vera Sans" font-size="8.00" fill="#000000">35</text>
</g>
<!-- 35&#45;&gt;36 -->
<g id="edge37" class="edge">
<title>35&#45;&gt;36</title>
<path fill="none" stroke="#000000" d="M223.0723,-723.4297C215.6066,-713.4754 205.5632,-700.0842 197.0526,-688.7368"/>
<polygon fill="#000000" stroke="#000000" points="199.7115,-686.4486 190.9115,-680.5486 194.1115,-690.6486 199.7115,-686.4486"/>
</g>
<!-- 34 -->
<g id="node39" class="node">
<title>34</title>
<ellipse fill="none" stroke="#000000" cx="288" cy="-738" rx="18" ry="18"/>
<text text-anchor="middle" x="288" y="-736.1" font-family="Bitstream Vera Sans" font-size="8.00" fill="#000000">34</text>
</g>
<!-- 34&#45;&gt;36 -->
<g id="edge38" class="edge">
<title>34&#45;&gt;36</title>
<path fill="none" stroke="#000000" d="M272.9831,-727.9887C255.03,-716.02 224.7675,-695.845 203.6604,-681.7736"/>
<polygon fill="#000000" stroke="#000000" points="205.4995,-678.7932 195.2376,-676.1584 201.6166,-684.6176 205.4995,-678.7932"/>
</g>
<!-- 33 -->
<g id="node40" class="node">
<title>33</title>
<ellipse fill="none" stroke="#000000" cx="288" cy="-810" rx="18" ry="18"/>
<text text-anchor="middle" x="288" y="-808.1" font-family="Bitstream Vera Sans" font-size="8.00" fill="#000000">33</text>
</g>
<!-- 33&#45;&gt;34 -->
<g id="edge39" class="edge">
<title>33&#45;&gt;34</title>
<path fill="none" stroke="#000000" d="M288,-791.8314C288,-784.131 288,-774.9743 288,-766.4166"/>
<polygon fill="#000000" stroke="#000000" points="291.5001,-766.4132 288,-756.4133 284.5001,-766.4133 291.5001,-766.4132"/>
</g>
<!-- 32&#45;&gt;33 -->
<g id="edge40" class="edge">
<title>32&#45;&gt;33</title>
<path fill="none" stroke="#000000" d="M288,-863.8314C288,-856.131 288,-846.9743 288,-838.4166"/>
<polygon fill="#000000" stroke="#000000" points="291.5001,-838.4132 288,-828.4133 284.5001,-838.4133 291.5001,-838.4132"/>
</g>
</g>
</svg>
